MerriweatherSans-Italic.ufo
<glyph name="exclam" format="2">
  <advance width="670"/>
  <unicode hex="0021"/>
  <note>
exclam
</note>
  <outline>
    <contour>
      <point x="233" y="479" type="line"/>
      <point x="403" y="479" type="line"/>
      <point x="624" y="1736" type="line"/>
      <point x="382" y="1736" type="line"/>
    </contour>
    <contour>
      <point x="245" y="-17" type="curve" smooth="yes"/>
      <point x="345" y="-17"/>
      <point x="421" y="57"/>
      <point x="424" y="156" type="curve" smooth="yes"/>
      <point x="427" y="221"/>
      <point x="385" y="265"/>
      <point x="299" y="265" type="curve" smooth="yes"/>
      <point x="205" y="265"/>
      <point x="123" y="188"/>
      <point x="121" y="96" type="curve" smooth="yes"/>
      <point x="119" y="29"/>
      <point x="174" y="-17"/>
    </contour>
  </outline>
</glyph>
<glyph name="numbersign" format="2">
  <advance width="1372"/>
  <unicode hex="0023"/>
  <note>
numbersign
</note>
  <outline>
    <contour>
      <point x="254" y="0" type="line"/>
      <point x="425" y="0" type="line"/>
      <point x="486" y="349" type="line"/>
      <point x="778" y="349" type="line"/>
      <point x="728" y="0" type="line"/>
      <point x="897" y="0" type="line"/>
      <point x="952" y="349" type="line"/>
      <point x="1179" y="349" type="line"/>
      <point x="1189" y="490" type="line"/>
      <point x="974" y="490" type="line"/>
      <point x="1035" y="869" type="line"/>
      <point x="1267" y="869" type="line"/>
      <point x="1277" y="1008" type="line"/>
      <point x="1056" y="1008" type="line"/>
      <point x="1109" y="1326" type="line"/>
      <point x="934" y="1326" type="line"/>
      <point x="881" y="1008" type="line"/>
      <point x="589" y="1008" type="line"/>
      <point x="639" y="1326" type="line"/>
      <point x="464" y="1326" type="line"/>
      <point x="413" y="1008" type="line"/>
      <point x="193" y="1008" type="line"/>
      <point x="183" y="869" type="line"/>
      <point x="393" y="869" type="line"/>
      <point x="331" y="490" type="line"/>
      <point x="118" y="490" type="line"/>
      <point x="108" y="349" type="line"/>
      <point x="311" y="349" type="line"/>
    </contour>
    <contour>
      <point x="508" y="490" type="line"/>
      <point x="568" y="869" type="line"/>
      <point x="859" y="869" type="line"/>
      <point x="799" y="490" type="line"/>
    </contour>
  </outline>
</glyph>
<glyph name="dollar" format="2">
  <advance width="1176"/>
  <unicode hex="0024"/>
  <note>
dollar
</note>
  <outline>
    <contour>
      <point x="368" y="-232" type="line"/>
      <point x="554" y="-232" type="line"/>
      <point x="590" y="-14" type="line"/>
      <point x="841" y="20"/>
      <point x="1001" y="167"/>
      <point x="1001" y="407" type="curve" smooth="yes"/>
      <point x="1001" y="594"/>
      <point x="887" y="704"/>
      <point x="705" y="830" type="curve" smooth="yes"/>
      <point x="587" y="911"/>
      <point x="477" y="1045"/>
      <point x="481" y="1150" type="curve" smooth="yes"/>
      <point x="485" y="1289"/>
      <point x="599" y="1342"/>
      <point x="741" y="1342" type="curve" smooth="yes"/>
      <point x="831" y="1342"/>
      <point x="947" y="1313"/>
      <point x="1001" y="1258" type="curve"/>
      <point x="1071" y="1426" type="line"/>
      <point x="1015" y="1467"/>
      <point x="936" y="1493"/>
      <point x="834" y="1503" type="curve"/>
      <point x="867" y="1698" type="line"/>
      <point x="680" y="1698" type="line"/>
      <point x="648" y="1503" type="line"/>
      <point x="423" y="1475"/>
      <point x="267" y="1335"/>
      <point x="267" y="1113" type="curve" smooth="yes"/>
      <point x="267" y="919"/>
      <point x="383" y="789"/>
      <point x="568" y="666" type="curve" smooth="yes"/>
      <point x="722" y="563"/>
      <point x="775" y="479"/>
      <point x="775" y="369" type="curve" smooth="yes"/>
      <point x="775" y="216"/>
      <point x="614" y="149"/>
      <point x="481" y="149" type="curve" smooth="yes"/>
      <point x="381" y="149"/>
      <point x="225" y="196"/>
      <point x="181" y="243" type="curve"/>
      <point x="117" y="68" type="line"/>
      <point x="156" y="35"/>
      <point x="277" y="-5"/>
      <point x="404" y="-17" type="curve"/>
    </contour>
  </outline>
</glyph>
<glyph name="percent" format="2">
  <advance width="1734"/>
  <unicode hex="0025"/>
  <note>
percent
</note>
  <outline>
    <contour>
      <point x="350" y="0" type="line"/>
      <point x="523" y="0" type="line"/>
      <point x="1409" y="1494" type="line"/>
      <point x="1240" y="1494" type="line"/>
    </contour>
    <contour>
      <point x="410" y="716" type="curve" smooth="yes"/>
      <point x="648" y="716"/>
      <point x="814" y="920"/>
      <point x="814" y="1159" type="curve" smooth="yes"/>
      <point x="814" y="1326"/>
      <point x="720" y="1454"/>
      <point x="530" y="1454" type="curve" smooth="yes"/>
      <point x="286" y="1454"/>
      <point x="121" y="1251"/>
      <point x="121" y="1027" type="curve" smooth="yes"/>
      <point x="121" y="845"/>
      <point x="233" y="716"/>
    </contour>
    <contour>
      <point x="434" y="850" type="curve" smooth="yes"/>
      <point x="345" y="850"/>
      <point x="291" y="921"/>
      <point x="291" y="1031" type="curve" smooth="yes"/>
      <point x="291" y="1161"/>
      <point x="355" y="1321"/>
      <point x="506" y="1321" type="curve" smooth="yes"/>
      <point x="587" y="1321"/>
      <point x="636" y="1255"/>
      <point x="636" y="1147" type="curve" smooth="yes"/>
      <point x="636" y="1016"/>
      <point x="567" y="850"/>
    </contour>
    <contour>
      <point x="1263" y="61" type="curve" smooth="yes"/>
      <point x="1501" y="61"/>
      <point x="1667" y="265"/>
      <point x="1667" y="503" type="curve" smooth="yes"/>
      <point x="1667" y="670"/>
      <point x="1573" y="799"/>
      <point x="1384" y="799" type="curve" smooth="yes"/>
      <point x="1138" y="799"/>
      <point x="975" y="595"/>
      <point x="975" y="372" type="curve" smooth="yes"/>
      <point x="975" y="189"/>
      <point x="1086" y="61"/>
    </contour>
    <contour>
      <point x="1288" y="195" type="curve" smooth="yes"/>
      <point x="1198" y="195"/>
      <point x="1144" y="266"/>
      <point x="1144" y="376" type="curve" smooth="yes"/>
      <point x="1144" y="506"/>
      <point x="1209" y="666"/>
      <point x="1360" y="666" type="curve" smooth="yes"/>
      <point x="1441" y="666"/>
      <point x="1490" y="601"/>
      <point x="1490" y="492" type="curve" smooth="yes"/>
      <point x="1490" y="362"/>
      <point x="1421" y="195"/>
    </contour>
  </outline>
</glyph>
<glyph name="ampersand" format="2">
  <advance width="1503"/>
  <unicode hex="0026"/>
  <note>
ampersand
</note>
  <outline>
    <contour>
      <point x="622" y="-16" type="curve" smooth="yes"/>
      <point x="751" y="-16"/>
      <point x="858" y="7"/>
      <point x="954" y="51" type="curve"/>
      <point x="1025" y="7"/>
      <point x="1126" y="-19"/>
      <point x="1204" y="-19" type="curve" smooth="yes"/>
      <point x="1262" y="-19"/>
      <point x="1324" y="-14"/>
      <point x="1365" y="-4" type="curve"/>
      <point x="1390" y="124" type="line"/>
      <point x="1266" y="123"/>
      <point x="1201" y="130"/>
      <point x="1131" y="166" type="curve"/>
      <point x="1229" y="264"/>
      <point x="1281" y="403"/>
      <point x="1281" y="572" type="curve" smooth="yes"/>
      <point x="1281" y="601"/>
      <point x="1278" y="628"/>
      <point x="1272" y="654" type="curve"/>
      <point x="1419" y="654" type="line"/>
      <point x="1431" y="810" type="line"/>
      <point x="1125" y="810" type="line" smooth="yes"/>
      <point x="1066" y="810"/>
      <point x="1003" y="807"/>
      <point x="975" y="777" type="curve"/>
      <point x="965" y="630" type="line"/>
      <point x="987" y="641"/>
      <point x="1031" y="649"/>
      <point x="1074" y="652" type="curve"/>
      <point x="1085" y="611"/>
      <point x="1081" y="575"/>
      <point x="1081" y="527" type="curve" smooth="yes"/>
      <point x="1081" y="424"/>
      <point x="1052" y="339"/>
      <point x="991" y="270" type="curve"/>
      <point x="865" y="386"/>
      <point x="755" y="534"/>
      <point x="646" y="719" type="curve"/>
      <point x="952" y="888"/>
      <point x="1088" y="1002"/>
      <point x="1088" y="1208" type="curve" smooth="yes"/>
      <point x="1088" y="1333"/>
      <point x="975" y="1510"/>
      <point x="733" y="1510" type="curve" smooth="yes"/>
      <point x="490" y="1510"/>
      <point x="316" y="1340"/>
      <point x="316" y="1099" type="curve" smooth="yes"/>
      <point x="316" y="999"/>
      <point x="352" y="870"/>
      <point x="401" y="761" type="curve"/>
      <point x="213" y="668"/>
      <point x="78" y="543"/>
      <point x="78" y="359" type="curve" smooth="yes"/>
      <point x="78" y="99"/>
      <point x="313" y="-16"/>
    </contour>
    <contour>
      <point x="639" y="135" type="curve" smooth="yes"/>
      <point x="456" y="135"/>
      <point x="300" y="197"/>
      <point x="300" y="367" type="curve" smooth="yes"/>
      <point x="300" y="468"/>
      <point x="364" y="545"/>
      <point x="477" y="620" type="curve"/>
      <point x="596" y="425"/>
      <point x="672" y="310"/>
      <point x="823" y="164" type="curve"/>
      <point x="768" y="145"/>
      <point x="706" y="135"/>
    </contour>
    <contour>
      <point x="572" y="853" type="curve"/>
      <point x="534" y="936"/>
      <point x="515" y="1022"/>
      <point x="515" y="1110" type="curve" smooth="yes"/>
      <point x="515" y="1244"/>
      <point x="595" y="1366"/>
      <point x="720" y="1366" type="curve" smooth="yes"/>
      <point x="826" y="1366"/>
      <point x="885" y="1294"/>
      <point x="885" y="1185" type="curve" smooth="yes"/>
      <point x="885" y="1045"/>
      <point x="765" y="956"/>
    </contour>
  </outline>
</glyph>
<glyph name="quotesingle" format="2">
  <advance width="519"/>
  <unicode hex="0027"/>
  <note>
quotesingle
</note>
  <outline>
    <contour>
      <point x="217" y="944" type="line"/>
      <point x="368" y="944" type="line"/>
      <point x="532" y="1648" type="line"/>
      <point x="294" y="1648" type="line"/>
    </contour>
  </outline>
</glyph>
<glyph name="parenright" format="2">
  <advance width="834"/>
  <unicode hex="0029"/>
  <note>
parenright
</note>
  <outline>
    <contour>
      <point x="104" y="-314" type="line"/>
      <point x="420" y="-124"/>
      <point x="684" y="422"/>
      <point x="684" y="870" type="curve" smooth="yes"/>
      <point x="684" y="1210"/>
      <point x="566" y="1548"/>
      <point x="350" y="1712" type="curve"/>
      <point x="216" y="1642" type="line"/>
      <point x="380" y="1494"/>
      <point x="466" y="1152"/>
      <point x="466" y="868" type="curve" smooth="yes"/>
      <point x="466" y="428"/>
      <point x="268" y="-28"/>
      <point x="-22" y="-246" type="curve"/>
    </contour>
  </outline>
</glyph>
<glyph name="asterisk" format="2">
  <advance width="1278"/>
  <unicode hex="002A"/>
  <note>
asterisk
</note>
  <outline>
    <contour>
      <point x="563" y="622" type="line"/>
      <point x="763" y="621" type="line"/>
      <point x="761" y="912" type="line"/>
      <point x="747" y="1053" type="line"/>
      <point x="845" y="959" type="line"/>
      <point x="1063" y="788" type="line"/>
      <point x="1180" y="957" type="line"/>
      <point x="925" y="1075" type="line"/>
      <point x="799" y="1122" type="line"/>
      <point x="935" y="1169" type="line"/>
      <point x="1214" y="1290" type="line"/>
      <point x="1136" y="1459" type="line"/>
      <point x="880" y="1287" type="line"/>
      <point x="762" y="1196" type="line"/>
      <point x="802" y="1335" type="line"/>
      <point x="863" y="1625" type="line"/>
      <point x="668" y="1625" type="line"/>
      <point x="667" y="1335" type="line"/>
      <point x="679" y="1196" type="line"/>
      <point x="581" y="1287" type="line"/>
      <point x="362" y="1458" type="line"/>
      <point x="247" y="1290" type="line"/>
      <point x="503" y="1169" type="line"/>
      <point x="630" y="1124" type="line"/>
      <point x="493" y="1075" type="line"/>
      <point x="214" y="957" type="line"/>
      <point x="293" y="787" type="line"/>
      <point x="549" y="959" type="line"/>
      <point x="662" y="1053" type="line"/>
      <point x="624" y="912" type="line"/>
    </contour>
  </outline>
</glyph>
<glyph name="plus" format="2">
  <advance width="1332"/>
  <unicode hex="002B"/>
  <note>
plus
</note>
  <outline>
    <contour>
      <point x="533" y="281" type="line"/>
      <point x="722" y="281" type="line"/>
      <point x="751" y="522" type="line"/>
      <point x="759" y="678" type="line"/>
      <point x="866" y="670" type="line"/>
      <point x="1119" y="670" type="line"/>
      <point x="1138" y="842" type="line"/>
      <point x="887" y="842" type="line"/>
      <point x="777" y="832" type="line"/>
      <point x="804" y="988" type="line"/>
      <point x="830" y="1220" type="line"/>
      <point x="642" y="1220" type="line"/>
      <point x="615" y="988" type="line"/>
      <point x="602" y="830" type="line"/>
      <point x="471" y="842" type="line"/>
      <point x="246" y="842" type="line"/>
      <point x="227" y="670" type="line"/>
      <point x="450" y="670" type="line"/>
      <point x="584" y="678" type="line"/>
      <point x="560" y="522" type="line"/>
    </contour>
  </outline>
</glyph>
<glyph name="comma" format="2">
  <advance width="514"/>
  <unicode hex="002C"/>
  <note>
comma
</note>
  <outline>
    <contour>
      <point x="60" y="-493" type="line"/>
      <point x="183" y="-451"/>
      <point x="280" y="-359"/>
      <point x="331" y="-237" type="curve" smooth="yes"/>
      <point x="357" y="-175"/>
      <point x="369" y="-109"/>
      <point x="369" y="-39" type="curve" smooth="yes"/>
      <point x="369" y="83"/>
      <point x="316" y="213"/>
      <point x="181" y="263" type="curve"/>
      <point x="69" y="129" type="line"/>
      <point x="63" y="77" type="line"/>
      <point x="117" y="59"/>
      <point x="156" y="-20"/>
      <point x="156" y="-107" type="curve" smooth="yes"/>
      <point x="156" y="-223"/>
      <point x="85" y="-329"/>
      <point x="-11" y="-379" type="curve"/>
      <point x="-15" y="-399" type="line"/>
    </contour>
  </outline>
</glyph>
<glyph name="hyphen" format="2">
  <advance width="1200"/>
  <unicode hex="002D"/>
  <note>
hyphen
</note>
  <outline>
    <contour>
      <point x="213" y="630" type="line"/>
      <point x="1009" y="630" type="line"/>
      <point x="1030" y="799" type="line"/>
      <point x="234" y="799" type="line"/>
    </contour>
  </outline>
</glyph>
<glyph name="period" format="2">
  <advance width="514"/>
  <unicode hex="002E"/>
  <note>
period
</note>
  <outline>
    <contour>
      <point x="200" y="-23" type="curve" smooth="yes"/>
      <point x="299" y="-23"/>
      <point x="362" y="41"/>
      <point x="362" y="142" type="curve" smooth="yes"/>
      <point x="362" y="210"/>
      <point x="322" y="258"/>
      <point x="239" y="258" type="curve" smooth="yes"/>
      <point x="147" y="258"/>
      <point x="77" y="180"/>
      <point x="77" y="93" type="curve" smooth="yes"/>
      <point x="77" y="25"/>
      <point x="130" y="-23"/>
    </contour>
  </outline>
</glyph>
<glyph name="slash" format="2">
  <advance width="834"/>
  <unicode hex="002F"/>
  <note>
slash
</note>
  <outline>
    <contour>
      <point x="-98" y="-354" type="line"/>
      <point x="86" y="-354" type="line"/>
      <point x="928" y="1560" type="line"/>
      <point x="742" y="1560" type="line"/>
    </contour>
  </outline>
</glyph>
<glyph name="zero" format="2">
  <advance width="1248"/>
  <unicode hex="0030"/>
  <outline>
    <contour>
      <point x="544" y="-16" type="curve" smooth="yes" name="hr00"/>
      <point x="916" y="-16"/>
      <point x="1182" y="420"/>
      <point x="1182" y="906" type="curve" smooth="yes"/>
      <point x="1182" y="1246"/>
      <point x="1048" y="1496"/>
      <point x="748" y="1496" type="curve" smooth="yes"/>
      <point x="396" y="1496"/>
      <point x="116" y="1116"/>
      <point x="116" y="586" type="curve" smooth="yes"/>
      <point x="116" y="276"/>
      <point x="244" y="-16"/>
    </contour>
    <contour>
      <point x="574" y="154" type="curve" smooth="yes"/>
      <point x="416" y="154"/>
      <point x="346" y="354"/>
      <point x="346" y="612" type="curve" smooth="yes"/>
      <point x="346" y="884"/>
      <point x="446" y="1332"/>
      <point x="728" y="1326" type="curve" smooth="yes"/>
      <point x="884" y="1324"/>
      <point x="946" y="1162"/>
      <point x="946" y="878" type="curve" smooth="yes"/>
      <point x="946" y="532"/>
      <point x="816" y="154"/>
    </contour>
  </outline>
</glyph>
<glyph name="one" format="2">
  <advance width="904"/>
  <unicode hex="0031"/>
  <outline>
    <contour>
      <point x="282" y="0" type="line" name="hr00"/>
      <point x="509" y="0" type="line"/>
      <point x="728" y="1486" type="line"/>
      <point x="616" y="1506" type="line"/>
      <point x="614" y="1506" type="line"/>
      <point x="510" y="1420"/>
      <point x="308" y="1314"/>
      <point x="172" y="1282" type="curve"/>
      <point x="202" y="1144" type="line"/>
      <point x="288" y="1152"/>
      <point x="382" y="1182"/>
      <point x="459" y="1211" type="curve"/>
    </contour>
  </outline>
</glyph>
<glyph name="two" format="2">
  <advance width="1182"/>
  <unicode hex="0032"/>
  <outline>
    <contour>
      <point x="62" y="0" type="line"/>
      <point x="1016" y="0" type="line"/>
      <point x="1014" y="186" type="line"/>
      <point x="304" y="150" type="line" name="hr01"/>
      <point x="630" y="326"/>
      <point x="1072" y="734"/>
      <point x="1072" y="1078" type="curve" smooth="yes"/>
      <point x="1072" y="1262"/>
      <point x="984" y="1506"/>
      <point x="606" y="1506" type="curve" smooth="yes"/>
      <point x="404" y="1506"/>
      <point x="250" y="1396"/>
      <point x="170" y="1314" type="curve"/>
      <point x="250" y="1188" type="line"/>
      <point x="324" y="1248"/>
      <point x="424" y="1326"/>
      <point x="576" y="1326" type="curve" smooth="yes"/>
      <point x="770" y="1326"/>
      <point x="826" y="1194"/>
      <point x="826" y="1078" type="curve" smooth="yes"/>
      <point x="826" y="710"/>
      <point x="386" y="336"/>
      <point x="26" y="122" type="curve"/>
    </contour>
  </outline>
</glyph>
<glyph name="three" format="2">
  <advance width="1136"/>
  <unicode hex="0033"/>
  <outline>
    <contour>
      <point x="264" y="-16" type="curve" smooth="yes"/>
      <point x="630" y="-16"/>
      <point x="982" y="172"/>
      <point x="982" y="472" type="curve" smooth="yes"/>
      <point x="982" y="626"/>
      <point x="864" y="776"/>
      <point x="610" y="770" type="curve"/>
      <point x="810" y="838"/>
      <point x="992" y="1000"/>
      <point x="992" y="1190" type="curve" smooth="yes"/>
      <point x="992" y="1402"/>
      <point x="836" y="1508"/>
      <point x="626" y="1508" type="curve" smooth="yes"/>
      <point x="418" y="1508"/>
      <point x="244" y="1414"/>
      <point x="180" y="1350" type="curve"/>
      <point x="248" y="1202" type="line"/>
      <point x="332" y="1264"/>
      <point x="434" y="1332"/>
      <point x="566" y="1332" type="curve" smooth="yes"/>
      <point x="714" y="1332"/>
      <point x="764" y="1268"/>
      <point x="764" y="1166" type="curve" smooth="yes"/>
      <point x="764" y="994"/>
      <point x="504" y="852"/>
      <point x="318" y="816" type="curve"/>
      <point x="302" y="636" type="line"/>
      <point x="448" y="668" type="line"/>
      <point x="660" y="666"/>
      <point x="740" y="578"/>
      <point x="740" y="460" type="curve" smooth="yes"/>
      <point x="740" y="262"/>
      <point x="514" y="152"/>
      <point x="254" y="152" type="curve" smooth="yes"/>
      <point x="204" y="152"/>
      <point x="148" y="156"/>
      <point x="84" y="162" type="curve"/>
      <point x="64" y="-4" type="line" name="hr01"/>
      <point x="142" y="-10"/>
      <point x="204" y="-16"/>
    </contour>
  </outline>
</glyph>
<glyph name="four" format="2">
  <advance width="1240"/>
  <unicode hex="0034"/>
  <outline>
    <contour>
      <point x="632" y="0" type="line"/>
      <point x="842" y="0" type="line"/>
      <point x="876" y="298" type="line"/>
      <point x="1126" y="298" type="line"/>
      <point x="1150" y="486" type="line"/>
      <point x="898" y="472" type="line"/>
      <point x="958" y="910" type="line"/>
      <point x="744" y="872" type="line"/>
      <point x="690" y="462" type="line"/>
      <point x="266" y="446" type="line"/>
      <point x="346" y="544" type="line"/>
      <point x="914" y="1414" type="line"/>
      <point x="792" y="1494" type="line"/>
      <point x="674" y="1494" type="line"/>
      <point x="444" y="1070"/>
      <point x="250" y="744"/>
      <point x="28" y="406" type="curve"/>
      <point x="72" y="298" type="line" name="hr00"/>
      <point x="668" y="298" type="line"/>
    </contour>
  </outline>
</glyph>
<glyph name="five" format="2">
  <advance width="1180"/>
  <unicode hex="0035"/>
  <outline>
    <contour>
      <point x="224" y="-12" type="curve" smooth="yes"/>
      <point x="686" y="-12"/>
      <point x="1040" y="228"/>
      <point x="1040" y="586" type="curve" smooth="yes"/>
      <point x="1040" y="808"/>
      <point x="914" y="948"/>
      <point x="638" y="948" type="curve" smooth="yes"/>
      <point x="572" y="948"/>
      <point x="482" y="936"/>
      <point x="424" y="918" type="curve"/>
      <point x="524" y="1308" type="line"/>
      <point x="1040" y="1308" type="line"/>
      <point x="1086" y="1510" type="line" name="hr01"/>
      <point x="934" y="1510" type="line"/>
      <point x="914" y="1494" type="line" name="hr02"/>
      <point x="350" y="1494" type="line"/>
      <point x="194" y="816" type="line"/>
      <point x="278" y="730" type="line"/>
      <point x="348" y="762"/>
      <point x="454" y="782"/>
      <point x="526" y="782" type="curve" smooth="yes"/>
      <point x="696" y="782"/>
      <point x="782" y="698"/>
      <point x="782" y="548" type="curve" smooth="yes"/>
      <point x="782" y="272"/>
      <point x="486" y="152"/>
      <point x="200" y="152" type="curve" smooth="yes"/>
      <point x="176" y="152"/>
      <point x="152" y="154"/>
      <point x="122" y="160" type="curve"/>
      <point x="96" y="4" type="line"/>
      <point x="136" y="-10"/>
      <point x="192" y="-12"/>
    </contour>
  </outline>
</glyph>
<glyph name="six" format="2">
  <advance width="1230"/>
  <unicode hex="0036"/>
  <outline>
    <contour>
      <point x="569" y="-16" type="curve" smooth="yes"/>
      <point x="938" y="-16"/>
      <point x="1118" y="306"/>
      <point x="1118" y="590" type="curve" smooth="yes"/>
      <point x="1118" y="788"/>
      <point x="991" y="978"/>
      <point x="743" y="978" type="curve" smooth="yes"/>
      <point x="600" y="978"/>
      <point x="492" y="926"/>
      <point x="426" y="868" type="curve"/>
      <point x="504" y="1078"/>
      <point x="700" y="1268"/>
      <point x="994" y="1374" type="curve"/>
      <point x="944" y="1506" type="line"/>
      <point x="448" y="1374"/>
      <point x="128" y="992"/>
      <point x="128" y="494" type="curve" smooth="yes" name="hr00"/>
      <point x="128" y="222"/>
      <point x="275" y="-16"/>
    </contour>
    <contour>
      <point x="585" y="140" type="curve" smooth="yes"/>
      <point x="400" y="140"/>
      <point x="348" y="292"/>
      <point x="348" y="474" type="curve" smooth="yes"/>
      <point x="348" y="546"/>
      <point x="352" y="600"/>
      <point x="372" y="676" type="curve"/>
      <point x="410" y="718"/>
      <point x="498" y="806"/>
      <point x="675" y="807" type="curve" smooth="yes"/>
      <point x="784" y="808"/>
      <point x="896" y="736"/>
      <point x="896" y="562" type="curve" smooth="yes"/>
      <point x="896" y="366"/>
      <point x="778" y="140"/>
    </contour>
  </outline>
</glyph>
<glyph name="seven" format="2">
  <advance width="1048"/>
  <unicode hex="0037"/>
  <outline>
    <contour>
      <point x="188" y="0" type="line"/>
      <point x="450" y="0" type="line"/>
      <point x="1078" y="1448" type="line" name="hr01"/>
      <point x="1044" y="1494" type="line"/>
      <point x="150" y="1494" type="line"/>
      <point x="130" y="1314" type="line"/>
      <point x="822" y="1316" type="line"/>
    </contour>
  </outline>
</glyph>
<glyph name="eight" format="2">
  <advance width="1232"/>
  <unicode hex="0038"/>
  <outline>
    <contour>
      <point x="546" y="-16" type="curve" smooth="yes"/>
      <point x="834" y="-16"/>
      <point x="1062" y="136"/>
      <point x="1062" y="396" type="curve" smooth="yes"/>
      <point x="1062" y="562"/>
      <point x="934" y="670"/>
      <point x="794" y="770" type="curve"/>
      <point x="962" y="826"/>
      <point x="1124" y="984"/>
      <point x="1124" y="1188" type="curve" smooth="yes"/>
      <point x="1124" y="1384"/>
      <point x="954" y="1508"/>
      <point x="732" y="1506" type="curve" smooth="yes"/>
      <point x="490" y="1504"/>
      <point x="270" y="1370"/>
      <point x="270" y="1110" type="curve" smooth="yes"/>
      <point x="270" y="962"/>
      <point x="346" y="854"/>
      <point x="448" y="766" type="curve"/>
      <point x="260" y="692"/>
      <point x="106" y="558"/>
      <point x="106" y="344" type="curve" smooth="yes" name="hr00"/>
      <point x="106" y="106"/>
      <point x="326" y="-16"/>
    </contour>
    <contour>
      <point x="578" y="132" type="curve" smooth="yes"/>
      <point x="436" y="132"/>
      <point x="338" y="232"/>
      <point x="338" y="372" type="curve" smooth="yes"/>
      <point x="338" y="526"/>
      <point x="436" y="624"/>
      <point x="562" y="690" type="curve"/>
      <point x="722" y="580"/>
      <point x="832" y="496"/>
      <point x="832" y="360" type="curve" smooth="yes"/>
      <point x="832" y="228"/>
      <point x="726" y="132"/>
    </contour>
    <contour>
      <point x="690" y="850" type="curve"/>
      <point x="576" y="934"/>
      <point x="492" y="1018"/>
      <point x="492" y="1140" type="curve" smooth="yes"/>
      <point x="492" y="1268"/>
      <point x="584" y="1364"/>
      <point x="714" y="1364" type="curve" smooth="yes"/>
      <point x="818" y="1364"/>
      <point x="908" y="1300"/>
      <point x="908" y="1170" type="curve" smooth="yes"/>
      <point x="908" y="1022"/>
      <point x="812" y="908"/>
    </contour>
  </outline>
</glyph>
<glyph name="nine" format="2">
  <advance width="1230"/>
  <unicode hex="0039"/>
  <outline>
    <contour>
      <point x="324" y="-18" type="line"/>
      <point x="814" y="114"/>
      <point x="1134" y="490"/>
      <point x="1134" y="988" type="curve" smooth="yes"/>
      <point x="1134" y="1258"/>
      <point x="994" y="1496"/>
      <point x="690" y="1496" type="curve" smooth="yes"/>
      <point x="334" y="1496"/>
      <point x="140" y="1216"/>
      <point x="140" y="912" type="curve" smooth="yes"/>
      <point x="140" y="712"/>
      <point x="266" y="496"/>
      <point x="530" y="496" type="curve" smooth="yes"/>
      <point x="662" y="496"/>
      <point x="780" y="534"/>
      <point x="842" y="592" type="curve"/>
      <point x="764" y="384"/>
      <point x="570" y="220"/>
      <point x="274" y="114" type="curve" name="hr00"/>
    </contour>
    <contour>
      <point x="592" y="664" type="curve" smooth="yes"/>
      <point x="474" y="664"/>
      <point x="364" y="746"/>
      <point x="364" y="940" type="curve" smooth="yes"/>
      <point x="364" y="1126"/>
      <point x="466" y="1340"/>
      <point x="664" y="1340" type="curve" smooth="yes"/>
      <point x="832" y="1340"/>
      <point x="914" y="1178"/>
      <point x="914" y="998" type="curve" smooth="yes"/>
      <point x="914" y="930"/>
      <point x="918" y="872"/>
      <point x="900" y="794" type="curve"/>
      <point x="864" y="750"/>
      <point x="760" y="664"/>
    </contour>
  </outline>
</glyph>
<glyph name="less" format="2">
  <advance width="1341"/>
  <unicode hex="003C"/>
  <note>
less
</note>
  <outline>
    <contour>
      <point x="1063" y="173" type="line"/>
      <point x="1084" y="362" type="line"/>
      <point x="437" y="726" type="line"/>
      <point x="1170" y="1090" type="line"/>
      <point x="1196" y="1297" type="line"/>
      <point x="207" y="797" type="line"/>
      <point x="191" y="672" type="line"/>
    </contour>
  </outline>
</glyph>
<glyph name="equal" format="2">
  <advance width="1041"/>
  <unicode hex="003D"/>
  <note>
equal
</note>
  <outline>
    <contour>
      <point x="161" y="822" type="line"/>
      <point x="961" y="822" type="line"/>
      <point x="983" y="990" type="line"/>
      <point x="182" y="990" type="line"/>
    </contour>
    <contour>
      <point x="95" y="328" type="line"/>
      <point x="896" y="328" type="line"/>
      <point x="916" y="495" type="line"/>
      <point x="117" y="495" type="line"/>
    </contour>
  </outline>
</glyph>
<glyph name="greater" format="2">
  <advance width="1341"/>
  <unicode hex="003E"/>
  <note>
greater
</note>
  <outline>
    <contour>
      <point x="245" y="175" type="line"/>
      <point x="1234" y="675" type="line"/>
      <point x="1249" y="801" type="line"/>
      <point x="377" y="1300" type="line"/>
      <point x="356" y="1111" type="line"/>
      <point x="1004" y="747" type="line"/>
      <point x="271" y="383" type="line"/>
    </contour>
  </outline>
</glyph>
<glyph name="question" format="2">
  <advance width="880"/>
  <unicode hex="003F"/>
  <note>
question
</note>
  <outline>
    <contour>
      <point x="250" y="514" type="curve"/>
      <point x="414" y="514" type="line"/>
      <point x="408" y="564"/>
      <point x="405" y="602"/>
      <point x="407" y="648" type="curve" smooth="yes"/>
      <point x="413" y="746"/>
      <point x="497" y="804"/>
      <point x="609" y="867" type="curve" smooth="yes"/>
      <point x="818" y="983"/>
      <point x="938" y="1142"/>
      <point x="938" y="1346" type="curve" smooth="yes"/>
      <point x="938" y="1618"/>
      <point x="744" y="1736"/>
      <point x="455" y="1736" type="curve" smooth="yes"/>
      <point x="364" y="1736"/>
      <point x="275" y="1713"/>
      <point x="247" y="1689" type="curve"/>
      <point x="211" y="1532" type="line"/>
      <point x="287" y="1556"/>
      <point x="341" y="1564"/>
      <point x="421" y="1564" type="curve" smooth="yes"/>
      <point x="574" y="1564"/>
      <point x="724" y="1485"/>
      <point x="724" y="1320" type="curve" smooth="yes"/>
      <point x="724" y="1198"/>
      <point x="664" y="1082"/>
      <point x="482" y="984" type="curve" smooth="yes"/>
      <point x="305" y="889"/>
      <point x="218" y="783"/>
      <point x="218" y="678" type="curve" smooth="yes"/>
      <point x="218" y="594"/>
      <point x="236" y="549"/>
    </contour>
    <contour>
      <point x="301" y="-16" type="curve" smooth="yes"/>
      <point x="401" y="-16"/>
      <point x="464" y="49"/>
      <point x="464" y="150" type="curve" smooth="yes"/>
      <point x="464" y="217"/>
      <point x="424" y="266"/>
      <point x="341" y="266" type="curve" smooth="yes"/>
      <point x="247" y="266"/>
      <point x="179" y="188"/>
      <point x="179" y="101" type="curve" smooth="yes"/>
      <point x="179" y="32"/>
      <point x="232" y="-16"/>
    </contour>
  </outline>
</glyph>
<glyph name="at" format="2">
  <advance width="1932"/>
  <unicode hex="0040"/>
  <note>
at
</note>
  <outline>
    <contour>
      <point x="883" y="-430" type="curve" smooth="yes"/>
      <point x="1049" y="-430"/>
      <point x="1209" y="-386"/>
      <point x="1299" y="-316" type="curve"/>
      <point x="1263" y="-210" type="line"/>
      <point x="1192" y="-244"/>
      <point x="1020" y="-281"/>
      <point x="900" y="-281" type="curve" smooth="yes"/>
      <point x="504" y="-281"/>
      <point x="278" y="-29"/>
      <point x="278" y="391" type="curve" smooth="yes"/>
      <point x="278" y="900"/>
      <point x="618" y="1370"/>
      <point x="1125" y="1370" type="curve" smooth="yes"/>
      <point x="1459" y="1370"/>
      <point x="1675" y="1229"/>
      <point x="1675" y="839" type="curve" smooth="yes"/>
      <point x="1675" y="593"/>
      <point x="1527" y="187"/>
      <point x="1338" y="187" type="curve" smooth="yes"/>
      <point x="1328" y="187"/>
      <point x="1324" y="213"/>
      <point x="1324" y="255" type="curve" smooth="yes"/>
      <point x="1324" y="432"/>
      <point x="1398" y="900"/>
      <point x="1435" y="1045" type="curve"/>
      <point x="1269" y="1017" type="line"/>
      <point x="1221" y="1051"/>
      <point x="1121" y="1069"/>
      <point x="1055" y="1069" type="curve" smooth="yes"/>
      <point x="725" y="1069"/>
      <point x="522" y="755"/>
      <point x="522" y="410" type="curve" smooth="yes"/>
      <point x="522" y="216"/>
      <point x="657" y="6"/>
      <point x="799" y="6" type="curve" smooth="yes"/>
      <point x="937" y="6"/>
      <point x="1065" y="146"/>
      <point x="1159" y="362" type="curve"/>
      <point x="1152" y="300"/>
      <point x="1147" y="244"/>
      <point x="1147" y="210" type="curve" smooth="yes"/>
      <point x="1147" y="93"/>
      <point x="1157" y="10"/>
      <point x="1239" y="10" type="curve" smooth="yes"/>
      <point x="1599" y="10"/>
      <point x="1842" y="457"/>
      <point x="1842" y="871" type="curve" smooth="yes"/>
      <point x="1842" y="1265"/>
      <point x="1579" y="1508"/>
      <point x="1165" y="1508" type="curve" smooth="yes"/>
      <point x="539" y="1508"/>
      <point x="115" y="1025"/>
      <point x="115" y="366" type="curve" smooth="yes"/>
      <point x="115" y="-113"/>
      <point x="411" y="-430"/>
    </contour>
    <contour>
      <point x="836" y="177" type="curve" smooth="yes"/>
      <point x="753" y="177"/>
      <point x="716" y="270"/>
      <point x="716" y="443" type="curve" smooth="yes"/>
      <point x="716" y="660"/>
      <point x="830" y="931"/>
      <point x="1041" y="931" type="curve" smooth="yes"/>
      <point x="1101" y="931"/>
      <point x="1179" y="907"/>
      <point x="1209" y="864" type="curve"/>
      <point x="1187" y="673"/>
      <point x="973" y="177"/>
    </contour>
  </outline>
</glyph>
<glyph name="A" format="2">
  <advance width="1248"/>
  <unicode hex="0041"/>
  <note>
A
</note>
  <anchor x="551" y="0" name="bottom"/>
  <anchor x="1167" y="0" name="ogonek"/>
  <anchor x="749" y="1496" name="top"/>
  <outline>
    <contour>
      <point x="-82" y="0" type="line"/>
      <point x="153" y="0" type="line"/>
      <point x="320" y="369" type="line"/>
      <point x="889" y="369" type="line"/>
      <point x="948" y="0" type="line"/>
      <point x="1167" y="0" type="line"/>
      <point x="897" y="1494" type="line"/>
      <point x="646" y="1494" type="line"/>
    </contour>
    <contour>
      <point x="393" y="531" type="line"/>
      <point x="697" y="1203" type="line"/>
      <point x="746" y="1315" type="line"/>
      <point x="757" y="1202" type="line"/>
      <point x="863" y="531" type="line"/>
    </contour>
  </outline>
</glyph>
<glyph name="B" format="2">
  <advance width="1228"/>
  <unicode hex="0042"/>
  <note>
B
</note>
  <anchor x="541" y="0" name="bottom"/>
  <anchor x="739" y="1496" name="top"/>
  <outline>
    <contour>
      <point x="458" y="-14" type="curve" smooth="yes"/>
      <point x="878" y="-14"/>
      <point x="1134" y="139"/>
      <point x="1129" y="476" type="curve" smooth="yes"/>
      <point x="1127" y="643"/>
      <point x="1011" y="757"/>
      <point x="843" y="784" type="curve"/>
      <point x="1029" y="842"/>
      <point x="1140" y="979"/>
      <point x="1140" y="1178" type="curve" smooth="yes"/>
      <point x="1140" y="1373"/>
      <point x="1017" y="1510"/>
      <point x="691" y="1510" type="curve" smooth="yes"/>
      <point x="637" y="1510"/>
      <point x="434" y="1494"/>
      <point x="391" y="1494" type="curve" smooth="yes"/>
      <point x="294" y="1494" type="line"/>
      <point x="102" y="0" type="line"/>
      <point x="202" y="0" type="line" smooth="yes"/>
      <point x="254" y="0"/>
      <point x="411" y="-14"/>
    </contour>
    <contour>
      <point x="501" y="141" type="curve" smooth="yes"/>
      <point x="454" y="141"/>
      <point x="375" y="148"/>
      <point x="339" y="157" type="curve"/>
      <point x="408" y="692" type="line"/>
      <point x="468" y="696"/>
      <point x="530" y="698"/>
      <point x="593" y="698" type="curve" smooth="yes"/>
      <point x="795" y="698"/>
      <point x="897" y="620"/>
      <point x="897" y="451" type="curve" smooth="yes"/>
      <point x="897" y="238"/>
      <point x="763" y="141"/>
    </contour>
    <contour>
      <point x="429" y="851" type="curve"/>
      <point x="493" y="1350" type="line"/>
      <point x="540" y="1356"/>
      <point x="606" y="1359"/>
      <point x="642" y="1358" type="curve" smooth="yes"/>
      <point x="837" y="1353"/>
      <point x="920" y="1294"/>
      <point x="920" y="1155" type="curve" smooth="yes"/>
      <point x="920" y="960"/>
      <point x="781" y="849"/>
      <point x="583" y="849" type="curve" smooth="yes"/>
      <point x="501" y="849"/>
      <point x="466" y="849"/>
    </contour>
  </outline>
</glyph>
<glyph name="C" format="2">
  <advance width="1122"/>
  <unicode hex="0043"/>
  <note>
C
</note>
  <anchor x="604" y="0" name="bottom"/>
  <anchor x="810" y="1496" name="top"/>
  <outline>
    <contour>
      <point x="599" y="-16" type="curve" smooth="yes"/>
      <point x="802" y="-16"/>
      <point x="955" y="40"/>
      <point x="1017" y="87" type="curve"/>
      <point x="985" y="262" type="line"/>
      <point x="929" y="218"/>
      <point x="766" y="159"/>
      <point x="642" y="159" type="curve" smooth="yes"/>
      <point x="418" y="159"/>
      <point x="323" y="372"/>
      <point x="323" y="644" type="curve" smooth="yes"/>
      <point x="323" y="855"/>
      <point x="382" y="1080"/>
      <point x="525" y="1221" type="curve" smooth="yes"/>
      <point x="596" y="1293"/>
      <point x="688" y="1327"/>
      <point x="799" y="1327" type="curve" smooth="yes"/>
      <point x="936" y="1327"/>
      <point x="988" y="1296"/>
      <point x="1058" y="1257" type="curve"/>
      <point x="1131" y="1440" type="line"/>
      <point x="1005" y="1490"/>
      <point x="912" y="1510"/>
      <point x="810" y="1510" type="curve" smooth="yes"/>
      <point x="545" y="1510"/>
      <point x="318" y="1353"/>
      <point x="194" y="1087" type="curve" smooth="yes"/>
      <point x="131" y="953"/>
      <point x="100" y="801"/>
      <point x="100" y="632" type="curve" smooth="yes"/>
      <point x="100" y="406"/>
      <point x="160" y="201"/>
      <point x="308" y="77" type="curve" smooth="yes"/>
      <point x="381" y="15"/>
      <point x="479" y="-16"/>
    </contour>
  </outline>
</glyph>
<glyph name="D" format="2">
  <advance width="1352"/>
  <unicode hex="0044"/>
  <note>
D
</note>
  <anchor x="602" y="0" name="bottom"/>
  <anchor x="702" y="749" name="center"/>
  <anchor x="800" y="1496" name="top"/>
  <outline>
    <contour>
      <point x="521" y="-16" type="curve" smooth="yes"/>
      <point x="987" y="-24"/>
      <point x="1287" y="381"/>
      <point x="1287" y="881" type="curve" smooth="yes"/>
      <point x="1287" y="1277"/>
      <point x="1113" y="1510"/>
      <point x="722" y="1510" type="curve" smooth="yes"/>
      <point x="647" y="1510"/>
      <point x="455" y="1494"/>
      <point x="400" y="1494" type="curve" smooth="yes"/>
      <point x="294" y="1494" type="line"/>
      <point x="102" y="0" type="line"/>
      <point x="207" y="0" type="line" smooth="yes"/>
      <point x="342" y="0"/>
      <point x="401" y="-13"/>
    </contour>
    <contour>
      <point x="559" y="148" type="curve" smooth="yes"/>
      <point x="484" y="146"/>
      <point x="398" y="156"/>
      <point x="343" y="176" type="curve"/>
      <point x="491" y="1331" type="line"/>
      <point x="530" y="1340"/>
      <point x="613" y="1350"/>
      <point x="662" y="1350" type="curve" smooth="yes"/>
      <point x="857" y="1350"/>
      <point x="966" y="1294"/>
      <point x="1021" y="1158" type="curve" smooth="yes"/>
      <point x="1048" y="1087"/>
      <point x="1061" y="994"/>
      <point x="1061" y="874" type="curve" smooth="yes"/>
      <point x="1061" y="630"/>
      <point x="989" y="397"/>
      <point x="838" y="258" type="curve" smooth="yes"/>
      <point x="763" y="188"/>
      <point x="669" y="151"/>
    </contour>
  </outline>
</glyph>
<glyph name="E" format="2">
  <advance width="1122"/>
  <unicode hex="0045"/>
  <note>
E
</note>
  <anchor x="576" y="0" name="bottom"/>
  <anchor x="938" y="0" name="ogonek"/>
  <anchor x="703" y="1494" name="top"/>
  <anchor x="164" y="1496" name="topleft"/>
  <outline>
    <contour>
      <point x="102" y="0" type="line"/>
      <point x="996" y="0" type="line"/>
      <point x="1014" y="180" type="line"/>
      <point x="340" y="166" type="line"/>
      <point x="408" y="686" type="line"/>
      <point x="838" y="671" type="line"/>
      <point x="854" y="850" type="line"/>
      <point x="429" y="844" type="line"/>
      <point x="490" y="1329" type="line"/>
      <point x="1055" y="1322" type="line"/>
      <point x="1066" y="1494" type="line"/>
      <point x="294" y="1494" type="line"/>
    </contour>
  </outline>
</glyph>
<glyph name="F" format="2">
  <advance width="1036"/>
  <unicode hex="0046"/>
  <note>
F
</note>
  <anchor x="444" y="0" name="bottom"/>
  <anchor x="658" y="1496" name="top"/>
  <outline>
    <contour>
      <point x="102" y="0" type="line"/>
      <point x="319" y="0" type="line"/>
      <point x="407" y="678" type="line"/>
      <point x="865" y="663" type="line"/>
      <point x="881" y="847" type="line"/>
      <point x="428" y="839" type="line"/>
      <point x="490" y="1329" type="line"/>
      <point x="1059" y="1322" type="line"/>
      <point x="1076" y="1494" type="line"/>
      <point x="294" y="1494" type="line"/>
    </contour>
  </outline>
</glyph>
<glyph name="G" format="2">
  <advance width="1322"/>
  <unicode hex="0047"/>
  <note>
G
</note>
  <anchor x="587" y="0" name="bottom"/>
  <anchor x="785" y="1496" name="top"/>
  <outline>
    <contour>
      <point x="605" y="-16" type="curve" smooth="yes"/>
      <point x="734" y="-16"/>
      <point x="856" y="14"/>
      <point x="986" y="54" type="curve" smooth="yes"/>
      <point x="1060" y="75"/>
      <point x="1095" y="85"/>
      <point x="1133" y="89" type="curve"/>
      <point x="1217" y="732" type="line"/>
      <point x="777" y="732" type="line"/>
      <point x="755" y="556" type="line"/>
      <point x="984" y="556" type="line"/>
      <point x="940" y="219" type="line"/>
      <point x="847" y="176"/>
      <point x="730" y="154"/>
      <point x="642" y="154" type="curve" smooth="yes"/>
      <point x="417" y="154"/>
      <point x="322" y="373"/>
      <point x="322" y="642" type="curve" smooth="yes"/>
      <point x="322" y="858"/>
      <point x="390" y="1086"/>
      <point x="542" y="1228" type="curve" smooth="yes"/>
      <point x="618" y="1299"/>
      <point x="712" y="1334"/>
      <point x="827" y="1334" type="curve" smooth="yes"/>
      <point x="971" y="1334"/>
      <point x="1112" y="1286"/>
      <point x="1169" y="1244" type="curve"/>
      <point x="1231" y="1441" type="line"/>
      <point x="1069" y="1493"/>
      <point x="983" y="1510"/>
      <point x="832" y="1510" type="curve" smooth="yes"/>
      <point x="557" y="1510"/>
      <point x="321" y="1351"/>
      <point x="193" y="1078" type="curve" smooth="yes"/>
      <point x="129" y="940"/>
      <point x="99" y="784"/>
      <point x="101" y="609" type="curve" smooth="yes"/>
      <point x="105" y="393"/>
      <point x="171" y="193"/>
      <point x="322" y="74" type="curve" smooth="yes"/>
      <point x="397" y="14"/>
      <point x="491" y="-16"/>
    </contour>
  </outline>
</glyph>
<glyph name="H" format="2">
  <advance width="1390"/>
  <unicode hex="0048"/>
  <note>
H
</note>
  <anchor x="623" y="0" name="bottom"/>
  <anchor x="819" y="1494" name="top"/>
  <outline>
    <contour>
      <point x="100" y="0" type="line"/>
      <point x="317" y="0" type="line"/>
      <point x="404" y="666" type="line"/>
      <point x="1014" y="666" type="line"/>
      <point x="928" y="0" type="line"/>
      <point x="1147" y="0" type="line"/>
      <point x="1340" y="1494" type="line"/>
      <point x="1120" y="1494" type="line"/>
      <point x="1035" y="827" type="line"/>
      <point x="424" y="827" type="line"/>
      <point x="511" y="1494" type="line"/>
      <point x="292" y="1494" type="line"/>
    </contour>
  </outline>
</glyph>
<glyph name="I" format="2">
  <advance width="586"/>
  <unicode hex="0049"/>
  <note>
I
</note>
  <anchor x="220" y="0" name="bottom"/>
  <anchor x="338" y="0" name="ogonek"/>
  <anchor x="424" y="1494" name="top"/>
  <anchor x="164" y="1496" name="topleft"/>
  <outline>
    <contour>
      <point x="119" y="0" type="line"/>
      <point x="338" y="0" type="line"/>
      <point x="531" y="1494" type="line"/>
      <point x="312" y="1494" type="line"/>
    </contour>
  </outline>
</glyph>
<glyph name="J" format="2">
  <advance width="587"/>
  <unicode hex="004A"/>
  <note>
J
</note>
  <anchor x="220" y="0" name="bottom"/>
  <anchor x="448" y="1496" name="top"/>
  <outline>
    <contour>
      <point x="-132" y="-315" type="line"/>
      <point x="105" y="-283"/>
      <point x="261" y="-174"/>
      <point x="336" y="74" type="curve" smooth="yes"/>
      <point x="350" y="119"/>
      <point x="379" y="276"/>
      <point x="413" y="548" type="curve" smooth="yes"/>
      <point x="528" y="1494" type="line"/>
      <point x="311" y="1494" type="line"/>
      <point x="223" y="818"/>
      <point x="210" y="475"/>
      <point x="123" y="84" type="curve" smooth="yes"/>
      <point x="101" y="-27"/>
      <point x="-57" y="-191"/>
      <point x="-167" y="-224" type="curve"/>
    </contour>
  </outline>
</glyph>
<glyph name="K" format="2">
  <advance width="1228"/>
  <unicode hex="004B"/>
  <anchor x="616" y="0" name="bottom"/>
  <anchor x="738" y="1496" name="top"/>
  <outline>
    <contour>
      <point x="100" y="0" type="line"/>
      <point x="308" y="0" type="line"/>
      <point x="370" y="468" type="line"/>
      <point x="564" y="676" type="line"/>
      <point x="746" y="326" type="line"/>
      <point x="790" y="236"/>
      <point x="902" y="22"/>
      <point x="918" y="0" type="curve"/>
      <point x="1180" y="0" type="line"/>
      <point x="1122" y="88"/>
      <point x="1026" y="254"/>
      <point x="950" y="392" type="curve" smooth="yes"/>
      <point x="788" y="684"/>
      <point x="782" y="708"/>
      <point x="710" y="830" type="curve"/>
      <point x="1302" y="1494" type="line"/>
      <point x="1048" y="1494" type="line"/>
      <point x="406" y="756" type="line"/>
      <point x="502" y="1494" type="line"/>
      <point x="292" y="1494" type="line"/>
    </contour>
  </outline>
</glyph>
<glyph name="L" format="2">
  <advance width="970"/>
  <unicode hex="004C"/>
  <note>
L
</note>
  <anchor x="512" y="0" name="bottom"/>
  <anchor x="511" y="749" name="center"/>
  <anchor x="408" y="1496" name="top"/>
  <anchor x="1054" y="1496" name="topright"/>
  <outline>
    <contour>
      <point x="102" y="0" type="line"/>
      <point x="863" y="0" type="line"/>
      <point x="888" y="185" type="line"/>
      <point x="343" y="180" type="line"/>
      <point x="513" y="1494" type="line"/>
      <point x="294" y="1494" type="line"/>
    </contour>
  </outline>
</glyph>
<glyph name="M" format="2">
  <advance width="1781"/>
  <unicode hex="004D"/>
  <note>
M
</note>
  <anchor x="818" y="0" name="bottom"/>
  <anchor x="1016" y="1496" name="top"/>
  <outline>
    <contour>
      <point x="727" y="-18" type="line"/>
      <point x="904" y="-2" type="line"/>
      <point x="1330" y="1054" type="line"/>
      <point x="1453" y="1365" type="line"/>
      <point x="1429" y="1015" type="line"/>
      <point x="1373" y="0" type="line"/>
      <point x="1594" y="0" type="line"/>
      <point x="1628" y="1494" type="line"/>
      <point x="1311" y="1494" type="line"/>
      <point x="905" y="459" type="line"/>
      <point x="857" y="286" type="line"/>
      <point x="844" y="459" type="line"/>
      <point x="701" y="1494" type="line"/>
      <point x="412" y="1494" type="line"/>
      <point x="34" y="0" type="line"/>
      <point x="253" y="0" type="line"/>
      <point x="487" y="1025" type="line"/>
      <point x="546" y="1365" type="line"/>
      <point x="577" y="1034" type="line"/>
    </contour>
  </outline>
</glyph>
<glyph name="N" format="2">
  <advance width="1384"/>
  <unicode hex="004E"/>
  <note>
N
</note>
  <anchor x="618" y="0" name="bottom"/>
  <anchor x="816" y="1496" name="top"/>
  <outline>
    <contour>
      <point x="102" y="0" type="line"/>
      <point x="306" y="0" type="line"/>
      <point x="428" y="958" type="line"/>
      <point x="450" y="1245" type="line"/>
      <point x="509" y="1012" type="line"/>
      <point x="936" y="0" type="line"/>
      <point x="1141" y="0" type="line"/>
      <point x="1333" y="1494" type="line"/>
      <point x="1125" y="1494" type="line"/>
      <point x="1009" y="534" type="line"/>
      <point x="992" y="289" type="line"/>
      <point x="927" y="500" type="line"/>
      <point x="512" y="1494" type="line"/>
      <point x="294" y="1494" type="line"/>
    </contour>
  </outline>
</glyph>
<glyph name="O" format="2">
  <advance width="1348"/>
  <unicode hex="004F"/>
  <note>
O
</note>
  <anchor x="610" y="0" name="bottom"/>
  <anchor x="710" y="748" name="center"/>
  <anchor x="725" y="0" name="ogonek"/>
  <anchor x="814" y="1496" name="top"/>
  <anchor x="172" y="1496" name="topleft"/>
  <anchor x="1440" y="1496" name="topright"/>
  <outline>
    <contour>
      <point x="596" y="-16" type="curve" smooth="yes"/>
      <point x="1028" y="-16"/>
      <point x="1292" y="400"/>
      <point x="1292" y="884" type="curve" smooth="yes"/>
      <point x="1292" y="1222"/>
      <point x="1134" y="1510"/>
      <point x="804" y="1510" type="curve" smooth="yes"/>
      <point x="376" y="1510"/>
      <point x="106" y="1090"/>
      <point x="106" y="610" type="curve" smooth="yes"/>
      <point x="106" y="266"/>
      <point x="270" y="-16"/>
    </contour>
    <contour>
      <point x="626" y="150" type="curve" smooth="yes"/>
      <point x="430" y="150"/>
      <point x="338" y="296"/>
      <point x="332" y="626" type="curve" smooth="yes"/>
      <point x="328" y="958"/>
      <point x="490" y="1340"/>
      <point x="772" y="1340" type="curve" smooth="yes"/>
      <point x="978" y="1340"/>
      <point x="1062" y="1182"/>
      <point x="1066" y="868" type="curve" smooth="yes"/>
      <point x="1070" y="530"/>
      <point x="912" y="150"/>
    </contour>
  </outline>
</glyph>
<glyph name="P" format="2">
  <advance width="1171"/>
  <unicode hex="0050"/>
  <note>
P
</note>
  <anchor x="512" y="0" name="bottom"/>
  <anchor x="710" y="1496" name="top"/>
  <outline>
    <contour>
      <point x="102" y="0" type="line"/>
      <point x="319" y="0" type="line"/>
      <point x="386" y="512" type="line"/>
      <point x="421" y="506"/>
      <point x="478" y="503"/>
      <point x="560" y="503" type="curve" smooth="yes"/>
      <point x="799" y="503"/>
      <point x="990" y="607"/>
      <point x="1091" y="792" type="curve" smooth="yes"/>
      <point x="1141" y="883"/>
      <point x="1167" y="990"/>
      <point x="1166" y="1111" type="curve" smooth="yes"/>
      <point x="1166" y="1379"/>
      <point x="1005" y="1510"/>
      <point x="708" y="1510" type="curve" smooth="yes"/>
      <point x="637" y="1510"/>
      <point x="468" y="1494"/>
      <point x="414" y="1494" type="curve" smooth="yes"/>
      <point x="294" y="1494" type="line"/>
    </contour>
    <contour>
      <point x="559" y="672" type="curve" smooth="yes"/>
      <point x="510" y="672"/>
      <point x="441" y="678"/>
      <point x="408" y="686" type="curve"/>
      <point x="491" y="1330" type="line"/>
      <point x="542" y="1342"/>
      <point x="622" y="1350"/>
      <point x="671" y="1350" type="curve" smooth="yes"/>
      <point x="861" y="1350"/>
      <point x="951" y="1268"/>
      <point x="947" y="1102" type="curve" smooth="yes"/>
      <point x="940" y="819"/>
      <point x="819" y="673"/>
    </contour>
  </outline>
</glyph>
<glyph name="Q" format="2">
  <advance width="1349"/>
  <unicode hex="0051"/>
  <note>
Q
</note>
  <outline>
    <contour>
      <point x="881" y="-361" type="curve" smooth="yes"/>
      <point x="997" y="-361"/>
      <point x="1147" y="-333"/>
      <point x="1195" y="-297" type="curve"/>
      <point x="1195" y="-139" type="line"/>
      <point x="1142" y="-157"/>
      <point x="1052" y="-167"/>
      <point x="988" y="-167" type="curve" smooth="yes"/>
      <point x="836" y="-167"/>
      <point x="701" y="-145"/>
      <point x="701" y="-18" type="curve" smooth="yes"/>
      <point x="701" y="-7"/>
      <point x="701" y="21"/>
      <point x="701" y="27" type="curve"/>
      <point x="557" y="25" type="line"/>
      <point x="550" y="-5"/>
      <point x="546" y="-60"/>
      <point x="546" y="-80" type="curve" smooth="yes"/>
      <point x="546" y="-262"/>
      <point x="689" y="-361"/>
    </contour>
    <component base="O"/>
  </outline>
</glyph>
<glyph name="R" format="2">
  <advance width="1252"/>
  <unicode hex="0052"/>
  <note>
R
</note>
  <anchor x="552" y="0" name="bottom"/>
  <anchor x="711" y="1494" name="top"/>
  <outline>
    <contour>
      <point x="100" y="0" type="line"/>
      <point x="318" y="0" type="line"/>
      <point x="398" y="625" type="line"/>
      <point x="590" y="624" type="line"/>
      <point x="677" y="616"/>
      <point x="740" y="450"/>
      <point x="786" y="298" type="curve" smooth="yes"/>
      <point x="835" y="156"/>
      <point x="875" y="49"/>
      <point x="905" y="0" type="curve"/>
      <point x="1152" y="0" type="line"/>
      <point x="1108" y="63"/>
      <point x="1036" y="240"/>
      <point x="972" y="400" type="curve" smooth="yes"/>
      <point x="942" y="492"/>
      <point x="884" y="609"/>
      <point x="835" y="656" type="curve"/>
      <point x="1056" y="725"/>
      <point x="1177" y="910"/>
      <point x="1177" y="1146" type="curve" smooth="yes"/>
      <point x="1177" y="1383"/>
      <point x="1015" y="1510"/>
      <point x="707" y="1510" type="curve" smooth="yes"/>
      <point x="645" y="1510"/>
      <point x="462" y="1494"/>
      <point x="408" y="1494" type="curve" smooth="yes"/>
      <point x="293" y="1494" type="line"/>
    </contour>
    <contour>
      <point x="634" y="796" type="curve" smooth="yes"/>
      <point x="525" y="796"/>
      <point x="454" y="796"/>
      <point x="420" y="798" type="curve"/>
      <point x="491" y="1332" type="line"/>
      <point x="528" y="1338"/>
      <point x="630" y="1347"/>
      <point x="683" y="1347" type="curve" smooth="yes"/>
      <point x="856" y="1347"/>
      <point x="946" y="1278"/>
      <point x="947" y="1146" type="curve" smooth="yes"/>
      <point x="953" y="941"/>
      <point x="847" y="796"/>
    </contour>
  </outline>
</glyph>
<glyph name="S" format="2">
  <advance width="1018"/>
  <unicode hex="0053"/>
  <note>
S
</note>
  <anchor x="437" y="0" name="bottom"/>
  <anchor x="642" y="1494" name="top"/>
  <outline>
    <contour>
      <point x="384" y="-16" type="curve" smooth="yes"/>
      <point x="680" y="-16"/>
      <point x="908" y="122"/>
      <point x="908" y="410" type="curve" smooth="yes"/>
      <point x="908" y="592"/>
      <point x="796" y="703"/>
      <point x="613" y="830" type="curve" smooth="yes"/>
      <point x="498" y="909"/>
      <point x="390" y="1044"/>
      <point x="392" y="1152" type="curve" smooth="yes"/>
      <point x="397" y="1290"/>
      <point x="510" y="1342"/>
      <point x="651" y="1342" type="curve" smooth="yes"/>
      <point x="741" y="1342"/>
      <point x="856" y="1313"/>
      <point x="910" y="1259" type="curve"/>
      <point x="979" y="1426" type="line"/>
      <point x="917" y="1472"/>
      <point x="802" y="1510"/>
      <point x="641" y="1510" type="curve" smooth="yes"/>
      <point x="378" y="1510"/>
      <point x="176" y="1369"/>
      <point x="176" y="1111" type="curve" smooth="yes"/>
      <point x="176" y="918"/>
      <point x="291" y="792"/>
      <point x="474" y="667" type="curve" smooth="yes"/>
      <point x="616" y="573"/>
      <point x="682" y="475"/>
      <point x="682" y="372" type="curve" smooth="yes"/>
      <point x="682" y="225"/>
      <point x="560" y="156"/>
      <point x="390" y="156" type="curve" smooth="yes"/>
      <point x="292" y="156"/>
      <point x="129" y="205"/>
      <point x="87" y="251" type="curve"/>
      <point x="23" y="75" type="line"/>
      <point x="76" y="30"/>
      <point x="262" y="-16"/>
    </contour>
  </outline>
</glyph>
<glyph name="T" format="2">
  <advance width="1101"/>
  <unicode hex="0054"/>
  <note>
T
</note>
  <anchor x="477" y="0" name="bottom"/>
  <anchor x="577" y="749" name="center"/>
  <anchor x="675" y="1496" name="top"/>
  <outline>
    <contour>
      <point x="362" y="0" type="line"/>
      <point x="581" y="0" type="line"/>
      <point x="752" y="1333" type="line"/>
      <point x="1152" y="1322" type="line"/>
      <point x="1174" y="1494" type="line"/>
      <point x="153" y="1494" type="line"/>
      <point x="127" y="1322" type="line"/>
      <point x="533" y="1333" type="line"/>
    </contour>
  </outline>
</glyph>
<glyph name="U" format="2">
  <advance width="1344"/>
  <unicode hex="0055"/>
  <note>
U
</note>
  <anchor x="599" y="0" name="bottom"/>
  <anchor x="754" y="0" name="ogonek"/>
  <anchor x="786" y="1496" name="top"/>
  <anchor x="1428" y="1496" name="topright"/>
  <outline>
    <contour>
      <point x="591" y="-16" type="curve" smooth="yes"/>
      <point x="826" y="-16"/>
      <point x="990" y="62"/>
      <point x="1091" y="245" type="curve" smooth="yes"/>
      <point x="1142" y="336"/>
      <point x="1176" y="457"/>
      <point x="1196" y="607" type="curve" smooth="yes"/>
      <point x="1310" y="1494" type="line"/>
      <point x="1096" y="1494" type="line"/>
      <point x="985" y="627" type="line" smooth="yes"/>
      <point x="942" y="313"/>
      <point x="838" y="160"/>
      <point x="623" y="160" type="curve" smooth="yes"/>
      <point x="452" y="160"/>
      <point x="361" y="250"/>
      <point x="361" y="437" type="curve" smooth="yes"/>
      <point x="361" y="485"/>
      <point x="365" y="545"/>
      <point x="373" y="616" type="curve" smooth="yes"/>
      <point x="486" y="1494" type="line"/>
      <point x="267" y="1494" type="line"/>
      <point x="151" y="581" type="line" smooth="yes"/>
      <point x="141" y="497"/>
      <point x="137" y="457"/>
      <point x="137" y="427" type="curve" smooth="yes"/>
      <point x="137" y="148"/>
      <point x="293" y="-16"/>
    </contour>
  </outline>
</glyph>
<glyph name="V" format="2">
  <advance width="1152"/>
  <unicode hex="0056"/>
  <note>
V
</note>
  <anchor x="503" y="0" name="bottom"/>
  <anchor x="701" y="1496" name="top"/>
  <outline>
    <contour>
      <point x="364" y="0" type="line"/>
      <point x="600" y="0" type="line"/>
      <point x="1274" y="1494" type="line"/>
      <point x="1042" y="1494" type="line"/>
      <point x="597" y="438" type="line"/>
      <point x="514" y="215" type="line"/>
      <point x="492" y="438" type="line"/>
      <point x="339" y="1494" type="line"/>
      <point x="122" y="1494" type="line"/>
    </contour>
  </outline>
</glyph>
<glyph name="W" format="2">
  <advance width="1737"/>
  <unicode hex="0057"/>
  <note>
W
</note>
  <anchor x="795" y="0" name="bottom"/>
  <anchor x="993" y="1496" name="top"/>
  <outline>
    <contour>
      <point x="338" y="-8" type="line"/>
      <point x="564" y="-8" type="line"/>
      <point x="866" y="782" type="line"/>
      <point x="921" y="950" type="line"/>
      <point x="934" y="782" type="line"/>
      <point x="1022" y="-8" type="line"/>
      <point x="1253" y="-8" type="line"/>
      <point x="1862" y="1494" type="line"/>
      <point x="1640" y="1494" type="line"/>
      <point x="1247" y="443" type="line"/>
      <point x="1177" y="232" type="line"/>
      <point x="1161" y="444" type="line"/>
      <point x="1058" y="1494" type="line"/>
      <point x="848" y="1494" type="line"/>
      <point x="872" y="1263" type="line"/>
      <point x="551" y="443" type="line"/>
      <point x="490" y="232" type="line"/>
      <point x="462" y="444" type="line"/>
      <point x="337" y="1494" type="line"/>
      <point x="119" y="1494" type="line"/>
    </contour>
  </outline>
</glyph>
<glyph name="X" format="2">
  <advance width="1144"/>
  <unicode hex="0058"/>
  <note>
X
</note>
  <anchor x="499" y="0" name="bottom"/>
  <anchor x="697" y="1496" name="top"/>
  <outline>
    <contour>
      <point x="-65" y="0" type="line"/>
      <point x="195" y="0" type="line"/>
      <point x="569" y="592" type="line"/>
      <point x="803" y="0" type="line"/>
      <point x="1051" y="0" type="line"/>
      <point x="713" y="733" type="line"/>
      <point x="1238" y="1494" type="line"/>
      <point x="994" y="1494" type="line"/>
      <point x="625" y="927" type="line"/>
      <point x="410" y="1494" type="line"/>
      <point x="170" y="1494" type="line"/>
      <point x="482" y="777" type="line"/>
    </contour>
  </outline>
</glyph>
<glyph name="Y" format="2">
  <advance width="1071"/>
  <unicode hex="0059"/>
  <note>
Y
</note>
  <anchor x="463" y="0" name="bottom"/>
  <anchor x="661" y="1496" name="top"/>
  <anchor x="164" y="1496" name="topleft"/>
  <outline>
    <contour>
      <point x="362" y="0" type="line"/>
      <point x="571" y="0" type="line"/>
      <point x="646" y="576" type="line"/>
      <point x="1227" y="1494" type="line"/>
      <point x="990" y="1494" type="line"/>
      <point x="608" y="845" type="line"/>
      <point x="569" y="762" type="line"/>
      <point x="538" y="845" type="line"/>
      <point x="313" y="1494" type="line"/>
      <point x="82" y="1494" type="line"/>
      <point x="437" y="576" type="line"/>
    </contour>
  </outline>
</glyph>
<glyph name="Z" format="2">
  <advance width="1130"/>
  <unicode hex="005A"/>
  <note>
Z
</note>
  <anchor x="492" y="0" name="bottom"/>
  <anchor x="592" y="749" name="center"/>
  <anchor x="713" y="1496" name="top"/>
  <outline>
    <contour>
      <point x="28" y="0" type="line"/>
      <point x="980" y="0" type="line"/>
      <point x="1009" y="186" type="line"/>
      <point x="296" y="174" type="line"/>
      <point x="412" y="304" type="line"/>
      <point x="1168" y="1410" type="line"/>
      <point x="1142" y="1494" type="line"/>
      <point x="253" y="1494" type="line"/>
      <point x="228" y="1312" type="line"/>
      <point x="886" y="1325" type="line"/>
      <point x="762" y="1183" type="line"/>
      <point x="1" y="86" type="line"/>
    </contour>
  </outline>
</glyph>
<glyph name="bracketleft" format="2">
  <advance width="735"/>
  <unicode hex="005B"/>
  <note>
bracketleft
</note>
  <outline>
    <contour>
      <point x="261" y="-197" type="curve" smooth="yes"/>
      <point x="331" y="-197"/>
      <point x="422" y="-183"/>
      <point x="538" y="-149" type="curve"/>
      <point x="550" y="-51" type="line"/>
      <point x="285" y="-51" type="line"/>
      <point x="501" y="1561" type="line"/>
      <point x="766" y="1561" type="line"/>
      <point x="780" y="1659" type="line"/>
      <point x="742" y="1672"/>
      <point x="579" y="1705"/>
      <point x="515" y="1705" type="curve" smooth="yes"/>
      <point x="361" y="1705"/>
      <point x="311" y="1636"/>
      <point x="287" y="1453" type="curve" smooth="yes"/>
      <point x="93" y="57" type="line" smooth="yes"/>
      <point x="89" y="22"/>
      <point x="86" y="-15"/>
      <point x="86" y="-51" type="curve" smooth="yes"/>
      <point x="86" y="-159"/>
      <point x="140" y="-197"/>
    </contour>
  </outline>
</glyph>
<glyph name="backslash" format="2">
  <advance width="834"/>
  <unicode hex="005C"/>
  <note>
backslash
</note>
  <outline>
    <contour>
      <point x="585" y="-354" type="line"/>
      <point x="770" y="-354" type="line"/>
      <point x="206" y="1560" type="line"/>
      <point x="23" y="1560" type="line"/>
    </contour>
  </outline>
</glyph>
<glyph name="asciicircum" format="2">
  <advance width="1332"/>
  <unicode hex="005E"/>
  <note>
asciicircum
</note>
  <outline>
    <contour>
      <point x="164" y="498" type="line"/>
      <point x="350" y="498" type="line"/>
      <point x="749" y="1278" type="line"/>
      <point x="940" y="498" type="line"/>
      <point x="1122" y="498" type="line"/>
      <point x="870" y="1495" type="line"/>
      <point x="665" y="1495" type="line"/>
    </contour>
  </outline>
</glyph>
<glyph name="underscore" format="2">
  <advance width="1304"/>
  <unicode hex="005F"/>
  <note>
underscore
</note>
  <outline>
    <contour>
      <point x="-108" y="-338" type="line"/>
      <point x="1238" y="-338" type="line"/>
      <point x="1256" y="-182" type="line"/>
      <point x="-88" y="-182" type="line"/>
    </contour>
  </outline>
</glyph>
<glyph name="grave" format="2">
  <advance width="529"/>
  <unicode hex="0060"/>
  <note>
grave
</note>
  <outline>
    <contour>
      <point x="410" y="1224" type="curve"/>
      <point x="499" y="1296" type="line"/>
      <point x="210" y="1696" type="line"/>
      <point x="52" y="1552" type="line"/>
      <point x="100" y="1467"/>
      <point x="317" y="1260"/>
    </contour>
  </outline>
</glyph>
<glyph name="a" format="2">
  <advance width="1138"/>
  <unicode hex="0061"/>
  <note>
a
</note>
  <anchor x="496" y="0" name="bottom"/>
  <anchor x="903" y="0" name="ogonek"/>
  <anchor x="698" y="1114" name="top"/>
  <outline>
    <contour>
      <point x="385" y="-16" type="curve" smooth="yes"/>
      <point x="527" y="-16"/>
      <point x="647" y="77"/>
      <point x="727" y="194" type="curve"/>
      <point x="711" y="0" type="line"/>
      <point x="903" y="0" type="line"/>
      <point x="1057" y="1128" type="line"/>
      <point x="934" y="1094" type="line"/>
      <point x="867" y="1113"/>
      <point x="777" y="1128"/>
      <point x="710" y="1128" type="curve" smooth="yes"/>
      <point x="327" y="1128"/>
      <point x="78" y="799"/>
      <point x="78" y="405" type="curve" smooth="yes"/>
      <point x="78" y="144"/>
      <point x="179" y="-16"/>
    </contour>
    <contour>
      <point x="433" y="146" type="curve" smooth="yes"/>
      <point x="327" y="146"/>
      <point x="301" y="289"/>
      <point x="301" y="429" type="curve" smooth="yes"/>
      <point x="301" y="597"/>
      <point x="356" y="779"/>
      <point x="471" y="894" type="curve" smooth="yes"/>
      <point x="528" y="951"/>
      <point x="599" y="980"/>
      <point x="682" y="980" type="curve" smooth="yes"/>
      <point x="731" y="980"/>
      <point x="777" y="973"/>
      <point x="821" y="958" type="curve"/>
      <point x="743" y="408" type="line"/>
      <point x="667" y="271"/>
      <point x="559" y="146"/>
    </contour>
  </outline>
</glyph>
<glyph name="c" format="2">
  <advance width="892"/>
  <unicode hex="0063"/>
  <note>
c
</note>
  <anchor x="457" y="0" name="bottom"/>
  <anchor x="647" y="1114" name="top"/>
  <outline>
    <contour>
      <point x="456" y="-16" type="curve" smooth="yes"/>
      <point x="580" y="-16"/>
      <point x="761" y="91"/>
      <point x="814" y="165" type="curve"/>
      <point x="748" y="279" type="line"/>
      <point x="658" y="190"/>
      <point x="579" y="147"/>
      <point x="495" y="147" type="curve" smooth="yes"/>
      <point x="364" y="147"/>
      <point x="302" y="233"/>
      <point x="302" y="451" type="curve" smooth="yes"/>
      <point x="302" y="645"/>
      <point x="375" y="811"/>
      <point x="478" y="900" type="curve" smooth="yes"/>
      <point x="529" y="943"/>
      <point x="582" y="965"/>
      <point x="635" y="965" type="curve" smooth="yes"/>
      <point x="707" y="965"/>
      <point x="772" y="939"/>
      <point x="820" y="899" type="curve"/>
      <point x="875" y="1091" type="line"/>
      <point x="824" y="1117"/>
      <point x="734" y="1128"/>
      <point x="655" y="1128" type="curve" smooth="yes"/>
      <point x="419" y="1128"/>
      <point x="239" y="974"/>
      <point x="150" y="757" type="curve" smooth="yes"/>
      <point x="105" y="648"/>
      <point x="82" y="538"/>
      <point x="82" y="425" type="curve" smooth="yes"/>
      <point x="82" y="151"/>
      <point x="212" y="-16"/>
    </contour>
  </outline>
</glyph>
<glyph name="d" format="2">
  <advance width="1152"/>
  <unicode hex="0064"/>
  <note>
d
</note>
  <anchor x="503" y="0" name="bottom"/>
  <anchor x="577" y="558" name="center"/>
  <anchor x="530" y="1114" name="top"/>
  <anchor x="1186" y="1114" name="topright"/>
  <outline>
    <contour>
      <point x="383" y="-16" type="curve" smooth="yes"/>
      <point x="527" y="-16"/>
      <point x="653" y="79"/>
      <point x="735" y="201" type="curve"/>
      <point x="719" y="0" type="line"/>
      <point x="913" y="0" type="line"/>
      <point x="1127" y="1599" type="line"/>
      <point x="913" y="1599" type="line"/>
      <point x="847" y="1116" type="line"/>
      <point x="799" y="1125"/>
      <point x="756" y="1128"/>
      <point x="717" y="1128" type="curve" smooth="yes"/>
      <point x="438" y="1128"/>
      <point x="242" y="965"/>
      <point x="148" y="743" type="curve" smooth="yes"/>
      <point x="101" y="631"/>
      <point x="77" y="518"/>
      <point x="77" y="405" type="curve" smooth="yes"/>
      <point x="77" y="144"/>
      <point x="177" y="-16"/>
    </contour>
    <contour>
      <point x="431" y="147" type="curve" smooth="yes"/>
      <point x="331" y="147"/>
      <point x="300" y="275"/>
      <point x="300" y="429" type="curve" smooth="yes"/>
      <point x="300" y="595"/>
      <point x="359" y="779"/>
      <point x="476" y="894" type="curve" smooth="yes"/>
      <point x="534" y="951"/>
      <point x="604" y="980"/>
      <point x="688" y="980" type="curve" smooth="yes"/>
      <point x="738" y="980"/>
      <point x="784" y="972"/>
      <point x="826" y="956" type="curve"/>
      <point x="751" y="413" type="line"/>
      <point x="682" y="293"/>
      <point x="550" y="147"/>
    </contour>
  </outline>
</glyph>
<glyph name="e" format="2">
  <advance width="1022"/>
  <unicode hex="0065"/>
  <note>
e
</note>
  <anchor x="491" y="0" name="bottom"/>
  <anchor x="568" y="0" name="ogonek"/>
  <anchor x="666" y="1114" name="top"/>
  <outline>
    <contour>
      <point x="473" y="-16" type="curve" smooth="yes"/>
      <point x="613" y="-16"/>
      <point x="826" y="101"/>
      <point x="887" y="187" type="curve"/>
      <point x="828" y="304" type="line"/>
      <point x="725" y="206"/>
      <point x="608" y="148"/>
      <point x="505" y="148" type="curve" smooth="yes"/>
      <point x="367" y="148"/>
      <point x="312" y="245"/>
      <point x="309" y="377" type="curve"/>
      <point x="309" y="388"/>
      <point x="309" y="398"/>
      <point x="309" y="409" type="curve"/>
      <point x="622" y="440"/>
      <point x="953" y="597"/>
      <point x="953" y="882" type="curve" smooth="yes"/>
      <point x="953" y="1009"/>
      <point x="856" y="1128"/>
      <point x="673" y="1128" type="curve" smooth="yes"/>
      <point x="447" y="1128"/>
      <point x="263" y="996"/>
      <point x="162" y="781" type="curve" smooth="yes"/>
      <point x="111" y="673"/>
      <point x="83" y="553"/>
      <point x="82" y="423" type="curve" smooth="yes"/>
      <point x="81" y="265"/>
      <point x="134" y="127"/>
      <point x="252" y="45" type="curve" smooth="yes"/>
      <point x="311" y="4"/>
      <point x="384" y="-16"/>
    </contour>
    <contour>
      <point x="313" y="550" type="curve"/>
      <point x="325" y="671"/>
      <point x="381" y="818"/>
      <point x="472" y="909" type="curve" smooth="yes"/>
      <point x="517" y="954"/>
      <point x="567" y="976"/>
      <point x="625" y="976" type="curve" smooth="yes"/>
      <point x="699" y="976"/>
      <point x="739" y="944"/>
      <point x="739" y="863" type="curve" smooth="yes"/>
      <point x="739" y="696"/>
      <point x="496" y="556"/>
    </contour>
  </outline>
</glyph>
<glyph name="f" format="2">
  <advance width="689"/>
  <unicode hex="0066"/>
  <note>
f
</note>
  <anchor x="271" y="0" name="bottom"/>
  <anchor x="602" y="1606" name="top"/>
  <outline>
    <contour>
      <point x="138" y="0" type="line"/>
      <point x="353" y="0" type="line"/>
      <point x="482" y="951" type="line"/>
      <point x="692" y="951" type="line"/>
      <point x="706" y="1114" type="line"/>
      <point x="504" y="1114" type="line"/>
      <point x="525" y="1261" type="line" smooth="yes"/>
      <point x="543" y="1391"/>
      <point x="608" y="1480"/>
      <point x="706" y="1480" type="curve"/>
      <point x="765" y="1482"/>
      <point x="800" y="1468"/>
      <point x="825" y="1446" type="curve"/>
      <point x="877" y="1615" type="line"/>
      <point x="836" y="1632"/>
      <point x="786" y="1640"/>
      <point x="727" y="1640" type="curve" smooth="yes"/>
      <point x="573" y="1640"/>
      <point x="457" y="1570"/>
      <point x="384" y="1449" type="curve" smooth="yes"/>
      <point x="344" y="1382"/>
      <point x="317" y="1301"/>
      <point x="303" y="1207" type="curve" smooth="yes"/>
      <point x="289" y="1114" type="line"/>
      <point x="164" y="1114" type="line"/>
      <point x="134" y="951" type="line"/>
      <point x="267" y="951" type="line"/>
    </contour>
  </outline>
</glyph>
<glyph name="g" format="2">
  <advance width="1148"/>
  <unicode hex="0067"/>
  <note>
g
</note>
  <anchor x="428" y="-546" name="bottom"/>
  <anchor x="716" y="1114" name="top"/>
  <outline>
    <contour>
      <point x="381" y="-495" type="curve" smooth="yes"/>
      <point x="535" y="-495"/>
      <point x="689" y="-447"/>
      <point x="798" y="-324" type="curve" smooth="yes"/>
      <point x="852" y="-262"/>
      <point x="887" y="-182"/>
      <point x="901" y="-80" type="curve" smooth="yes"/>
      <point x="1066" y="1128" type="line"/>
      <point x="942" y="1094" type="line"/>
      <point x="872" y="1113"/>
      <point x="785" y="1128"/>
      <point x="717" y="1128" type="curve" smooth="yes"/>
      <point x="438" y="1128"/>
      <point x="242" y="965"/>
      <point x="148" y="743" type="curve" smooth="yes"/>
      <point x="101" y="631"/>
      <point x="77" y="518"/>
      <point x="77" y="405" type="curve" smooth="yes"/>
      <point x="77" y="144"/>
      <point x="177" y="-16"/>
      <point x="383" y="-16" type="curve" smooth="yes"/>
      <point x="525" y="-16"/>
      <point x="649" y="78"/>
      <point x="732" y="195" type="curve"/>
      <point x="682" y="-94" type="line" smooth="yes"/>
      <point x="651" y="-257"/>
      <point x="578" y="-340"/>
      <point x="423" y="-340" type="curve" smooth="yes"/>
      <point x="329" y="-340"/>
      <point x="226" y="-313"/>
      <point x="167" y="-282" type="curve"/>
      <point x="119" y="-459" type="line"/>
      <point x="159" y="-475"/>
      <point x="294" y="-495"/>
    </contour>
    <contour>
      <point x="431" y="147" type="curve" smooth="yes"/>
      <point x="331" y="147"/>
      <point x="300" y="275"/>
      <point x="300" y="429" type="curve" smooth="yes"/>
      <point x="300" y="595"/>
      <point x="359" y="779"/>
      <point x="476" y="894" type="curve" smooth="yes"/>
      <point x="534" y="951"/>
      <point x="604" y="980"/>
      <point x="688" y="980" type="curve" smooth="yes"/>
      <point x="739" y="980"/>
      <point x="784" y="973"/>
      <point x="825" y="959" type="curve"/>
      <point x="748" y="407" type="line"/>
      <point x="670" y="271"/>
      <point x="548" y="147"/>
    </contour>
  </outline>
</glyph>
<glyph name="h" format="2">
  <advance width="1188"/>
  <unicode hex="0068"/>
  <note>
h
</note>
  <anchor x="521" y="0" name="bottom"/>
  <anchor x="651" y="984" name="center"/>
  <anchor x="392" y="1516" name="top"/>
  <outline>
    <contour>
      <point x="85" y="0" type="line"/>
      <point x="299" y="0" type="line"/>
      <point x="395" y="701" type="line"/>
      <point x="470" y="801"/>
      <point x="645" y="938"/>
      <point x="745" y="938" type="curve" smooth="yes"/>
      <point x="814" y="938"/>
      <point x="843" y="914"/>
      <point x="843" y="826" type="curve" smooth="yes"/>
      <point x="843" y="777"/>
      <point x="833" y="695"/>
      <point x="815" y="565" type="curve" smooth="yes"/>
      <point x="786" y="374"/>
      <point x="768" y="252"/>
      <point x="733" y="0" type="curve"/>
      <point x="951" y="0" type="line"/>
      <point x="1026" y="492"/>
      <point x="1064" y="777"/>
      <point x="1064" y="844" type="curve" smooth="yes"/>
      <point x="1064" y="1046"/>
      <point x="990" y="1128"/>
      <point x="839" y="1128" type="curve" smooth="yes"/>
      <point x="686" y="1128"/>
      <point x="526" y="1031"/>
      <point x="413" y="891" type="curve"/>
      <point x="449" y="1118" type="line"/>
      <point x="505" y="1599" type="line"/>
      <point x="290" y="1599" type="line"/>
    </contour>
  </outline>
</glyph>
<glyph name="i" format="2">
  <advance width="583"/>
  <unicode hex="0069"/>
  <note>
i
</note>
  <anchor x="219" y="0" name="bottom"/>
  <outline>
    <contour>
      <point x="115" y="0" type="line"/>
      <point x="331" y="0" type="line"/>
      <point x="482" y="1114" type="line"/>
      <point x="266" y="1114" type="line"/>
    </contour>
    <contour>
      <point x="418" y="1334" type="curve" smooth="yes"/>
      <point x="505" y="1334"/>
      <point x="579" y="1406"/>
      <point x="579" y="1490" type="curve" smooth="yes"/>
      <point x="579" y="1556"/>
      <point x="524" y="1606"/>
      <point x="450" y="1606" type="curve" smooth="yes"/>
      <point x="369" y="1606"/>
      <point x="298" y="1533"/>
      <point x="298" y="1453" type="curve" smooth="yes"/>
      <point x="298" y="1387"/>
      <point x="355" y="1334"/>
    </contour>
  </outline>
</glyph>
<glyph name="k" format="2">
  <advance width="1046"/>
  <unicode hex="006B"/>
  <note>
k
</note>
  <anchor x="449" y="0" name="bottom"/>
  <anchor x="709" y="1966" name="top"/>
  <outline>
    <contour>
      <point x="85" y="0" type="line"/>
      <point x="299" y="0" type="line"/>
      <point x="505" y="1599" type="line"/>
      <point x="290" y="1599" type="line"/>
    </contour>
    <contour>
      <point x="745" y="3" type="line"/>
      <point x="994" y="3" type="line"/>
      <point x="646" y="590" type="line"/>
      <point x="830" y="685"/>
      <point x="1033" y="912"/>
      <point x="1051" y="1114" type="curve"/>
      <point x="843" y="1114" type="line"/>
      <point x="777" y="924"/>
      <point x="602" y="723"/>
      <point x="415" y="619" type="curve"/>
    </contour>
  </outline>
</glyph>
<glyph name="l" format="2">
  <advance width="583"/>
  <unicode hex="006C"/>
  <note>
l
</note>
  <anchor x="230" y="0" name="bottom"/>
  <anchor x="349" y="984" name="center"/>
  <anchor x="431" y="1556" name="top"/>
  <anchor x="674" y="1422" name="topright"/>
  <outline>
    <contour>
      <point x="116" y="3" type="line"/>
      <point x="332" y="3" type="line"/>
      <point x="549" y="1599" type="line"/>
      <point x="333" y="1599" type="line"/>
    </contour>
  </outline>
</glyph>
<glyph name="m" format="2">
  <advance width="1759"/>
  <unicode hex="006D"/>
  <note>
m
</note>
  <anchor x="806" y="0" name="bottom"/>
  <anchor x="954" y="1114" name="top"/>
  <outline>
    <contour>
      <point x="81" y="3" type="line"/>
      <point x="297" y="3" type="line"/>
      <point x="393" y="704" type="line"/>
      <point x="464" y="809"/>
      <point x="624" y="938"/>
      <point x="715" y="938" type="curve" smooth="yes"/>
      <point x="785" y="938"/>
      <point x="814" y="913"/>
      <point x="814" y="826" type="curve" smooth="yes"/>
      <point x="814" y="791"/>
      <point x="802" y="688"/>
      <point x="787" y="567" type="curve" smooth="yes"/>
      <point x="757" y="347"/>
      <point x="715" y="63"/>
      <point x="707" y="3" type="curve"/>
      <point x="923" y="3" type="line"/>
      <point x="955" y="219"/>
      <point x="976" y="352"/>
      <point x="1002" y="547" type="curve" smooth="yes"/>
      <point x="1015" y="631"/>
      <point x="1024" y="700"/>
      <point x="1029" y="751" type="curve"/>
      <point x="1119" y="860"/>
      <point x="1237" y="938"/>
      <point x="1316" y="938" type="curve" smooth="yes"/>
      <point x="1388" y="938"/>
      <point x="1416" y="914"/>
      <point x="1416" y="826" type="curve" smooth="yes"/>
      <point x="1416" y="777"/>
      <point x="1406" y="695"/>
      <point x="1388" y="565" type="curve" smooth="yes"/>
      <point x="1348" y="284"/>
      <point x="1327" y="155"/>
      <point x="1307" y="3" type="curve"/>
      <point x="1524" y="3" type="line"/>
      <point x="1558" y="224"/>
      <point x="1578" y="360"/>
      <point x="1597" y="501" type="curve" smooth="yes"/>
      <point x="1623" y="683"/>
      <point x="1637" y="797"/>
      <point x="1637" y="844" type="curve" smooth="yes"/>
      <point x="1637" y="1046"/>
      <point x="1565" y="1128"/>
      <point x="1412" y="1128" type="curve" smooth="yes"/>
      <point x="1279" y="1128"/>
      <point x="1139" y="1046"/>
      <point x="1031" y="921" type="curve"/>
      <point x="1015" y="1067"/>
      <point x="940" y="1128"/>
      <point x="810" y="1128" type="curve" smooth="yes"/>
      <point x="671" y="1128"/>
      <point x="525" y="1039"/>
      <point x="419" y="907" type="curve"/>
      <point x="438" y="1114" type="line"/>
      <point x="231" y="1114" type="line"/>
    </contour>
  </outline>
</glyph>
<glyph name="n" format="2">
  <advance width="1186"/>
  <unicode hex="006E"/>
  <note>
n
</note>
  <anchor x="520" y="0" name="bottom"/>
  <anchor x="668" y="1114" name="top"/>
  <outline>
    <contour>
      <point x="79" y="0" type="line"/>
      <point x="295" y="0" type="line"/>
      <point x="391" y="697" type="line"/>
      <point x="468" y="801"/>
      <point x="642" y="938"/>
      <point x="743" y="938" type="curve" smooth="yes"/>
      <point x="814" y="938"/>
      <point x="841" y="914"/>
      <point x="841" y="826" type="curve" smooth="yes"/>
      <point x="841" y="770"/>
      <point x="829" y="667"/>
      <point x="805" y="501" type="curve" smooth="yes"/>
      <point x="764" y="230"/>
      <point x="740" y="60"/>
      <point x="732" y="0" type="curve"/>
      <point x="949" y="0" type="line"/>
      <point x="996" y="292"/>
      <point x="1014" y="418"/>
      <point x="1024" y="501" type="curve"/>
      <point x="1050" y="683"/>
      <point x="1064" y="797"/>
      <point x="1064" y="844" type="curve" smooth="yes"/>
      <point x="1064" y="1046"/>
      <point x="989" y="1128"/>
      <point x="838" y="1128" type="curve" smooth="yes"/>
      <point x="686" y="1128"/>
      <point x="532" y="1035"/>
      <point x="417" y="898" type="curve"/>
      <point x="437" y="1114" type="line"/>
      <point x="231" y="1114" type="line"/>
    </contour>
  </outline>
</glyph>
<glyph name="o" format="2">
  <advance width="1115"/>
  <unicode hex="006F"/>
  <note>
o
</note>
  <anchor x="484" y="0" name="bottom"/>
  <anchor x="558" y="558" name="center"/>
  <anchor x="575" y="0" name="ogonek"/>
  <anchor x="652" y="1114" name="top"/>
  <anchor x="1149" y="1114" name="topright"/>
  <outline>
    <contour>
      <point x="468" y="-16" type="curve" smooth="yes"/>
      <point x="687" y="-16"/>
      <point x="864" y="123"/>
      <point x="958" y="332" type="curve" smooth="yes"/>
      <point x="1004" y="435"/>
      <point x="1028" y="546"/>
      <point x="1028" y="665" type="curve" smooth="yes"/>
      <point x="1028" y="957"/>
      <point x="904" y="1128"/>
      <point x="653" y="1128" type="curve" smooth="yes"/>
      <point x="433" y="1128"/>
      <point x="251" y="990"/>
      <point x="156" y="783" type="curve" smooth="yes"/>
      <point x="107" y="677"/>
      <point x="83" y="567"/>
      <point x="83" y="450" type="curve" smooth="yes"/>
      <point x="83" y="162"/>
      <point x="212" y="-16"/>
    </contour>
    <contour>
      <point x="501" y="139" type="curve" smooth="yes"/>
      <point x="369" y="139"/>
      <point x="306" y="247"/>
      <point x="306" y="447" type="curve" smooth="yes"/>
      <point x="306" y="680"/>
      <point x="406" y="976"/>
      <point x="619" y="976" type="curve" smooth="yes"/>
      <point x="749" y="976"/>
      <point x="804" y="871"/>
      <point x="804" y="665" type="curve" smooth="yes"/>
      <point x="804" y="426"/>
      <point x="709" y="139"/>
    </contour>
  </outline>
</glyph>
<glyph name="p" format="2">
  <advance width="1160"/>
  <unicode hex="0070"/>
  <note>
p
</note>
  <anchor x="507" y="0" name="bottom"/>
  <anchor x="655" y="1114" name="top"/>
  <outline>
    <contour>
      <point x="13" y="-497" type="line"/>
      <point x="229" y="-497" type="line"/>
      <point x="295" y="-2" type="line"/>
      <point x="344" y="-11"/>
      <point x="388" y="-16"/>
      <point x="425" y="-16" type="curve" smooth="yes"/>
      <point x="704" y="-16"/>
      <point x="902" y="149"/>
      <point x="996" y="373" type="curve" smooth="yes"/>
      <point x="1043" y="484"/>
      <point x="1066" y="597"/>
      <point x="1066" y="709" type="curve" smooth="yes"/>
      <point x="1066" y="969"/>
      <point x="965" y="1128"/>
      <point x="760" y="1128" type="curve" smooth="yes"/>
      <point x="616" y="1128"/>
      <point x="492" y="1038"/>
      <point x="410" y="923" type="curve"/>
      <point x="423" y="1114" type="line"/>
      <point x="229" y="1114" type="line"/>
    </contour>
    <contour>
      <point x="454" y="135" type="curve" smooth="yes"/>
      <point x="404" y="135"/>
      <point x="359" y="142"/>
      <point x="317" y="155" type="curve"/>
      <point x="391" y="708" type="line"/>
      <point x="458" y="823"/>
      <point x="593" y="966"/>
      <point x="711" y="966" type="curve" smooth="yes"/>
      <point x="811" y="966"/>
      <point x="842" y="843"/>
      <point x="842" y="685" type="curve" smooth="yes"/>
      <point x="842" y="518"/>
      <point x="783" y="333"/>
      <point x="668" y="220" type="curve" smooth="yes"/>
      <point x="609" y="164"/>
      <point x="538" y="135"/>
    </contour>
  </outline>
</glyph>
<glyph name="q" format="2">
  <advance width="1151"/>
  <unicode hex="0071"/>
  <note>
q
</note>
  <anchor x="502" y="0" name="bottom"/>
  <anchor x="650" y="1114" name="top"/>
  <outline>
    <contour>
      <point x="632" y="-492" type="line"/>
      <point x="847" y="-492" type="line"/>
      <point x="1063" y="1133" type="line"/>
      <point x="932" y="1097" type="line"/>
      <point x="866" y="1115"/>
      <point x="782" y="1128"/>
      <point x="717" y="1128" type="curve" smooth="yes"/>
      <point x="332" y="1128"/>
      <point x="77" y="799"/>
      <point x="77" y="405" type="curve" smooth="yes"/>
      <point x="77" y="144"/>
      <point x="177" y="-16"/>
      <point x="383" y="-16" type="curve" smooth="yes"/>
      <point x="527" y="-16"/>
      <point x="650" y="79"/>
      <point x="733" y="197" type="curve"/>
      <point x="698" y="3" type="line"/>
    </contour>
    <contour>
      <point x="431" y="147" type="curve" smooth="yes"/>
      <point x="331" y="147"/>
      <point x="300" y="275"/>
      <point x="300" y="429" type="curve" smooth="yes"/>
      <point x="300" y="686"/>
      <point x="438" y="980"/>
      <point x="688" y="980" type="curve" smooth="yes"/>
      <point x="735" y="980"/>
      <point x="781" y="973"/>
      <point x="822" y="960" type="curve"/>
      <point x="747" y="405" type="line"/>
      <point x="666" y="269"/>
      <point x="547" y="147"/>
    </contour>
  </outline>
</glyph>
<glyph name="r" format="2">
  <advance width="787"/>
  <unicode hex="0072"/>
  <note>
r
</note>
  <anchor x="189" y="0" name="bottom"/>
  <anchor x="548" y="1114" name="top"/>
  <outline>
    <contour>
      <point x="79" y="0" type="line"/>
      <point x="295" y="0" type="line"/>
      <point x="386" y="663" type="line"/>
      <point x="447" y="783"/>
      <point x="551" y="904"/>
      <point x="672" y="904" type="curve" smooth="yes"/>
      <point x="716" y="904"/>
      <point x="750" y="899"/>
      <point x="766" y="889" type="curve"/>
      <point x="814" y="1116" type="line"/>
      <point x="805" y="1124"/>
      <point x="784" y="1128"/>
      <point x="752" y="1128" type="curve" smooth="yes"/>
      <point x="594" y="1128"/>
      <point x="473" y="1005"/>
      <point x="419" y="911" type="curve"/>
      <point x="439" y="1114" type="line"/>
      <point x="231" y="1114" type="line"/>
    </contour>
  </outline>
</glyph>
<glyph name="s" format="2">
  <advance width="869"/>
  <unicode hex="0073"/>
  <note>
s
</note>
  <anchor x="352" y="0" name="bottom"/>
  <anchor x="548" y="1114" name="top"/>
  <outline>
    <contour>
      <point x="338" y="-16" type="curve" smooth="yes"/>
      <point x="556" y="-16"/>
      <point x="735" y="79"/>
      <point x="735" y="294" type="curve" smooth="yes"/>
      <point x="735" y="422"/>
      <point x="638" y="536"/>
      <point x="523" y="623" type="curve" smooth="yes"/>
      <point x="421" y="702"/>
      <point x="369" y="753"/>
      <point x="369" y="842" type="curve" smooth="yes"/>
      <point x="369" y="924"/>
      <point x="444" y="970"/>
      <point x="549" y="970" type="curve" smooth="yes"/>
      <point x="638" y="970"/>
      <point x="734" y="932"/>
      <point x="764" y="894" type="curve"/>
      <point x="802" y="1091" type="line"/>
      <point x="761" y="1108"/>
      <point x="659" y="1128"/>
      <point x="550" y="1128" type="curve" smooth="yes"/>
      <point x="340" y="1128"/>
      <point x="165" y="1025"/>
      <point x="165" y="821" type="curve" smooth="yes"/>
      <point x="165" y="675"/>
      <point x="249" y="589"/>
      <point x="364" y="495" type="curve" smooth="yes"/>
      <point x="496" y="389"/>
      <point x="527" y="347"/>
      <point x="527" y="273" type="curve" smooth="yes"/>
      <point x="527" y="183"/>
      <point x="452" y="144"/>
      <point x="345" y="144" type="curve" smooth="yes"/>
      <point x="255" y="144"/>
      <point x="156" y="178"/>
      <point x="85" y="228" type="curve"/>
      <point x="44" y="43" type="line"/>
      <point x="83" y="13"/>
      <point x="215" y="-16"/>
    </contour>
  </outline>
</glyph>
<glyph name="t" format="2">
  <advance width="732"/>
  <unicode hex="0074"/>
  <note>
t
</note>
  <anchor x="284" y="0" name="bottom"/>
  <anchor x="358" y="558" name="center"/>
  <anchor x="424" y="1310" name="top"/>
  <anchor x="762" y="1114" name="topright"/>
  <outline>
    <contour>
      <point x="320" y="-16" type="curve" smooth="yes"/>
      <point x="428" y="-16"/>
      <point x="590" y="60"/>
      <point x="644" y="128" type="curve"/>
      <point x="616" y="244" type="line"/>
      <point x="568" y="204"/>
      <point x="458" y="150"/>
      <point x="414" y="150" type="curve" smooth="yes"/>
      <point x="370" y="150"/>
      <point x="358" y="190"/>
      <point x="358" y="248" type="curve" smooth="yes"/>
      <point x="358" y="280"/>
      <point x="378" y="442"/>
      <point x="446" y="950" type="curve"/>
      <point x="696" y="950" type="line"/>
      <point x="718" y="1114" type="line"/>
      <point x="468" y="1114" type="line"/>
      <point x="504" y="1386" type="line"/>
      <point x="328" y="1386" type="line"/>
      <point x="262" y="1114" type="line"/>
      <point x="158" y="1114" type="line"/>
      <point x="118" y="950" type="line"/>
      <point x="226" y="950" type="line"/>
      <point x="146" y="306" type="line" smooth="yes"/>
      <point x="138" y="240"/>
      <point x="134" y="190"/>
      <point x="134" y="164" type="curve" smooth="yes"/>
      <point x="134" y="38"/>
      <point x="208" y="-16"/>
    </contour>
  </outline>
</glyph>
<glyph name="u" format="2">
  <advance width="1165"/>
  <unicode hex="0075"/>
  <note>
u
</note>
  <anchor x="509" y="0" name="bottom"/>
  <anchor x="931" y="0" name="ogonek"/>
  <anchor x="643" y="1114" name="top"/>
  <anchor x="1199" y="1114" name="topright"/>
  <outline>
    <contour>
      <point x="362" y="-20" type="curve" smooth="yes"/>
      <point x="511" y="-20"/>
      <point x="649" y="73"/>
      <point x="751" y="208" type="curve"/>
      <point x="732" y="0" type="line"/>
      <point x="931" y="0" type="line"/>
      <point x="1080" y="1114" type="line"/>
      <point x="864" y="1114" type="line"/>
      <point x="769" y="405" type="line"/>
      <point x="679" y="268"/>
      <point x="545" y="161"/>
      <point x="446" y="161" type="curve" smooth="yes"/>
      <point x="361" y="161"/>
      <point x="324" y="192"/>
      <point x="324" y="284" type="curve" smooth="yes"/>
      <point x="324" y="328"/>
      <point x="331" y="400"/>
      <point x="343" y="500" type="curve" smooth="yes"/>
      <point x="359" y="626"/>
      <point x="418" y="1051"/>
      <point x="428" y="1114" type="curve"/>
      <point x="211" y="1114" type="line"/>
      <point x="184" y="925"/>
      <point x="149" y="676"/>
      <point x="125" y="502" type="curve" smooth="yes"/>
      <point x="111" y="387"/>
      <point x="103" y="302"/>
      <point x="103" y="261" type="curve" smooth="yes"/>
      <point x="103" y="63"/>
      <point x="188" y="-20"/>
    </contour>
  </outline>
</glyph>
<glyph name="v" format="2">
  <advance width="1005"/>
  <unicode hex="0076"/>
  <note>
v
</note>
  <anchor x="428" y="0" name="bottom"/>
  <anchor x="576" y="1114" name="top"/>
  <outline>
    <contour>
      <point x="261" y="-17" type="line"/>
      <point x="448" y="-5" type="line"/>
      <point x="775" y="335"/>
      <point x="963" y="624"/>
      <point x="988" y="978" type="curve" smooth="yes"/>
      <point x="990" y="1018"/>
      <point x="989" y="1091"/>
      <point x="986" y="1114" type="curve"/>
      <point x="784" y="1114" type="line"/>
      <point x="784" y="1048"/>
      <point x="765" y="901"/>
      <point x="747" y="828" type="curve" smooth="yes"/>
      <point x="703" y="631"/>
      <point x="622" y="457"/>
      <point x="496" y="281" type="curve" smooth="yes"/>
      <point x="409" y="167" type="line"/>
      <point x="397" y="369" type="line"/>
      <point x="332" y="1114" type="line"/>
      <point x="99" y="1114" type="line"/>
      <point x="205" y="349" type="line"/>
    </contour>
  </outline>
</glyph>
<glyph name="w" format="2">
  <advance width="1640"/>
  <unicode hex="0077"/>
  <note>
w
</note>
  <anchor x="746" y="0" name="bottom"/>
  <anchor x="894" y="1114" name="top"/>
  <outline>
    <contour>
      <point x="269" y="-11" type="line"/>
      <point x="455" y="-5" type="line"/>
      <point x="646" y="213"/>
      <point x="737" y="366"/>
      <point x="812" y="538" type="curve"/>
      <point x="838" y="349" type="line"/>
      <point x="895" y="-11" type="line"/>
      <point x="1079" y="-5" type="line"/>
      <point x="1428" y="395"/>
      <point x="1585" y="670"/>
      <point x="1602" y="994" type="curve" smooth="yes"/>
      <point x="1603" y="1025"/>
      <point x="1604" y="1076"/>
      <point x="1603" y="1114" type="curve"/>
      <point x="1394" y="1114" type="line"/>
      <point x="1395" y="1051"/>
      <point x="1392" y="938"/>
      <point x="1375" y="844" type="curve" smooth="yes"/>
      <point x="1337" y="640"/>
      <point x="1276" y="517"/>
      <point x="1159" y="329" type="curve" smooth="yes"/>
      <point x="1043" y="168" type="line"/>
      <point x="1027" y="369" type="line"/>
      <point x="964" y="1114" type="line"/>
      <point x="734" y="1114" type="line"/>
      <point x="767" y="880" type="line"/>
      <point x="727" y="685"/>
      <point x="651" y="519"/>
      <point x="535" y="334" type="curve" smooth="yes"/>
      <point x="417" y="168" type="line"/>
      <point x="406" y="369" type="line"/>
      <point x="338" y="1114" type="line"/>
      <point x="103" y="1114" type="line"/>
      <point x="212" y="349" type="line"/>
    </contour>
  </outline>
</glyph>
<glyph name="x" format="2">
  <advance width="946"/>
  <unicode hex="0078"/>
  <note>
x
</note>
  <anchor x="400" y="0" name="bottom"/>
  <anchor x="548" y="1114" name="top"/>
  <outline>
    <contour>
      <point x="-60" y="3" type="line"/>
      <point x="169" y="3" type="line"/>
      <point x="433" y="408" type="line"/>
      <point x="593" y="3" type="line"/>
      <point x="846" y="3" type="line"/>
      <point x="570" y="552" type="line"/>
      <point x="982" y="1114" type="line"/>
      <point x="751" y="1114" type="line"/>
      <point x="498" y="727" type="line"/>
      <point x="360" y="1114" type="line"/>
      <point x="104" y="1114" type="line"/>
      <point x="360" y="580" type="line"/>
    </contour>
  </outline>
</glyph>
<glyph name="y" format="2">
  <advance width="1040"/>
  <unicode hex="0079"/>
  <note>
y
</note>
  <anchor x="761" y="0" name="bottom"/>
  <anchor x="586" y="1114" name="top"/>
  <outline>
    <contour>
      <point x="-17" y="-493" type="curve" smooth="yes"/>
      <point x="149" y="-493"/>
      <point x="275" y="-421"/>
      <point x="360" y="-335" type="curve" smooth="yes"/>
      <point x="508" y="-185"/>
      <point x="667" y="47"/>
      <point x="765" y="240" type="curve" smooth="yes"/>
      <point x="903" y="507"/>
      <point x="979" y="755"/>
      <point x="992" y="981" type="curve" smooth="yes"/>
      <point x="994" y="1024"/>
      <point x="995" y="1083"/>
      <point x="993" y="1114" type="curve"/>
      <point x="785" y="1114" type="line"/>
      <point x="783" y="1081"/>
      <point x="781" y="1014"/>
      <point x="779" y="977" type="curve" smooth="yes"/>
      <point x="751" y="696"/>
      <point x="684" y="471"/>
      <point x="562" y="266" type="curve"/>
      <point x="534" y="208"/>
      <point x="501" y="143"/>
      <point x="460" y="68" type="curve"/>
      <point x="423" y="366" type="line"/>
      <point x="342" y="1114" type="line"/>
      <point x="109" y="1114" type="line"/>
      <point x="216" y="349" type="line"/>
      <point x="278" y="-17" type="line"/>
      <point x="411" y="-17" type="line"/>
      <point x="294" y="-188"/>
      <point x="191" y="-321"/>
      <point x="11" y="-321" type="curve" smooth="yes"/>
      <point x="-42" y="-321"/>
      <point x="-86" y="-302"/>
      <point x="-115" y="-286" type="curve"/>
      <point x="-174" y="-457" type="line"/>
      <point x="-131" y="-475"/>
      <point x="-61" y="-493"/>
    </contour>
  </outline>
</glyph>
<glyph name="z" format="2">
  <advance width="945"/>
  <unicode hex="007A"/>
  <note>
z
</note>
  <anchor x="399" y="0" name="bottom"/>
  <anchor x="473" y="558" name="center"/>
  <anchor x="561" y="1114" name="top"/>
  <outline>
    <contour>
      <point x="24" y="0" type="line"/>
      <point x="798" y="0" type="line"/>
      <point x="814" y="170" type="line"/>
      <point x="252" y="170" type="line"/>
      <point x="378" y="298" type="line"/>
      <point x="952" y="1063" type="line"/>
      <point x="908" y="1114" type="line"/>
      <point x="186" y="1114" type="line"/>
      <point x="162" y="943" type="line"/>
      <point x="672" y="943" type="line"/>
      <point x="532" y="799" type="line"/>
      <point x="-31" y="55" type="line"/>
    </contour>
  </outline>
</glyph>
<glyph name="braceleft" format="2">
  <advance width="798"/>
  <unicode hex="007B"/>
  <note>
braceleft
</note>
  <outline>
    <contour>
      <point x="350" y="-200" type="curve" smooth="yes"/>
      <point x="450" y="-200"/>
      <point x="520" y="-182"/>
      <point x="632" y="-148" type="curve"/>
      <point x="646" y="-50" type="line"/>
      <point x="376" y="-50" type="line"/>
      <point x="464" y="590" type="line" smooth="yes"/>
      <point x="474" y="662"/>
      <point x="412" y="714"/>
      <point x="288" y="770" type="curve"/>
      <point x="404" y="814"/>
      <point x="494" y="844"/>
      <point x="508" y="958" type="curve" smooth="yes"/>
      <point x="588" y="1560" type="line"/>
      <point x="868" y="1560" type="line"/>
      <point x="884" y="1660" type="line"/>
      <point x="844" y="1670"/>
      <point x="686" y="1706"/>
      <point x="614" y="1706" type="curve" smooth="yes"/>
      <point x="500" y="1706"/>
      <point x="414" y="1656"/>
      <point x="386" y="1460" type="curve" smooth="yes"/>
      <point x="320" y="964" type="line" smooth="yes"/>
      <point x="312" y="904"/>
      <point x="188" y="864"/>
      <point x="80" y="838" type="curve"/>
      <point x="60" y="704" type="line"/>
      <point x="148" y="680"/>
      <point x="274" y="632"/>
      <point x="266" y="572" type="curve" smooth="yes"/>
      <point x="180" y="-54" type="line" smooth="yes"/>
      <point x="166" y="-160"/>
      <point x="226" y="-200"/>
    </contour>
  </outline>
</glyph>
<glyph name="bar" format="2">
  <advance width="834"/>
  <unicode hex="007C"/>
  <note>
bar
</note>
  <outline>
    <contour>
      <point x="341" y="-182" type="line"/>
      <point x="522" y="-182" type="line"/>
      <point x="522" y="1738" type="line"/>
      <point x="341" y="1738" type="line"/>
    </contour>
  </outline>
</glyph>
<glyph name="braceright" format="2">
  <advance width="797"/>
  <unicode hex="007D"/>
  <note>
braceleft
</note>
  <outline>
    <contour>
      <point x="481" y="1706" type="curve" smooth="yes"/>
      <point x="380" y="1706"/>
      <point x="311" y="1690"/>
      <point x="199" y="1656" type="curve"/>
      <point x="185" y="1557" type="line"/>
      <point x="453" y="1557" type="line"/>
      <point x="365" y="917" type="line" smooth="yes"/>
      <point x="356" y="844"/>
      <point x="418" y="793"/>
      <point x="543" y="738" type="curve"/>
      <point x="426" y="692"/>
      <point x="337" y="664"/>
      <point x="321" y="549" type="curve" smooth="yes"/>
      <point x="241" y="-53" type="line"/>
      <point x="-37" y="-53" type="line"/>
      <point x="-53" y="-152" type="line"/>
      <point x="-15" y="-162"/>
      <point x="144" y="-199"/>
      <point x="215" y="-199" type="curve" smooth="yes"/>
      <point x="330" y="-199"/>
      <point x="417" y="-149"/>
      <point x="444" y="48" type="curve" smooth="yes"/>
      <point x="510" y="544" type="line" smooth="yes"/>
      <point x="518" y="603"/>
      <point x="642" y="643"/>
      <point x="749" y="670" type="curve"/>
      <point x="769" y="802" type="line"/>
      <point x="682" y="826"/>
      <point x="556" y="874"/>
      <point x="564" y="934" type="curve" smooth="yes"/>
      <point x="649" y="1561" type="line" smooth="yes"/>
      <point x="664" y="1667"/>
      <point x="604" y="1706"/>
    </contour>
  </outline>
</glyph>
<glyph name="asciitilde" format="2">
  <advance width="1110"/>
  <unicode hex="007E"/>
  <note>
asciitilde
</note>
  <outline>
    <contour>
      <point x="739" y="696" type="curve" smooth="yes"/>
      <point x="874" y="696"/>
      <point x="1016" y="790"/>
      <point x="1046" y="903" type="curve"/>
      <point x="967" y="986" type="line"/>
      <point x="917" y="911"/>
      <point x="851" y="873"/>
      <point x="773" y="873" type="curve" smooth="yes"/>
      <point x="727" y="873"/>
      <point x="693" y="897"/>
      <point x="629" y="947" type="curve" smooth="yes"/>
      <point x="553" y="1009"/>
      <point x="503" y="1041"/>
      <point x="429" y="1041" type="curve" smooth="yes"/>
      <point x="296" y="1041"/>
      <point x="158" y="939"/>
      <point x="120" y="834" type="curve"/>
      <point x="201" y="751" type="line"/>
      <point x="252" y="826"/>
      <point x="317" y="866"/>
      <point x="395" y="866" type="curve" smooth="yes"/>
      <point x="443" y="866"/>
      <point x="479" y="840"/>
      <point x="541" y="790" type="curve" smooth="yes"/>
      <point x="609" y="731"/>
      <point x="663" y="696"/>
    </contour>
  </outline>
</glyph>
<glyph name="exclamdown" format="2">
  <advance width="670"/>
  <unicode hex="00A1"/>
  <note>
exclamdown
</note>
  <outline>
    <contour>
      <point x="78" y="-424" type="line"/>
      <point x="320" y="-424" type="line"/>
      <point x="469" y="836" type="line"/>
      <point x="300" y="836" type="line"/>
    </contour>
    <contour>
      <point x="403" y="1054" type="curve" smooth="yes"/>
      <point x="497" y="1054"/>
      <point x="581" y="1132"/>
      <point x="581" y="1223" type="curve" smooth="yes"/>
      <point x="581" y="1290"/>
      <point x="529" y="1335"/>
      <point x="458" y="1335" type="curve" smooth="yes"/>
      <point x="362" y="1335"/>
      <point x="280" y="1268"/>
      <point x="280" y="1164" type="curve" smooth="yes"/>
      <point x="280" y="1100"/>
      <point x="319" y="1054"/>
    </contour>
  </outline>
</glyph>
<glyph name="cent" format="2">
  <advance width="1035"/>
  <unicode hex="00A2"/>
  <note>
cent
</note>
  <outline>
    <contour>
      <point x="342" y="-220" type="line"/>
      <point x="503" y="-220" type="line"/>
      <point x="541" y="-13" type="line"/>
      <point x="684" y="-1"/>
      <point x="800" y="85"/>
      <point x="860" y="165" type="curve"/>
      <point x="793" y="279" type="line"/>
      <point x="703" y="190"/>
      <point x="622" y="147"/>
      <point x="540" y="147" type="curve" smooth="yes"/>
      <point x="408" y="147"/>
      <point x="347" y="233"/>
      <point x="347" y="451" type="curve" smooth="yes"/>
      <point x="347" y="689"/>
      <point x="483" y="965"/>
      <point x="681" y="965" type="curve" smooth="yes"/>
      <point x="752" y="965"/>
      <point x="818" y="939"/>
      <point x="865" y="899" type="curve"/>
      <point x="921" y="1091" type="line"/>
      <point x="877" y="1112"/>
      <point x="813" y="1124"/>
      <point x="744" y="1127" type="curve"/>
      <point x="796" y="1337" type="line"/>
      <point x="635" y="1337" type="line"/>
      <point x="580" y="1115" type="line"/>
      <point x="298" y="1051"/>
      <point x="127" y="731"/>
      <point x="127" y="425" type="curve" smooth="yes"/>
      <point x="127" y="200"/>
      <point x="215" y="48"/>
      <point x="382" y="-1" type="curve"/>
    </contour>
  </outline>
</glyph>
<glyph name="sterling" format="2">
  <advance width="1378"/>
  <unicode hex="00A3"/>
  <note>
sterling
</note>
  <outline>
    <contour>
      <point x="86" y="-20" type="curve" smooth="yes"/>
      <point x="162" y="-20"/>
      <point x="252" y="28"/>
      <point x="306" y="98" type="curve"/>
      <point x="452" y="30"/>
      <point x="654" y="-20"/>
      <point x="834" y="-20" type="curve" smooth="yes"/>
      <point x="1152" y="-20"/>
      <point x="1286" y="128"/>
      <point x="1286" y="344" type="curve" smooth="yes"/>
      <point x="1286" y="446"/>
      <point x="1228" y="536"/>
      <point x="1144" y="598" type="curve"/>
      <point x="984" y="472" type="line"/>
      <point x="1030" y="448"/>
      <point x="1072" y="390"/>
      <point x="1072" y="336" type="curve" smooth="yes"/>
      <point x="1072" y="192"/>
      <point x="990" y="136"/>
      <point x="800" y="136" type="curve" smooth="yes"/>
      <point x="682" y="136"/>
      <point x="534" y="156"/>
      <point x="438" y="224" type="curve"/>
      <point x="502" y="316"/>
      <point x="528" y="384"/>
      <point x="556" y="512" type="curve" smooth="yes"/>
      <point x="566" y="556"/>
      <point x="578" y="626"/>
      <point x="594" y="722" type="curve"/>
      <point x="904" y="722" type="line"/>
      <point x="920" y="866" type="line"/>
      <point x="620" y="866" type="line"/>
      <point x="634" y="962" type="line" smooth="yes"/>
      <point x="668" y="1190"/>
      <point x="770" y="1358"/>
      <point x="932" y="1358" type="curve" smooth="yes"/>
      <point x="1022" y="1358"/>
      <point x="1114" y="1306"/>
      <point x="1130" y="1268" type="curve"/>
      <point x="1232" y="1422" type="line"/>
      <point x="1172" y="1486"/>
      <point x="1056" y="1508"/>
      <point x="954" y="1508" type="curve" smooth="yes"/>
      <point x="648" y="1508"/>
      <point x="462" y="1280"/>
      <point x="418" y="964" type="curve" smooth="yes"/>
      <point x="402" y="866" type="line"/>
      <point x="224" y="866" type="line"/>
      <point x="204" y="722" type="line"/>
      <point x="376" y="722" type="line"/>
      <point x="334" y="480" type="line" smooth="yes"/>
      <point x="320" y="386"/>
      <point x="286" y="284"/>
      <point x="234" y="242" type="curve"/>
      <point x="140" y="242"/>
      <point x="-2" y="178"/>
      <point x="-4" y="64" type="curve" smooth="yes"/>
      <point x="-6" y="10"/>
      <point x="26" y="-20"/>
    </contour>
  </outline>
</glyph>
<glyph name="currency" format="2">
  <advance width="1454"/>
  <unicode hex="00A4"/>
  <note>
currency
</note>
  <outline>
    <contour>
      <point x="314" y="122" type="line"/>
      <point x="506" y="314" type="line"/>
      <point x="574" y="270"/>
      <point x="656" y="246"/>
      <point x="740" y="246" type="curve" smooth="yes"/>
      <point x="828" y="246"/>
      <point x="908" y="272"/>
      <point x="980" y="320" type="curve"/>
      <point x="1172" y="128" type="line"/>
      <point x="1288" y="242" type="line"/>
      <point x="1096" y="434" type="line"/>
      <point x="1144" y="504"/>
      <point x="1170" y="586"/>
      <point x="1170" y="674" type="curve" smooth="yes"/>
      <point x="1170" y="758"/>
      <point x="1146" y="838"/>
      <point x="1102" y="906" type="curve"/>
      <point x="1290" y="1096" type="line"/>
      <point x="1176" y="1212" type="line"/>
      <point x="988" y="1024" type="line"/>
      <point x="914" y="1074"/>
      <point x="830" y="1102"/>
      <point x="740" y="1102" type="curve" smooth="yes"/>
      <point x="652" y="1102"/>
      <point x="574" y="1078"/>
      <point x="502" y="1032" type="curve"/>
      <point x="310" y="1224" type="line"/>
      <point x="196" y="1108" type="line"/>
      <point x="386" y="918" type="line"/>
      <point x="338" y="848"/>
      <point x="310" y="764"/>
      <point x="310" y="674" type="curve" smooth="yes"/>
      <point x="310" y="584"/>
      <point x="338" y="498"/>
      <point x="388" y="426" type="curve"/>
      <point x="198" y="238" type="line"/>
    </contour>
    <contour>
      <point x="740" y="390" type="curve" smooth="yes"/>
      <point x="592" y="390"/>
      <point x="468" y="516"/>
      <point x="468" y="674" type="curve" smooth="yes"/>
      <point x="468" y="824"/>
      <point x="584" y="958"/>
      <point x="740" y="958" type="curve" smooth="yes"/>
      <point x="886" y="958"/>
      <point x="1010" y="832"/>
      <point x="1010" y="674" type="curve" smooth="yes"/>
      <point x="1010" y="522"/>
      <point x="888" y="390"/>
    </contour>
  </outline>
</glyph>
<glyph name="yen" format="2">
  <advance width="1470"/>
  <unicode hex="00A5"/>
  <note>
yen
</note>
  <outline>
    <contour>
      <point x="563" y="0" type="line"/>
      <point x="766" y="0" type="line"/>
      <point x="808" y="360" type="line"/>
      <point x="1216" y="360" type="line"/>
      <point x="1232" y="494" type="line"/>
      <point x="826" y="494" type="line"/>
      <point x="851" y="706" type="line"/>
      <point x="1262" y="706" type="line"/>
      <point x="1278" y="842" type="line"/>
      <point x="938" y="842" type="line"/>
      <point x="1418" y="1494" type="line"/>
      <point x="1193" y="1494" type="line"/>
      <point x="849" y="958" type="line"/>
      <point x="786" y="843" type="line"/>
      <point x="749" y="951" type="line"/>
      <point x="514" y="1494" type="line"/>
      <point x="300" y="1494" type="line"/>
      <point x="601" y="842" type="line"/>
      <point x="267" y="842" type="line"/>
      <point x="250" y="706" type="line"/>
      <point x="647" y="706" type="line"/>
      <point x="623" y="494" type="line"/>
      <point x="223" y="494" type="line"/>
      <point x="205" y="360" type="line"/>
      <point x="605" y="360" type="line"/>
    </contour>
  </outline>
</glyph>
<glyph name="brokenbar" format="2">
  <advance width="834"/>
  <unicode hex="00A6"/>
  <note>
brokenbar
</note>
  <outline>
    <contour>
      <point x="341" y="163" type="line"/>
      <point x="522" y="163" type="line"/>
      <point x="522" y="1032" type="line"/>
      <point x="341" y="1032" type="line"/>
    </contour>
    <contour>
      <point x="341" y="525" type="line"/>
      <point x="522" y="525" type="line"/>
      <point x="522" y="1393" type="line"/>
      <point x="341" y="1393" type="line"/>
    </contour>
  </outline>
</glyph>
<glyph name="section" format="2">
  <advance width="1340"/>
  <unicode hex="00A7"/>
  <outline>
    <contour>
      <point x="310" y="1297" type="curve" smooth="yes"/>
      <point x="251" y="878"/>
      <point x="953" y="925"/>
      <point x="906" y="605" type="curve" smooth="yes"/>
      <point x="895" y="523"/>
      <point x="818" y="396"/>
      <point x="772" y="344" type="curve"/>
      <point x="871" y="287" type="line"/>
      <point x="1002" y="375"/>
      <point x="1107" y="501"/>
      <point x="1128" y="646" type="curve" smooth="yes"/>
      <point x="1186" y="1056"/>
      <point x="504" y="1058"/>
      <point x="539" y="1314" type="curve" smooth="yes"/>
      <point x="554" y="1416"/>
      <point x="668" y="1454"/>
      <point x="792" y="1455" type="curve" smooth="yes"/>
      <point x="964" y="1455"/>
      <point x="1056" y="1412"/>
      <point x="1096" y="1381" type="curve"/>
      <point x="1162" y="1562" type="line"/>
      <point x="1109" y="1596"/>
      <point x="997" y="1634"/>
      <point x="814" y="1634" type="curve" smooth="yes"/>
      <point x="612" y="1634"/>
      <point x="346" y="1556"/>
    </contour>
    <contour>
      <point x="1037" y="149" type="curve" smooth="yes"/>
      <point x="1096" y="563"/>
      <point x="390" y="485"/>
      <point x="432" y="789" type="curve" smooth="yes"/>
      <point x="444" y="871"/>
      <point x="519" y="984"/>
      <point x="566" y="1036" type="curve"/>
      <point x="460" y="1094" type="line"/>
      <point x="333" y="1012"/>
      <point x="230" y="888"/>
      <point x="210" y="750" type="curve" smooth="yes"/>
      <point x="153" y="346"/>
      <point x="843" y="368"/>
      <point x="810" y="138" type="curve" smooth="yes"/>
      <point x="795" y="29"/>
      <point x="669" y="-9"/>
      <point x="532" y="-9" type="curve" smooth="yes"/>
      <point x="358" y="-11"/>
      <point x="234" y="45"/>
      <point x="187" y="83" type="curve"/>
      <point x="120" y="-98" type="line"/>
      <point x="174" y="-140"/>
      <point x="328" y="-188"/>
      <point x="511" y="-188" type="curve" smooth="yes"/>
      <point x="725" y="-188"/>
      <point x="1002" y="-106"/>
    </contour>
  </outline>
</glyph>
<glyph name="dieresis" format="2">
  <advance width="791"/>
  <unicode hex="00A8"/>
  <note>
dieresis
</note>
  <outline>
    <contour>
      <point x="585" y="1348" type="curve" smooth="yes"/>
      <point x="669" y="1348"/>
      <point x="739" y="1422"/>
      <point x="739" y="1505" type="curve" smooth="yes"/>
      <point x="739" y="1570"/>
      <point x="688" y="1620"/>
      <point x="614" y="1620" type="curve" smooth="yes"/>
      <point x="535" y="1620"/>
      <point x="466" y="1547"/>
      <point x="466" y="1467" type="curve" smooth="yes"/>
      <point x="466" y="1403"/>
      <point x="521" y="1348"/>
    </contour>
    <contour>
      <point x="165" y="1348" type="curve" smooth="yes"/>
      <point x="251" y="1348"/>
      <point x="321" y="1422"/>
      <point x="321" y="1505" type="curve" smooth="yes"/>
      <point x="321" y="1570"/>
      <point x="268" y="1620"/>
      <point x="195" y="1620" type="curve" smooth="yes"/>
      <point x="116" y="1620"/>
      <point x="48" y="1547"/>
      <point x="48" y="1467" type="curve" smooth="yes"/>
      <point x="48" y="1403"/>
      <point x="104" y="1348"/>
    </contour>
  </outline>
</glyph>
<glyph name="copyright" format="2">
  <advance width="2068"/>
  <unicode hex="00A9"/>
  <outline>
    <contour>
      <point x="184" y="940" type="curve" smooth="yes"/>
      <point x="184" y="464"/>
      <point x="558" y="80"/>
      <point x="1034" y="80" type="curve" smooth="yes"/>
      <point x="1508" y="80"/>
      <point x="1884" y="464"/>
      <point x="1884" y="940" type="curve" smooth="yes"/>
      <point x="1884" y="1416"/>
      <point x="1508" y="1796"/>
      <point x="1034" y="1796" type="curve" smooth="yes"/>
      <point x="558" y="1796"/>
      <point x="184" y="1416"/>
    </contour>
    <contour>
      <point x="322" y="940" type="curve" smooth="yes"/>
      <point x="322" y="1344"/>
      <point x="624" y="1674"/>
      <point x="1034" y="1674" type="curve" smooth="yes"/>
      <point x="1442" y="1674"/>
      <point x="1744" y="1344"/>
      <point x="1744" y="940" type="curve" smooth="yes"/>
      <point x="1744" y="536"/>
      <point x="1442" y="206"/>
      <point x="1034" y="206" type="curve" smooth="yes"/>
      <point x="624" y="206"/>
      <point x="322" y="536"/>
    </contour>
    <contour>
      <point x="601" y="932" type="curve" smooth="yes"/>
      <point x="601" y="686"/>
      <point x="763" y="467"/>
      <point x="1032" y="467" type="curve" smooth="yes"/>
      <point x="1162" y="467"/>
      <point x="1283" y="509"/>
      <point x="1347" y="562" type="curve"/>
      <point x="1302" y="693" type="line"/>
      <point x="1253" y="667"/>
      <point x="1169" y="634"/>
      <point x="1067" y="634" type="curve" smooth="yes"/>
      <point x="913" y="634"/>
      <point x="803" y="739"/>
      <point x="803" y="955" type="curve" smooth="yes"/>
      <point x="804" y="1126"/>
      <point x="902" y="1250"/>
      <point x="1070" y="1250" type="curve" smooth="yes"/>
      <point x="1162" y="1250"/>
      <point x="1236" y="1224"/>
      <point x="1286" y="1191" type="curve"/>
      <point x="1322" y="1365" type="line"/>
      <point x="1286" y="1384"/>
      <point x="1206" y="1416"/>
      <point x="1085" y="1416" type="curve" smooth="yes"/>
      <point x="770" y="1416"/>
      <point x="600" y="1207"/>
    </contour>
  </outline>
</glyph>
<glyph name="ordfeminine" format="2">
  <advance width="852"/>
  <unicode hex="00AA"/>
  <note>
ordfeminine
</note>
  <outline>
    <contour>
      <point x="329" y="723" type="curve" smooth="yes"/>
      <point x="435" y="723"/>
      <point x="516" y="774"/>
      <point x="582" y="850" type="curve"/>
      <point x="564" y="723" type="line"/>
      <point x="736" y="723" type="line"/>
      <point x="881" y="1538" type="line"/>
      <point x="774" y="1511" type="line"/>
      <point x="727" y="1528"/>
      <point x="656" y="1540"/>
      <point x="599" y="1540" type="curve" smooth="yes"/>
      <point x="411" y="1540"/>
      <point x="248" y="1425"/>
      <point x="159" y="1261" type="curve" smooth="yes"/>
      <point x="114" y="1178"/>
      <point x="91" y="1094"/>
      <point x="91" y="1010" type="curve" smooth="yes"/>
      <point x="91" y="829"/>
      <point x="174" y="723"/>
    </contour>
    <contour>
      <point x="405" y="849" type="curve" smooth="yes"/>
      <point x="315" y="849"/>
      <point x="282" y="908"/>
      <point x="282" y="1026" type="curve" smooth="yes"/>
      <point x="282" y="1148"/>
      <point x="330" y="1286"/>
      <point x="420" y="1371" type="curve" smooth="yes"/>
      <point x="465" y="1413"/>
      <point x="518" y="1434"/>
      <point x="578" y="1434" type="curve" smooth="yes"/>
      <point x="608" y="1434"/>
      <point x="640" y="1422"/>
      <point x="665" y="1403" type="curve"/>
      <point x="588" y="964" type="line"/>
      <point x="518" y="891"/>
      <point x="454" y="849"/>
    </contour>
  </outline>
</glyph>
<glyph name="logicalnot" format="2">
  <advance width="1338"/>
  <unicode hex="00AC"/>
  <note>
logicalnot
</note>
  <outline>
    <contour>
      <point x="914" y="314" type="line"/>
      <point x="1100" y="314" type="line"/>
      <point x="1160" y="834" type="line"/>
      <point x="222" y="834" type="line"/>
      <point x="205" y="672" type="line"/>
      <point x="956" y="672" type="line"/>
    </contour>
  </outline>
</glyph>
<glyph name="registered" format="2">
  <advance width="2068"/>
  <unicode hex="00AE"/>
  <outline>
    <contour>
      <point x="183" y="940" type="curve" smooth="yes"/>
      <point x="183" y="464"/>
      <point x="558" y="80"/>
      <point x="1034" y="80" type="curve" smooth="yes"/>
      <point x="1508" y="80"/>
      <point x="1885" y="464"/>
      <point x="1885" y="940" type="curve" smooth="yes"/>
      <point x="1885" y="1415"/>
      <point x="1508" y="1796"/>
      <point x="1034" y="1796" type="curve" smooth="yes"/>
      <point x="558" y="1796"/>
      <point x="183" y="1415"/>
    </contour>
    <contour>
      <point x="321" y="940" type="curve" smooth="yes"/>
      <point x="321" y="1343"/>
      <point x="625" y="1673"/>
      <point x="1034" y="1673" type="curve" smooth="yes"/>
      <point x="1441" y="1673"/>
      <point x="1745" y="1343"/>
      <point x="1745" y="940" type="curve" smooth="yes"/>
      <point x="1745" y="536"/>
      <point x="1441" y="206"/>
      <point x="1034" y="206" type="curve" smooth="yes"/>
      <point x="625" y="206"/>
      <point x="321" y="536"/>
    </contour>
    <contour>
      <point x="711" y="469" type="line"/>
      <point x="896" y="469" type="line"/>
      <point x="896" y="823" type="line"/>
      <point x="936" y="823"/>
      <point x="985" y="823"/>
      <point x="1005" y="824" type="curve"/>
      <point x="1097" y="796"/>
      <point x="1134" y="675"/>
      <point x="1176" y="588" type="curve" smooth="yes"/>
      <point x="1198" y="542"/>
      <point x="1214" y="504"/>
      <point x="1243" y="469" type="curve"/>
      <point x="1456" y="469" type="line"/>
      <point x="1405" y="542"/>
      <point x="1387" y="569"/>
      <point x="1367" y="606" type="curve" smooth="yes"/>
      <point x="1321" y="692"/>
      <point x="1283" y="797"/>
      <point x="1205" y="848" type="curve"/>
      <point x="1345" y="891"/>
      <point x="1392" y="1005"/>
      <point x="1392" y="1146" type="curve" smooth="yes"/>
      <point x="1392" y="1295"/>
      <point x="1286" y="1415"/>
      <point x="1043" y="1415" type="curve" smooth="yes"/>
      <point x="941" y="1415"/>
      <point x="861" y="1409"/>
      <point x="791" y="1409" type="curve" smooth="yes"/>
      <point x="764" y="1409"/>
      <point x="738" y="1409"/>
      <point x="711" y="1409" type="curve"/>
    </contour>
    <contour>
      <point x="896" y="960" type="curve"/>
      <point x="896" y="1266" type="line"/>
      <point x="931" y="1276"/>
      <point x="959" y="1276"/>
      <point x="999" y="1277" type="curve" smooth="yes"/>
      <point x="1159" y="1280"/>
      <point x="1201" y="1219"/>
      <point x="1201" y="1122" type="curve" smooth="yes"/>
      <point x="1201" y="1003"/>
      <point x="1140" y="955"/>
      <point x="1018" y="955" type="curve" smooth="yes"/>
      <point x="985" y="955"/>
      <point x="924" y="955"/>
    </contour>
  </outline>
</glyph>
<glyph name="macron" format="2">
  <advance width="601"/>
  <unicode hex="00AF"/>
  <note>
macron
</note>
  <outline>
    <contour>
      <point x="65" y="1369" type="line"/>
      <point x="572" y="1369" type="line"/>
      <point x="579" y="1524" type="line"/>
      <point x="71" y="1524" type="line"/>
    </contour>
  </outline>
</glyph>
<glyph name="degree" format="2">
  <advance width="887"/>
  <unicode hex="00B0"/>
  <note>
degree
</note>
  <outline>
    <contour>
      <point x="468" y="926" type="curve" smooth="yes"/>
      <point x="596" y="926"/>
      <point x="704" y="987"/>
      <point x="763" y="1087" type="curve" smooth="yes"/>
      <point x="793" y="1137"/>
      <point x="807" y="1193"/>
      <point x="807" y="1254" type="curve" smooth="yes"/>
      <point x="807" y="1368"/>
      <point x="747" y="1470"/>
      <point x="650" y="1527" type="curve" smooth="yes"/>
      <point x="601" y="1554"/>
      <point x="546" y="1568"/>
      <point x="486" y="1568" type="curve" smooth="yes"/>
      <point x="359" y="1568"/>
      <point x="252" y="1507"/>
      <point x="194" y="1409" type="curve" smooth="yes"/>
      <point x="164" y="1358"/>
      <point x="150" y="1303"/>
      <point x="150" y="1242" type="curve" smooth="yes"/>
      <point x="150" y="1127"/>
      <point x="208" y="1025"/>
      <point x="306" y="969" type="curve" smooth="yes"/>
      <point x="354" y="940"/>
      <point x="408" y="926"/>
    </contour>
    <contour>
      <point x="474" y="1055" type="curve" smooth="yes"/>
      <point x="374" y="1055"/>
      <point x="298" y="1140"/>
      <point x="298" y="1244" type="curve" smooth="yes"/>
      <point x="298" y="1355"/>
      <point x="375" y="1439"/>
      <point x="482" y="1439" type="curve" smooth="yes"/>
      <point x="582" y="1439"/>
      <point x="660" y="1354"/>
      <point x="660" y="1251" type="curve" smooth="yes"/>
      <point x="660" y="1142"/>
      <point x="583" y="1055"/>
    </contour>
  </outline>
</glyph>
<glyph name="plusminus" format="2">
  <advance width="1333"/>
  <unicode hex="00B1"/>
  <note>
plusminus
</note>
  <outline>
    <contour>
      <point x="533" y="281" type="line"/>
      <point x="722" y="281" type="line"/>
      <point x="749" y="522" type="line"/>
      <point x="759" y="678" type="line"/>
      <point x="866" y="670" type="line"/>
      <point x="1119" y="670" type="line"/>
      <point x="1138" y="842" type="line"/>
      <point x="887" y="842" type="line"/>
      <point x="777" y="832" type="line"/>
      <point x="804" y="988" type="line"/>
      <point x="830" y="1220" type="line"/>
      <point x="642" y="1220" type="line"/>
      <point x="615" y="988" type="line"/>
      <point x="602" y="830" type="line"/>
      <point x="469" y="842" type="line"/>
      <point x="246" y="842" type="line"/>
      <point x="227" y="670" type="line"/>
      <point x="450" y="670" type="line"/>
      <point x="584" y="678" type="line"/>
      <point x="560" y="522" type="line"/>
    </contour>
    <contour>
      <point x="167" y="25" type="line"/>
      <point x="1021" y="25" type="line"/>
      <point x="1038" y="181" type="line"/>
      <point x="183" y="181" type="line"/>
    </contour>
  </outline>
</glyph>
<glyph name="acute" format="2">
  <advance width="547"/>
  <unicode hex="00B4"/>
  <note>
acute
</note>
  <outline>
    <contour>
      <point x="143" y="1224" type="line"/>
      <point x="237" y="1258"/>
      <point x="472" y="1465"/>
      <point x="518" y="1552" type="curve"/>
      <point x="361" y="1696" type="line"/>
      <point x="57" y="1296" type="line"/>
    </contour>
  </outline>
</glyph>
<glyph name="micro" format="2">
  <advance width="1332"/>
  <unicode hex="00B5"/>
  <note>
uni00B5
</note>
  <outline>
    <contour>
      <point x="107" y="-364" type="line"/>
      <point x="311" y="-364" type="line"/>
      <point x="374" y="55" type="line"/>
      <point x="397" y="12"/>
      <point x="478" y="-18"/>
      <point x="530" y="-19" type="curve"/>
      <point x="677" y="-19"/>
      <point x="739" y="31"/>
      <point x="827" y="120" type="curve"/>
      <point x="836" y="27"/>
      <point x="895" y="-18"/>
      <point x="983" y="-18" type="curve" smooth="yes"/>
      <point x="1102" y="-18"/>
      <point x="1197" y="65"/>
      <point x="1240" y="120" type="curve"/>
      <point x="1177" y="229" type="line"/>
      <point x="1132" y="180"/>
      <point x="1096" y="158"/>
      <point x="1062" y="158" type="curve" smooth="yes"/>
      <point x="1044" y="158"/>
      <point x="1028" y="181"/>
      <point x="1028" y="219" type="curve" smooth="yes"/>
      <point x="1028" y="267"/>
      <point x="1058" y="459"/>
      <point x="1141" y="1114" type="curve"/>
      <point x="928" y="1114" type="line"/>
      <point x="824" y="337" type="line"/>
      <point x="769" y="251"/>
      <point x="681" y="166"/>
      <point x="575" y="166" type="curve" smooth="yes"/>
      <point x="490" y="166"/>
      <point x="431" y="207"/>
      <point x="431" y="316" type="curve"/>
      <point x="455" y="507"/>
      <point x="506" y="886"/>
      <point x="512" y="958" type="curve" smooth="yes"/>
      <point x="518" y="1061"/>
      <point x="460" y="1127"/>
      <point x="370" y="1127" type="curve" smooth="yes"/>
      <point x="253" y="1127"/>
      <point x="142" y="1055"/>
      <point x="108" y="1004" type="curve"/>
      <point x="168" y="884" type="line"/>
      <point x="200" y="916"/>
      <point x="227" y="935"/>
      <point x="259" y="935" type="curve" smooth="yes"/>
      <point x="287" y="935"/>
      <point x="286" y="873"/>
      <point x="280" y="824" type="curve" smooth="yes"/>
    </contour>
  </outline>
</glyph>
<glyph name="paragraph" format="2">
  <advance width="1240"/>
  <unicode hex="00B6"/>
  <note>
paragraph
</note>
  <outline>
    <contour>
      <point x="363" y="0" type="line"/>
      <point x="564" y="0" type="line"/>
      <point x="736" y="1366" type="line"/>
      <point x="926" y="1366" type="line"/>
      <point x="756" y="0" type="line"/>
      <point x="955" y="0" type="line"/>
      <point x="1129" y="1368" type="line"/>
      <point x="1292" y="1402" type="line"/>
      <point x="1306" y="1516" type="line"/>
      <point x="1038" y="1516" type="line" smooth="yes"/>
      <point x="964" y="1516"/>
      <point x="788" y="1534"/>
      <point x="670" y="1534" type="curve" smooth="yes"/>
      <point x="288" y="1534"/>
      <point x="115" y="1368"/>
      <point x="115" y="1096" type="curve" smooth="yes"/>
      <point x="115" y="881"/>
      <point x="245" y="746"/>
      <point x="463" y="740" type="curve"/>
    </contour>
  </outline>
</glyph>
<glyph name="cedilla" format="2">
  <unicode hex="00B8"/>
  <note>
cedilla
</note>
  <outline>
    <contour>
      <point x="153" y="-455" type="curve" smooth="yes"/>
      <point x="320" y="-455"/>
      <point x="428" y="-368"/>
      <point x="428" y="-174" type="curve" smooth="yes"/>
      <point x="428" y="-88"/>
      <point x="407" y="-10"/>
      <point x="381" y="30" type="curve"/>
      <point x="323" y="34" type="line"/>
      <point x="257" y="30" type="line"/>
      <point x="261" y="3"/>
      <point x="261" y="-40"/>
      <point x="260" y="-117" type="curve" smooth="yes"/>
      <point x="257" y="-244"/>
      <point x="187" y="-284"/>
      <point x="118" y="-284" type="curve" smooth="yes"/>
      <point x="60" y="-284"/>
      <point x="37" y="-280"/>
      <point x="19" y="-270" type="curve"/>
      <point x="-7" y="-426" type="line"/>
      <point x="15" y="-441"/>
      <point x="98" y="-455"/>
    </contour>
  </outline>
</glyph>
<glyph name="ordmasculine" format="2">
  <advance width="809"/>
  <unicode hex="00BA"/>
  <note>
ordmasculine
</note>
  <outline>
    <contour>
      <point x="426" y="713" type="curve" smooth="yes"/>
      <point x="678" y="713"/>
      <point x="865" y="915"/>
      <point x="865" y="1189" type="curve" smooth="yes"/>
      <point x="865" y="1393"/>
      <point x="741" y="1552"/>
      <point x="534" y="1552" type="curve" smooth="yes"/>
      <point x="291" y="1552"/>
      <point x="96" y="1341"/>
      <point x="96" y="1074" type="curve" smooth="yes"/>
      <point x="96" y="872"/>
      <point x="235" y="713"/>
    </contour>
    <contour>
      <point x="434" y="842" type="curve" smooth="yes"/>
      <point x="343" y="842"/>
      <point x="293" y="957"/>
      <point x="293" y="1095" type="curve" smooth="yes"/>
      <point x="293" y="1264"/>
      <point x="390" y="1430"/>
      <point x="524" y="1430" type="curve" smooth="yes"/>
      <point x="619" y="1430"/>
      <point x="667" y="1332"/>
      <point x="667" y="1176" type="curve" smooth="yes"/>
      <point x="667" y="998"/>
      <point x="607" y="842"/>
    </contour>
  </outline>
</glyph>
<glyph name="guillemetright" format="2">
  <advance width="1787"/>
  <unicode hex="00BB"/>
  <note>
guillemotright
</note>
  <outline>
    <contour>
      <point x="937" y="144" type="line"/>
      <point x="1621" y="530" type="line"/>
      <point x="1645" y="692" type="line"/>
      <point x="1061" y="1064" type="line"/>
      <point x="985" y="946" type="line"/>
      <point x="1381" y="610" type="line"/>
      <point x="895" y="270" type="line"/>
    </contour>
    <contour>
      <point x="243" y="144" type="line"/>
      <point x="927" y="530" type="line"/>
      <point x="951" y="692" type="line"/>
      <point x="367" y="1064" type="line"/>
      <point x="291" y="946" type="line"/>
      <point x="689" y="610" type="line"/>
      <point x="203" y="270" type="line"/>
    </contour>
  </outline>
</glyph>
<glyph name="questiondown" format="2">
  <advance width="880"/>
  <unicode hex="00BF"/>
  <note>
questiondown
</note>
  <outline>
    <contour>
      <point x="696" y="806" type="curve"/>
      <point x="532" y="806" type="line"/>
      <point x="538" y="756"/>
      <point x="542" y="718"/>
      <point x="540" y="672" type="curve" smooth="yes"/>
      <point x="534" y="574"/>
      <point x="450" y="516"/>
      <point x="338" y="452" type="curve" smooth="yes"/>
      <point x="128" y="336"/>
      <point x="8" y="178"/>
      <point x="8" y="-26" type="curve" smooth="yes"/>
      <point x="8" y="-298"/>
      <point x="202" y="-416"/>
      <point x="492" y="-416" type="curve" smooth="yes"/>
      <point x="582" y="-416"/>
      <point x="670" y="-394"/>
      <point x="698" y="-370" type="curve"/>
      <point x="734" y="-212" type="line"/>
      <point x="658" y="-238"/>
      <point x="606" y="-244"/>
      <point x="524" y="-244" type="curve" smooth="yes"/>
      <point x="372" y="-244"/>
      <point x="222" y="-166"/>
      <point x="222" y="0" type="curve" smooth="yes"/>
      <point x="222" y="122"/>
      <point x="282" y="238"/>
      <point x="464" y="336" type="curve" smooth="yes"/>
      <point x="642" y="430"/>
      <point x="728" y="536"/>
      <point x="728" y="642" type="curve" smooth="yes"/>
      <point x="728" y="726"/>
      <point x="710" y="770"/>
    </contour>
    <contour>
      <point x="650" y="1336" type="curve" smooth="yes"/>
      <point x="550" y="1336"/>
      <point x="486" y="1270"/>
      <point x="486" y="1170" type="curve" smooth="yes"/>
      <point x="486" y="1102"/>
      <point x="526" y="1054"/>
      <point x="610" y="1054" type="curve" smooth="yes"/>
      <point x="704" y="1054"/>
      <point x="770" y="1132"/>
      <point x="770" y="1218" type="curve" smooth="yes"/>
      <point x="770" y="1288"/>
      <point x="718" y="1336"/>
    </contour>
  </outline>
</glyph>
<glyph name="AE" format="2">
  <advance width="1757"/>
  <unicode hex="00C6"/>
  <note>
AE
</note>
  <anchor x="806" y="0" name="bottom"/>
  <anchor x="1004" y="1496" name="top"/>
  <outline>
    <contour>
      <point x="-125" y="0" type="line"/>
      <point x="113" y="0" type="line"/>
      <point x="316" y="387" type="line"/>
      <point x="786" y="387" type="line"/>
      <point x="737" y="0" type="line"/>
      <point x="1631" y="0" type="line"/>
      <point x="1648" y="180" type="line"/>
      <point x="975" y="166" type="line"/>
      <point x="1044" y="686" type="line"/>
      <point x="1472" y="671" type="line"/>
      <point x="1488" y="850" type="line"/>
      <point x="1063" y="844" type="line"/>
      <point x="1126" y="1329" type="line"/>
      <point x="1690" y="1322" type="line"/>
      <point x="1702" y="1494" type="line"/>
      <point x="366" y="1494" type="line"/>
      <point x="350" y="1385" type="line"/>
      <point x="626" y="1363" type="line"/>
    </contour>
    <contour>
      <point x="404" y="551" type="line"/>
      <point x="821" y="1342" type="line"/>
      <point x="908" y="1335" type="line"/>
      <point x="808" y="551" type="line"/>
    </contour>
  </outline>
</glyph>
<glyph name="Eth" format="2">
  <advance width="1352"/>
  <unicode hex="00D0"/>
  <note>
Eth
</note>
  <outline>
    <contour>
      <point x="789" y="844" type="line"/>
      <point x="55" y="844" type="line"/>
      <point x="40" y="698" type="line"/>
      <point x="772" y="698" type="line"/>
    </contour>
    <component base="D"/>
  </outline>
</glyph>
<glyph name="multiply" format="2">
  <advance width="1343"/>
  <unicode hex="00D7"/>
  <note>
multiply
</note>
  <outline>
    <contour>
      <point x="332" y="302" type="line"/>
      <point x="666" y="628" type="line"/>
      <point x="960" y="284" type="line"/>
      <point x="1136" y="438" type="line"/>
      <point x="830" y="758" type="line"/>
      <point x="1216" y="1094" type="line"/>
      <point x="1078" y="1270" type="line"/>
      <point x="706" y="910" type="line"/>
      <point x="412" y="1264" type="line"/>
      <point x="236" y="1108" type="line"/>
      <point x="542" y="780" type="line"/>
      <point x="194" y="478" type="line"/>
    </contour>
  </outline>
</glyph>
<glyph name="Oslash" format="2">
  <advance width="1349"/>
  <unicode hex="00D8"/>
  <note>
Oslash
</note>
  <anchor x="798" y="1494" name="top"/>
  <outline>
    <contour>
      <point x="156" y="-128" type="line"/>
      <point x="297" y="86" type="line"/>
      <point x="377" y="18"/>
      <point x="473" y="-15"/>
      <point x="587" y="-15" type="curve" smooth="yes"/>
      <point x="861" y="-15"/>
      <point x="1080" y="155"/>
      <point x="1197" y="429" type="curve" smooth="yes"/>
      <point x="1255" y="567"/>
      <point x="1284" y="718"/>
      <point x="1284" y="884" type="curve" smooth="yes"/>
      <point x="1284" y="1078"/>
      <point x="1235" y="1248"/>
      <point x="1136" y="1361" type="curve"/>
      <point x="1280" y="1584" type="line"/>
      <point x="1194" y="1630" type="line"/>
      <point x="1063" y="1429" type="line"/>
      <point x="988" y="1483"/>
      <point x="899" y="1510"/>
      <point x="795" y="1510" type="curve" smooth="yes"/>
      <point x="531" y="1510"/>
      <point x="309" y="1341"/>
      <point x="189" y="1068" type="curve" smooth="yes"/>
      <point x="129" y="931"/>
      <point x="99" y="778"/>
      <point x="99" y="612" type="curve" smooth="yes"/>
      <point x="99" y="432"/>
      <point x="143" y="271"/>
      <point x="229" y="158" type="curve"/>
      <point x="69" y="-82" type="line"/>
    </contour>
    <contour>
      <point x="619" y="151" type="curve" smooth="yes"/>
      <point x="529" y="151"/>
      <point x="462" y="182"/>
      <point x="416" y="244" type="curve"/>
      <point x="1007" y="1182" type="line"/>
      <point x="1041" y="1103"/>
      <point x="1058" y="993"/>
      <point x="1058" y="854" type="curve" smooth="yes"/>
      <point x="1058" y="607"/>
      <point x="980" y="378"/>
      <point x="848" y="249" type="curve" smooth="yes"/>
      <point x="780" y="183"/>
      <point x="705" y="151"/>
    </contour>
    <contour>
      <point x="364" y="345" type="line"/>
      <point x="338" y="422"/>
      <point x="325" y="521"/>
      <point x="325" y="641" type="curve" smooth="yes"/>
      <point x="325" y="878"/>
      <point x="404" y="1109"/>
      <point x="537" y="1240" type="curve" smooth="yes"/>
      <point x="605" y="1306"/>
      <point x="679" y="1339"/>
      <point x="764" y="1339" type="curve" smooth="yes"/>
      <point x="841" y="1339"/>
      <point x="902" y="1316"/>
      <point x="948" y="1272" type="curve"/>
    </contour>
  </outline>
</glyph>
<glyph name="Thorn" format="2">
  <advance width="1197"/>
  <unicode hex="00DE"/>
  <note>
Thorn
</note>
  <outline>
    <contour>
      <point x="102" y="0" type="line"/>
      <point x="321" y="0" type="line"/>
      <point x="355" y="272" type="line"/>
      <point x="401" y="266"/>
      <point x="459" y="262"/>
      <point x="529" y="262" type="curve" smooth="yes"/>
      <point x="768" y="262"/>
      <point x="959" y="367"/>
      <point x="1061" y="551" type="curve" smooth="yes"/>
      <point x="1111" y="641"/>
      <point x="1136" y="747"/>
      <point x="1135" y="868" type="curve" smooth="yes"/>
      <point x="1135" y="1133"/>
      <point x="974" y="1265"/>
      <point x="677" y="1265" type="curve" smooth="yes"/>
      <point x="638" y="1265"/>
      <point x="523" y="1257"/>
      <point x="481" y="1253" type="curve"/>
      <point x="513" y="1494" type="line"/>
      <point x="294" y="1494" type="line"/>
    </contour>
    <contour>
      <point x="528" y="432" type="curve" smooth="yes"/>
      <point x="479" y="431"/>
      <point x="411" y="437"/>
      <point x="378" y="445" type="curve"/>
      <point x="461" y="1086" type="line"/>
      <point x="512" y="1098"/>
      <point x="592" y="1105"/>
      <point x="640" y="1105" type="curve" smooth="yes"/>
      <point x="830" y="1105"/>
      <point x="920" y="1023"/>
      <point x="916" y="859" type="curve" smooth="yes"/>
      <point x="910" y="579"/>
      <point x="789" y="432"/>
    </contour>
  </outline>
</glyph>
<glyph name="germandbls" format="2">
  <advance width="1176"/>
  <unicode hex="00DF"/>
  <note>
germandbls
</note>
  <outline>
    <contour>
      <point x="685" y="-16" type="curve" smooth="yes"/>
      <point x="912" y="-16"/>
      <point x="1087" y="94"/>
      <point x="1087" y="307" type="curve" smooth="yes"/>
      <point x="1087" y="433"/>
      <point x="1033" y="529"/>
      <point x="940" y="652" type="curve" smooth="yes"/>
      <point x="891" y="718"/>
      <point x="857" y="765"/>
      <point x="857" y="801" type="curve" smooth="yes"/>
      <point x="857" y="855"/>
      <point x="885" y="891"/>
      <point x="949" y="954" type="curve" smooth="yes"/>
      <point x="1033" y="1037"/>
      <point x="1100" y="1121"/>
      <point x="1100" y="1264" type="curve" smooth="yes"/>
      <point x="1100" y="1449"/>
      <point x="970" y="1551"/>
      <point x="775" y="1551" type="curve" smooth="yes"/>
      <point x="401" y="1551"/>
      <point x="241" y="1319"/>
      <point x="189" y="909" type="curve" smooth="yes"/>
      <point x="74" y="3" type="line"/>
      <point x="287" y="3" type="line"/>
      <point x="395" y="849" type="line" smooth="yes"/>
      <point x="430" y="1133"/>
      <point x="499" y="1401"/>
      <point x="722" y="1401" type="curve" smooth="yes"/>
      <point x="824" y="1401"/>
      <point x="882" y="1338"/>
      <point x="882" y="1254" type="curve" smooth="yes"/>
      <point x="882" y="1153"/>
      <point x="838" y="1077"/>
      <point x="752" y="989" type="curve" smooth="yes"/>
      <point x="680" y="913"/>
      <point x="650" y="862"/>
      <point x="650" y="776" type="curve" smooth="yes"/>
      <point x="650" y="702"/>
      <point x="708" y="612"/>
      <point x="778" y="514" type="curve" smooth="yes"/>
      <point x="828" y="444"/>
      <point x="868" y="366"/>
      <point x="868" y="302" type="curve" smooth="yes"/>
      <point x="868" y="184"/>
      <point x="800" y="146"/>
      <point x="658" y="146" type="curve" smooth="yes"/>
      <point x="583" y="146"/>
      <point x="500" y="188"/>
      <point x="462" y="224" type="curve"/>
      <point x="437" y="30" type="line"/>
      <point x="483" y="7"/>
      <point x="596" y="-16"/>
    </contour>
  </outline>
</glyph>
<glyph name="ae" format="2">
  <advance width="1616"/>
  <unicode hex="00E6"/>
  <note>
ae
</note>
  <anchor x="735" y="0" name="bottom"/>
  <anchor x="883" y="1114" name="top"/>
  <outline>
    <contour>
      <point x="366" y="-16" type="curve" smooth="yes"/>
      <point x="509" y="-16"/>
      <point x="619" y="101"/>
      <point x="697" y="257" type="curve"/>
      <point x="745" y="93"/>
      <point x="868" y="-16"/>
      <point x="1066" y="-16" type="curve" smooth="yes"/>
      <point x="1206" y="-16"/>
      <point x="1420" y="102"/>
      <point x="1481" y="187" type="curve"/>
      <point x="1421" y="304" type="line"/>
      <point x="1320" y="206"/>
      <point x="1201" y="148"/>
      <point x="1098" y="148" type="curve" smooth="yes"/>
      <point x="961" y="148"/>
      <point x="890" y="250"/>
      <point x="904" y="409" type="curve"/>
      <point x="1217" y="440"/>
      <point x="1550" y="597"/>
      <point x="1550" y="882" type="curve" smooth="yes"/>
      <point x="1550" y="1009"/>
      <point x="1458" y="1128"/>
      <point x="1266" y="1128" type="curve" smooth="yes"/>
      <point x="1167" y="1128"/>
      <point x="1076" y="1104"/>
      <point x="994" y="1055" type="curve"/>
      <point x="891" y="1117"/>
      <point x="819" y="1128"/>
      <point x="718" y="1128" type="curve" smooth="yes"/>
      <point x="332" y="1128"/>
      <point x="78" y="801"/>
      <point x="78" y="405" type="curve" smooth="yes"/>
      <point x="78" y="130"/>
      <point x="179" y="-16"/>
    </contour>
    <contour>
      <point x="423" y="150" type="curve" smooth="yes"/>
      <point x="320" y="150"/>
      <point x="301" y="282"/>
      <point x="301" y="429" type="curve" smooth="yes"/>
      <point x="301" y="689"/>
      <point x="433" y="980"/>
      <point x="689" y="980" type="curve" smooth="yes"/>
      <point x="744" y="980"/>
      <point x="799" y="966"/>
      <point x="854" y="936" type="curve"/>
      <point x="742" y="809"/>
      <point x="682" y="635"/>
      <point x="676" y="420" type="curve"/>
      <point x="594" y="250"/>
      <point x="507" y="150"/>
    </contour>
    <contour>
      <point x="907" y="550" type="curve"/>
      <point x="919" y="671"/>
      <point x="975" y="818"/>
      <point x="1066" y="909" type="curve" smooth="yes"/>
      <point x="1110" y="954"/>
      <point x="1161" y="976"/>
      <point x="1219" y="976" type="curve" smooth="yes"/>
      <point x="1293" y="976"/>
      <point x="1335" y="944"/>
      <point x="1335" y="863" type="curve" smooth="yes"/>
      <point x="1335" y="696"/>
      <point x="1100" y="563"/>
    </contour>
  </outline>
</glyph>
<glyph name="eth" format="2">
  <advance width="1159"/>
  <unicode hex="00F0"/>
  <note>
eth
</note>
  <outline>
    <contour>
      <point x="487" y="-16" type="curve" smooth="yes"/>
      <point x="733" y="-16"/>
      <point x="914" y="147"/>
      <point x="1004" y="408" type="curve" smooth="yes"/>
      <point x="1049" y="536"/>
      <point x="1071" y="680"/>
      <point x="1071" y="838" type="curve" smooth="yes"/>
      <point x="1071" y="1126"/>
      <point x="980" y="1367"/>
      <point x="753" y="1564" type="curve"/>
      <point x="734" y="1471" type="line"/>
      <point x="924" y="1683" type="line"/>
      <point x="825" y="1775" type="line"/>
      <point x="646" y="1569" type="line"/>
      <point x="731" y="1584" type="line"/>
      <point x="633" y="1658"/>
      <point x="478" y="1720"/>
      <point x="390" y="1745" type="curve"/>
      <point x="345" y="1619" type="line"/>
      <point x="424" y="1600"/>
      <point x="548" y="1545"/>
      <point x="633" y="1461" type="curve"/>
      <point x="627" y="1541" type="line"/>
      <point x="431" y="1338" type="line"/>
      <point x="538" y="1248" type="line"/>
      <point x="723" y="1457" type="line"/>
      <point x="644" y="1451" type="line"/>
      <point x="786" y="1330"/>
      <point x="842" y="1213"/>
      <point x="866" y="1029" type="curve"/>
      <point x="822" y="1095"/>
      <point x="728" y="1129"/>
      <point x="628" y="1129" type="curve" smooth="yes"/>
      <point x="294" y="1129"/>
      <point x="83" y="801"/>
      <point x="83" y="424" type="curve" smooth="yes"/>
      <point x="83" y="184"/>
      <point x="237" y="-16"/>
    </contour>
    <contour>
      <point x="515" y="129" type="curve" smooth="yes"/>
      <point x="388" y="129"/>
      <point x="315" y="256"/>
      <point x="315" y="421" type="curve" smooth="yes"/>
      <point x="315" y="604"/>
      <point x="361" y="790"/>
      <point x="454" y="902" type="curve" smooth="yes"/>
      <point x="501" y="956"/>
      <point x="557" y="984"/>
      <point x="626" y="984" type="curve" smooth="yes"/>
      <point x="760" y="984"/>
      <point x="854" y="864"/>
      <point x="854" y="775" type="curve" smooth="yes"/>
      <point x="854" y="539"/>
      <point x="728" y="129"/>
    </contour>
  </outline>
</glyph>
<glyph name="divide" format="2">
  <advance width="1316"/>
  <unicode hex="00F7"/>
  <note>
divide
</note>
  <outline>
    <contour>
      <point x="233" y="674" type="line"/>
      <point x="1096" y="674" type="line"/>
      <point x="1116" y="844" type="line"/>
      <point x="253" y="844" type="line"/>
    </contour>
    <component base="period" xOffset="426" yOffset="238"/>
    <component base="period" xOffset="516" yOffset="1028"/>
  </outline>
</glyph>
<glyph name="oslash" format="2">
  <advance width="1115"/>
  <unicode hex="00F8"/>
  <note>
oslash
</note>
  <outline>
    <contour>
      <point x="196" y="-124" type="line"/>
      <point x="322" y="90" type="line"/>
      <point x="366" y="132" type="line"/>
      <point x="820" y="946" type="line"/>
      <point x="864" y="998" type="line"/>
      <point x="1006" y="1220" type="line"/>
      <point x="938" y="1258" type="line"/>
      <point x="796" y="1034" type="line"/>
      <point x="758" y="992" type="line"/>
      <point x="322" y="200" type="line"/>
      <point x="274" y="156" type="line"/>
      <point x="128" y="-86" type="line"/>
    </contour>
    <component base="o"/>
  </outline>
</glyph>
<glyph name="thorn" format="2">
  <advance width="1156"/>
  <unicode hex="00FE"/>
  <note>
thorn
</note>
  <outline>
    <contour>
      <point x="11" y="-500" type="line"/>
      <point x="223" y="-500" type="line"/>
      <point x="275" y="-133" type="line"/>
      <point x="293" y="-1" type="line"/>
      <point x="344" y="-11"/>
      <point x="388" y="-16"/>
      <point x="427" y="-16" type="curve" smooth="yes"/>
      <point x="706" y="-16"/>
      <point x="904" y="149"/>
      <point x="998" y="373" type="curve" smooth="yes"/>
      <point x="1045" y="483"/>
      <point x="1068" y="595"/>
      <point x="1068" y="708" type="curve" smooth="yes"/>
      <point x="1068" y="967"/>
      <point x="967" y="1128"/>
      <point x="762" y="1128" type="curve" smooth="yes"/>
      <point x="618" y="1128"/>
      <point x="493" y="1036"/>
      <point x="409" y="920" type="curve"/>
      <point x="442" y="1093" type="line"/>
      <point x="501" y="1599" type="line"/>
      <point x="294" y="1599" type="line"/>
      <point x="81" y="-13" type="line"/>
    </contour>
    <contour>
      <point x="456" y="135" type="curve" smooth="yes"/>
      <point x="406" y="135"/>
      <point x="359" y="142"/>
      <point x="318" y="155" type="curve"/>
      <point x="391" y="704" type="line"/>
      <point x="459" y="819"/>
      <point x="593" y="966"/>
      <point x="713" y="966" type="curve" smooth="yes"/>
      <point x="813" y="966"/>
      <point x="844" y="843"/>
      <point x="844" y="685" type="curve" smooth="yes"/>
      <point x="844" y="517"/>
      <point x="785" y="333"/>
      <point x="670" y="220" type="curve" smooth="yes"/>
      <point x="611" y="164"/>
      <point x="540" y="135"/>
    </contour>
  </outline>
</glyph>
<glyph name="dcaron" format="2">
  <advance width="1423"/>
  <unicode hex="010F"/>
  <note>
dcaron
</note>
  <outline>
    <contour>
      <point x="1332" y="986" type="line"/>
      <point x="1404" y="1088"/>
      <point x="1452" y="1263"/>
      <point x="1452" y="1398" type="curve" smooth="yes"/>
      <point x="1452" y="1502"/>
      <point x="1444" y="1570"/>
      <point x="1422" y="1616" type="curve"/>
      <point x="1241" y="1571" type="line"/>
      <point x="1231" y="1538" type="line"/>
      <point x="1249" y="1509"/>
      <point x="1260" y="1429"/>
      <point x="1260" y="1350" type="curve" smooth="yes"/>
      <point x="1260" y="1256"/>
      <point x="1245" y="1151"/>
      <point x="1220" y="1048" type="curve"/>
      <point x="1226" y="1023" type="line"/>
    </contour>
    <component base="d"/>
  </outline>
</glyph>
<glyph name="dcroat" format="2">
  <advance width="1152"/>
  <unicode hex="0111"/>
  <note>
dcroat
</note>
  <outline>
    <contour>
      <point x="616" y="1232" type="line"/>
      <point x="1209" y="1232" type="line"/>
      <point x="1225" y="1360" type="line"/>
      <point x="631" y="1360" type="line"/>
    </contour>
    <component base="d"/>
  </outline>
</glyph>
<glyph name="Hbar" format="2">
  <advance width="1392"/>
  <unicode hex="0126"/>
  <note>
Hbar
</note>
  <outline>
    <contour>
      <point x="103" y="0" type="line"/>
      <point x="321" y="0" type="line"/>
      <point x="393" y="554" type="line"/>
      <point x="1004" y="554" type="line"/>
      <point x="932" y="0" type="line"/>
      <point x="1151" y="0" type="line"/>
      <point x="1274" y="962" type="line"/>
      <point x="1484" y="962" type="line"/>
      <point x="1500" y="1125" type="line"/>
      <point x="1296" y="1125" type="line"/>
      <point x="1343" y="1494" type="line"/>
      <point x="1124" y="1494" type="line"/>
      <point x="1077" y="1125" type="line"/>
      <point x="466" y="1125" type="line"/>
      <point x="515" y="1494" type="line"/>
      <point x="296" y="1494" type="line"/>
      <point x="249" y="1125" type="line"/>
      <point x="58" y="1125" type="line"/>
      <point x="42" y="962" type="line"/>
      <point x="227" y="962" type="line"/>
    </contour>
    <contour>
      <point x="413" y="716" type="line"/>
      <point x="445" y="962" type="line"/>
      <point x="1056" y="962" type="line"/>
      <point x="1025" y="716" type="line"/>
    </contour>
  </outline>
</glyph>
<glyph name="hbar" format="2">
  <advance width="1188"/>
  <unicode hex="0127"/>
  <note>
hbar
</note>
  <outline>
    <contour>
      <point x="127" y="1232" type="line"/>
      <point x="713" y="1232" type="line"/>
      <point x="727" y="1360" type="line"/>
      <point x="143" y="1360" type="line"/>
    </contour>
    <component base="h"/>
  </outline>
</glyph>
<glyph name="idotless" format="2">
  <advance width="583"/>
  <unicode hex="0131"/>
  <note>
dotlessi
</note>
  <anchor x="219" y="0" name="bottom"/>
  <anchor x="376" y="20" name="ogonek"/>
  <anchor x="367" y="1114" name="top"/>
  <outline>
    <contour>
      <point x="115" y="0" type="line"/>
      <point x="331" y="0" type="line"/>
      <point x="482" y="1114" type="line"/>
      <point x="266" y="1114" type="line"/>
    </contour>
  </outline>
</glyph>
<glyph name="kgreenlandic" format="2">
  <advance width="1045"/>
  <unicode hex="0138"/>
  <note>
kgreenlandic
</note>
  <outline>
    <contour>
      <point x="748" y="0" type="line"/>
      <point x="994" y="0" type="line"/>
      <point x="646" y="587" type="line"/>
      <point x="833" y="682"/>
      <point x="1037" y="911"/>
      <point x="1056" y="1126" type="curve"/>
      <point x="847" y="1126" type="line"/>
      <point x="777" y="915"/>
      <point x="614" y="727"/>
      <point x="417" y="616" type="curve"/>
    </contour>
    <contour>
      <point x="81" y="0" type="line"/>
      <point x="297" y="0" type="line"/>
      <point x="449" y="1126" type="line"/>
      <point x="233" y="1126" type="line"/>
    </contour>
  </outline>
</glyph>
<glyph name="Lcaron" format="2">
  <advance width="972"/>
  <unicode hex="013D"/>
  <note>
Lcaron
</note>
  <outline>
    <contour>
      <point x="884" y="981" type="line"/>
      <point x="957" y="1083"/>
      <point x="1005" y="1258"/>
      <point x="1005" y="1393" type="curve" smooth="yes"/>
      <point x="1005" y="1497"/>
      <point x="997" y="1565"/>
      <point x="975" y="1611" type="curve"/>
      <point x="793" y="1566" type="line"/>
      <point x="783" y="1533" type="line"/>
      <point x="801" y="1504"/>
      <point x="812" y="1424"/>
      <point x="812" y="1345" type="curve" smooth="yes"/>
      <point x="812" y="1251"/>
      <point x="797" y="1146"/>
      <point x="772" y="1043" type="curve"/>
      <point x="778" y="1018" type="line"/>
    </contour>
    <component base="L"/>
  </outline>
</glyph>
<glyph name="lcaron" format="2">
  <advance width="775"/>
  <unicode hex="013E"/>
  <note>
lcaron
</note>
  <outline>
    <contour>
      <point x="788" y="981" type="line"/>
      <point x="861" y="1083"/>
      <point x="909" y="1258"/>
      <point x="909" y="1393" type="curve" smooth="yes"/>
      <point x="909" y="1497"/>
      <point x="901" y="1565"/>
      <point x="879" y="1611" type="curve"/>
      <point x="697" y="1566" type="line"/>
      <point x="687" y="1533" type="line"/>
      <point x="705" y="1504"/>
      <point x="716" y="1424"/>
      <point x="716" y="1345" type="curve" smooth="yes"/>
      <point x="716" y="1251"/>
      <point x="701" y="1146"/>
      <point x="676" y="1043" type="curve"/>
      <point x="682" y="1018" type="line"/>
    </contour>
    <component base="l"/>
  </outline>
</glyph>
<glyph name="Lslash" format="2">
  <advance width="972"/>
  <unicode hex="0141"/>
  <note>
Lslash
</note>
  <outline>
    <contour>
      <point x="206" y="716" type="line"/>
      <point x="406" y="804" type="line"/>
      <point x="840" y="984" type="line"/>
      <point x="802" y="1120" type="line"/>
      <point x="426" y="958" type="line"/>
      <point x="226" y="868" type="line"/>
      <point x="-24" y="762" type="line"/>
      <point x="14" y="636" type="line"/>
    </contour>
    <component base="L"/>
  </outline>
</glyph>
<glyph name="lslash" format="2">
  <advance width="600"/>
  <unicode hex="0142"/>
  <note>
lslash
</note>
  <outline>
    <contour>
      <point x="124" y="4" type="line"/>
      <point x="340" y="4" type="line"/>
      <point x="462" y="902" type="line"/>
      <point x="634" y="968" type="line"/>
      <point x="634" y="1122" type="line"/>
      <point x="484" y="1060" type="line"/>
      <point x="556" y="1600" type="line"/>
      <point x="340" y="1600" type="line"/>
      <point x="254" y="966" type="line"/>
      <point x="80" y="894" type="line"/>
      <point x="80" y="750" type="line"/>
      <point x="234" y="812" type="line"/>
    </contour>
  </outline>
</glyph>
<glyph name="Eng" format="2">
  <advance width="1382"/>
  <unicode hex="014A"/>
  <note>
Eng
</note>
  <outline>
    <contour>
      <point x="683" y="-324" type="line"/>
      <point x="909" y="-291"/>
      <point x="1068" y="-185"/>
      <point x="1139" y="0" type="curve"/>
      <point x="1335" y="1494" type="line"/>
      <point x="1127" y="1494" type="line"/>
      <point x="1011" y="534" type="line"/>
      <point x="993" y="289" type="line"/>
      <point x="929" y="500" type="line"/>
      <point x="514" y="1494" type="line"/>
      <point x="296" y="1494" type="line"/>
      <point x="103" y="0" type="line"/>
      <point x="308" y="0" type="line"/>
      <point x="430" y="958" type="line"/>
      <point x="452" y="1245" type="line"/>
      <point x="511" y="1012" type="line"/>
      <point x="927" y="27" type="line"/>
      <point x="884" y="-89"/>
      <point x="786" y="-184"/>
      <point x="645" y="-231" type="curve"/>
    </contour>
  </outline>
</glyph>
<glyph name="eng" format="2">
  <advance width="1184"/>
  <unicode hex="014B"/>
  <note>
eng
</note>
  <outline>
    <contour>
      <point x="495" y="-507" type="curve" smooth="yes"/>
      <point x="747" y="-507"/>
      <point x="898" y="-333"/>
      <point x="949" y="0" type="curve" smooth="yes"/>
      <point x="990" y="269"/>
      <point x="1021" y="475"/>
      <point x="1039" y="607" type="curve" smooth="yes"/>
      <point x="1055" y="719"/>
      <point x="1062" y="801"/>
      <point x="1062" y="844" type="curve" smooth="yes"/>
      <point x="1062" y="1046"/>
      <point x="987" y="1128"/>
      <point x="836" y="1128" type="curve" smooth="yes"/>
      <point x="686" y="1128"/>
      <point x="530" y="1033"/>
      <point x="415" y="896" type="curve"/>
      <point x="435" y="1114" type="line"/>
      <point x="229" y="1114" type="line"/>
      <point x="79" y="0" type="line"/>
      <point x="295" y="0" type="line"/>
      <point x="389" y="693" type="line"/>
      <point x="465" y="797"/>
      <point x="642" y="938"/>
      <point x="741" y="938" type="curve" smooth="yes"/>
      <point x="813" y="938"/>
      <point x="840" y="914"/>
      <point x="839" y="824" type="curve" smooth="yes"/>
      <point x="838" y="696"/>
      <point x="774" y="310"/>
      <point x="732" y="0" type="curve" smooth="yes"/>
      <point x="696" y="-264"/>
      <point x="630" y="-380"/>
      <point x="456" y="-380" type="curve" smooth="yes"/>
      <point x="440" y="-380"/>
      <point x="402" y="-374"/>
      <point x="386" y="-368" type="curve"/>
      <point x="350" y="-471" type="line"/>
      <point x="372" y="-495"/>
      <point x="430" y="-507"/>
    </contour>
  </outline>
</glyph>
<glyph name="OE" format="2">
  <advance width="2042"/>
  <unicode hex="0152"/>
  <outline>
    <contour>
      <point x="596" y="-16" type="curve" smooth="yes"/>
      <point x="798" y="-16"/>
      <point x="970" y="78"/>
      <point x="1090" y="244" type="curve"/>
      <point x="1042" y="0" type="line"/>
      <point x="1916" y="0" type="line"/>
      <point x="1934" y="180" type="line"/>
      <point x="1250" y="166" type="line"/>
      <point x="1318" y="686" type="line"/>
      <point x="1758" y="670" type="line"/>
      <point x="1774" y="850" type="line"/>
      <point x="1338" y="844" type="line"/>
      <point x="1400" y="1328" type="line"/>
      <point x="1976" y="1322" type="line"/>
      <point x="1988" y="1494" type="line"/>
      <point x="1234" y="1494" type="line"/>
      <point x="1216" y="1224" type="line"/>
      <point x="1142" y="1402"/>
      <point x="1004" y="1510"/>
      <point x="804" y="1510" type="curve" smooth="yes"/>
      <point x="378" y="1510"/>
      <point x="106" y="1088"/>
      <point x="106" y="610" type="curve" smooth="yes"/>
      <point x="106" y="264"/>
      <point x="272" y="-16"/>
    </contour>
    <contour>
      <point x="626" y="150" type="curve" smooth="yes"/>
      <point x="430" y="150"/>
      <point x="338" y="296"/>
      <point x="332" y="626" type="curve" smooth="yes"/>
      <point x="328" y="958"/>
      <point x="490" y="1340"/>
      <point x="772" y="1340" type="curve" smooth="yes"/>
      <point x="978" y="1340"/>
      <point x="1062" y="1182"/>
      <point x="1066" y="868" type="curve" smooth="yes"/>
      <point x="1070" y="530"/>
      <point x="912" y="150"/>
    </contour>
  </outline>
</glyph>
<glyph name="tcaron" format="2">
  <advance width="740"/>
  <unicode hex="0165"/>
  <note>
tcaron
</note>
  <outline>
    <contour>
      <point x="766" y="1217" type="line"/>
      <point x="839" y="1319"/>
      <point x="887" y="1494"/>
      <point x="887" y="1629" type="curve" smooth="yes"/>
      <point x="887" y="1733"/>
      <point x="879" y="1801"/>
      <point x="857" y="1847" type="curve"/>
      <point x="675" y="1802" type="line"/>
      <point x="665" y="1769" type="line"/>
      <point x="683" y="1740"/>
      <point x="694" y="1660"/>
      <point x="694" y="1581" type="curve" smooth="yes"/>
      <point x="694" y="1487"/>
      <point x="679" y="1382"/>
      <point x="654" y="1279" type="curve"/>
      <point x="660" y="1254" type="line"/>
    </contour>
    <component base="t"/>
  </outline>
</glyph>
<glyph name="Tbar" format="2">
  <advance width="1103"/>
  <unicode hex="0166"/>
  <note>
Tbar
</note>
  <outline>
    <contour>
      <point x="364" y="0" type="line"/>
      <point x="583" y="0" type="line"/>
      <point x="672" y="692" type="line"/>
      <point x="934" y="692" type="line"/>
      <point x="952" y="837" type="line"/>
      <point x="690" y="837" type="line"/>
      <point x="754" y="1333" type="line"/>
      <point x="1153" y="1322" type="line"/>
      <point x="1176" y="1494" type="line"/>
      <point x="155" y="1494" type="line"/>
      <point x="129" y="1322" type="line"/>
      <point x="535" y="1333" type="line"/>
      <point x="472" y="837" type="line"/>
      <point x="214" y="837" type="line"/>
      <point x="196" y="692" type="line"/>
      <point x="452" y="692" type="line"/>
    </contour>
  </outline>
</glyph>
<glyph name="tbar" format="2">
  <advance width="740"/>
  <unicode hex="0167"/>
  <note>
tbar
</note>
  <outline>
    <contour>
      <point x="681" y="729" type="line"/>
      <point x="91" y="729" type="line"/>
      <point x="69" y="579" type="line"/>
      <point x="659" y="579" type="line"/>
    </contour>
    <component base="t"/>
  </outline>
</glyph>
<glyph name="Schwa" format="2">
  <advance width="1330"/>
  <unicode hex="018F"/>
  <anchor x="517" y="0" name="bottom"/>
  <anchor x="713" y="1496" name="top"/>
  <outline>
    <contour>
      <point x="583" y="-16" type="curve" smooth="yes"/>
      <point x="1027" y="-16"/>
      <point x="1273" y="400"/>
      <point x="1273" y="884" type="curve" smooth="yes"/>
      <point x="1273" y="1222"/>
      <point x="1121" y="1510"/>
      <point x="713" y="1510" type="curve" smooth="yes"/>
      <point x="575" y="1510"/>
      <point x="469" y="1492"/>
      <point x="293" y="1440" type="curve"/>
      <point x="303" y="1234" type="line"/>
      <point x="371" y="1276"/>
      <point x="523" y="1324"/>
      <point x="687" y="1324" type="curve" smooth="yes"/>
      <point x="955" y="1324"/>
      <point x="1043" y="1182"/>
      <point x="1047" y="868" type="curve" smooth="yes"/>
      <point x="1051" y="530"/>
      <point x="905" y="150"/>
      <point x="619" y="150" type="curve" smooth="yes"/>
      <point x="435" y="150"/>
      <point x="327" y="296"/>
      <point x="321" y="606" type="curve"/>
      <point x="1053" y="606" type="line"/>
      <point x="1079" y="774" type="line"/>
      <point x="123" y="774" type="line"/>
      <point x="117" y="746"/>
      <point x="99" y="676"/>
      <point x="99" y="610" type="curve" smooth="yes"/>
      <point x="99" y="266"/>
      <point x="269" y="-16"/>
    </contour>
  </outline>
</glyph>
<glyph name="florin" format="2">
  <advance width="1034"/>
  <unicode hex="0192"/>
  <note>
florin
</note>
  <outline>
    <contour>
      <point x="217" y="-348" type="line"/>
      <point x="434" y="-348" type="line"/>
      <point x="604" y="952" type="line"/>
      <point x="862" y="952" type="line"/>
      <point x="877" y="1114" type="line"/>
      <point x="625" y="1114" type="line"/>
      <point x="646" y="1260" type="line" smooth="yes"/>
      <point x="670" y="1424"/>
      <point x="725" y="1476"/>
      <point x="843" y="1476" type="curve" smooth="yes"/>
      <point x="917" y="1476"/>
      <point x="949" y="1460"/>
      <point x="981" y="1443" type="curve"/>
      <point x="1000" y="1619" type="line"/>
      <point x="969" y="1628"/>
      <point x="901" y="1637"/>
      <point x="845" y="1637" type="curve" smooth="yes"/>
      <point x="628" y="1637"/>
      <point x="468" y="1486"/>
      <point x="425" y="1204" type="curve" smooth="yes"/>
      <point x="411" y="1114" type="line"/>
      <point x="201" y="1065" type="line"/>
      <point x="186" y="952" type="line"/>
      <point x="390" y="952" type="line"/>
    </contour>
  </outline>
</glyph>
<glyph name="Ohorn" format="2">
  <advance width="1349"/>
  <unicode hex="01A0"/>
  <anchor x="758" y="1494" name="top"/>
  <outline>
    <contour>
      <point x="938" y="1320" type="line"/>
      <point x="1225" y="1320"/>
      <point x="1417" y="1456"/>
      <point x="1417" y="1703" type="curve" smooth="yes"/>
      <point x="1417" y="1717"/>
      <point x="1415" y="1731"/>
      <point x="1413" y="1747" type="curve"/>
      <point x="1242" y="1747" type="line"/>
      <point x="1244" y="1739"/>
      <point x="1240" y="1727"/>
      <point x="1240" y="1713" type="curve" smooth="yes"/>
      <point x="1240" y="1584"/>
      <point x="1197" y="1466"/>
      <point x="958" y="1466" type="curve"/>
    </contour>
    <component base="O"/>
  </outline>
</glyph>
<glyph name="Ezh" format="2">
  <advance width="1027"/>
  <unicode hex="01B7"/>
  <anchor x="664" y="1494" name="top"/>
  <outline>
    <contour>
      <point x="239" y="-14" type="curve" smooth="yes"/>
      <point x="685" y="-14"/>
      <point x="966" y="198"/>
      <point x="966" y="500" type="curve" smooth="yes"/>
      <point x="966" y="654"/>
      <point x="890" y="828"/>
      <point x="580" y="842" type="curve"/>
      <point x="1028" y="1268" type="line"/>
      <point x="1061" y="1496" type="line"/>
      <point x="195" y="1494" type="line"/>
      <point x="173" y="1322" type="line"/>
      <point x="850" y="1322" type="line"/>
      <point x="650" y="1144" type="line"/>
      <point x="344" y="846" type="line"/>
      <point x="324" y="670" type="line"/>
      <point x="434" y="726" type="line"/>
      <point x="582" y="732"/>
      <point x="760" y="672"/>
      <point x="760" y="492" type="curve" smooth="yes"/>
      <point x="760" y="290"/>
      <point x="520" y="158"/>
      <point x="242" y="158" type="curve" smooth="yes"/>
      <point x="188" y="158"/>
      <point x="118" y="164"/>
      <point x="62" y="170" type="curve"/>
      <point x="43" y="-2" type="line"/>
      <point x="113" y="-8"/>
      <point x="173" y="-14"/>
    </contour>
  </outline>
</glyph>
<glyph name="jdotless" format="2">
  <advance width="580"/>
  <unicode hex="0237"/>
  <note>
uni0237
</note>
  <anchor x="145" y="-546" name="bottom"/>
  <anchor x="380" y="1114" name="top"/>
  <outline>
    <contour>
      <point x="-93" y="-504" type="curve" smooth="yes"/>
      <point x="146" y="-504"/>
      <point x="292" y="-278"/>
      <point x="330" y="3" type="curve" smooth="yes"/>
      <point x="480" y="1114" type="line"/>
      <point x="264" y="1114" type="line"/>
      <point x="122" y="67" type="line" smooth="yes"/>
      <point x="90" y="-159"/>
      <point x="49" y="-361"/>
      <point x="-125" y="-361" type="curve" smooth="yes"/>
      <point x="-139" y="-361"/>
      <point x="-165" y="-356"/>
      <point x="-175" y="-348" type="curve"/>
      <point x="-231" y="-467" type="line"/>
      <point x="-197" y="-492"/>
      <point x="-149" y="-504"/>
    </contour>
  </outline>
</glyph>
<glyph name="schwa" format="2">
  <advance width="1024"/>
  <unicode hex="0259"/>
  <anchor x="357" y="0" name="bottom"/>
  <anchor x="375" y="1094" name="ogonek"/>
  <anchor x="531" y="1114" name="top"/>
  <outline>
    <contour>
      <point x="550" y="1130" type="curve" smooth="yes"/>
      <point x="408" y="1130"/>
      <point x="196" y="1012"/>
      <point x="136" y="926" type="curve"/>
      <point x="194" y="810" type="line"/>
      <point x="296" y="908"/>
      <point x="414" y="966"/>
      <point x="518" y="966" type="curve" smooth="yes"/>
      <point x="654" y="966"/>
      <point x="710" y="868"/>
      <point x="712" y="738" type="curve"/>
      <point x="712" y="726"/>
      <point x="712" y="716"/>
      <point x="712" y="706" type="curve"/>
      <point x="400" y="674"/>
      <point x="70" y="516"/>
      <point x="70" y="232" type="curve" smooth="yes"/>
      <point x="70" y="104"/>
      <point x="166" y="-14"/>
      <point x="348" y="-14" type="curve" smooth="yes"/>
      <point x="574" y="-14"/>
      <point x="758" y="118"/>
      <point x="860" y="332" type="curve" smooth="yes"/>
      <point x="912" y="440"/>
      <point x="938" y="560"/>
      <point x="940" y="692" type="curve" smooth="yes"/>
      <point x="942" y="850"/>
      <point x="888" y="988"/>
      <point x="770" y="1068" type="curve" smooth="yes"/>
      <point x="712" y="1110"/>
      <point x="638" y="1130"/>
    </contour>
    <contour>
      <point x="708" y="564" type="curve"/>
      <point x="696" y="442"/>
      <point x="642" y="296"/>
      <point x="550" y="206" type="curve" smooth="yes"/>
      <point x="506" y="160"/>
      <point x="454" y="138"/>
      <point x="396" y="138" type="curve" smooth="yes"/>
      <point x="324" y="138"/>
      <point x="284" y="170"/>
      <point x="284" y="250" type="curve" smooth="yes"/>
      <point x="284" y="418"/>
      <point x="526" y="558"/>
    </contour>
  </outline>
</glyph>
<glyph name="ezh" format="2">
  <advance width="908"/>
  <unicode hex="0292"/>
  <anchor x="366" y="0" name="bottom"/>
  <anchor x="440" y="558" name="center"/>
  <anchor x="528" y="1114" name="top"/>
  <outline>
    <contour>
      <point x="196" y="-294" type="curve" smooth="yes"/>
      <point x="580" y="-294"/>
      <point x="822" y="-110"/>
      <point x="828" y="192" type="curve" smooth="yes"/>
      <point x="830" y="340"/>
      <point x="704" y="496"/>
      <point x="494" y="496" type="curve"/>
      <point x="916" y="1050" type="line"/>
      <point x="876" y="1114" type="line"/>
      <point x="150" y="1114" type="line"/>
      <point x="122" y="944" type="line"/>
      <point x="640" y="944" type="line"/>
      <point x="524" y="838" type="line"/>
      <point x="234" y="462" type="line"/>
      <point x="318" y="360" type="line"/>
      <point x="484" y="360"/>
      <point x="584" y="308"/>
      <point x="582" y="180" type="curve" smooth="yes"/>
      <point x="582" y="-18"/>
      <point x="430" y="-134"/>
      <point x="182" y="-134" type="curve" smooth="yes"/>
      <point x="116" y="-134"/>
      <point x="74" y="-128"/>
      <point x="18" y="-118" type="curve"/>
      <point x="-4" y="-286" type="line"/>
      <point x="62" y="-288"/>
      <point x="126" y="-294"/>
    </contour>
  </outline>
</glyph>
<glyph name="commaturnedmod" format="2">
  <unicode hex="02BB"/>
  <anchor x="76" y="1114" name="_top"/>
  <anchor x="132" y="1560" name="top"/>
  <outline>
    <contour>
      <point x="134" y="1792" type="line"/>
      <point x="12" y="1717"/>
      <point x="-25" y="1615"/>
      <point x="-25" y="1508" type="curve" smooth="yes"/>
      <point x="-25" y="1416"/>
      <point x="22" y="1341"/>
      <point x="97" y="1289" type="curve"/>
      <point x="226" y="1374" type="line"/>
      <point x="234" y="1441" type="line"/>
      <point x="193" y="1449"/>
      <point x="159" y="1508"/>
      <point x="159" y="1571" type="curve" smooth="yes"/>
      <point x="159" y="1621"/>
      <point x="170" y="1666"/>
      <point x="219" y="1703" type="curve"/>
      <point x="223" y="1731" type="line"/>
    </contour>
  </outline>
</glyph>
<glyph name="apostrophemod" format="2">
  <unicode hex="02BC"/>
  <anchor x="76" y="1114" name="_top"/>
  <anchor x="132" y="1560" name="top"/>
  <outline>
    <contour>
      <point x="75" y="1289" type="line"/>
      <point x="196" y="1364"/>
      <point x="234" y="1466"/>
      <point x="234" y="1573" type="curve" smooth="yes"/>
      <point x="234" y="1665"/>
      <point x="187" y="1740"/>
      <point x="112" y="1792" type="curve"/>
      <point x="-17" y="1707" type="line"/>
      <point x="-25" y="1640" type="line"/>
      <point x="16" y="1633"/>
      <point x="50" y="1573"/>
      <point x="50" y="1510" type="curve" smooth="yes"/>
      <point x="50" y="1461"/>
      <point x="39" y="1415"/>
      <point x="-11" y="1378" type="curve"/>
      <point x="-15" y="1351" type="line"/>
    </contour>
  </outline>
</glyph>
<glyph name="ringhalfright" format="2">
  <unicode hex="02BE"/>
  <anchor x="76" y="1114" name="_top"/>
  <anchor x="132" y="1560" name="top"/>
  <outline>
    <contour>
      <point x="0" y="1292" type="line"/>
      <point x="198" y="1292"/>
      <point x="323" y="1398"/>
      <point x="321" y="1570" type="curve" smooth="yes"/>
      <point x="319" y="1760"/>
      <point x="157" y="1835"/>
      <point x="0" y="1835" type="curve"/>
      <point x="0" y="1706" type="line"/>
      <point x="94" y="1706"/>
      <point x="160" y="1665"/>
      <point x="160" y="1570" type="curve" smooth="yes"/>
      <point x="160" y="1465"/>
      <point x="111" y="1425"/>
      <point x="0" y="1424" type="curve"/>
    </contour>
  </outline>
</glyph>
<glyph name="ringhalfleft" format="2">
  <unicode hex="02BF"/>
  <outline>
    <contour>
      <point x="0" y="1292" type="curve"/>
      <point x="0" y="1424" type="line"/>
      <point x="-111" y="1425"/>
      <point x="-160" y="1465"/>
      <point x="-160" y="1570" type="curve" smooth="yes"/>
      <point x="-160" y="1665"/>
      <point x="-94" y="1706"/>
      <point x="0" y="1706" type="curve"/>
      <point x="0" y="1835" type="line"/>
      <point x="-157" y="1835"/>
      <point x="-319" y="1760"/>
      <point x="-321" y="1570" type="curve" smooth="yes"/>
      <point x="-323" y="1398"/>
      <point x="-198" y="1292"/>
    </contour>
  </outline>
</glyph>
<glyph name="circumflex" format="2">
  <advance width="777"/>
  <unicode hex="02C6"/>
  <note>
circumflex
</note>
  <outline>
    <contour>
      <point x="157" y="1202" type="line"/>
      <point x="459" y="1453" type="line"/>
      <point x="660" y="1209" type="line"/>
      <point x="761" y="1276" type="line"/>
      <point x="572" y="1641" type="line"/>
      <point x="398" y="1641" type="line"/>
      <point x="72" y="1276" type="line"/>
    </contour>
  </outline>
</glyph>
<glyph name="caron" format="2">
  <advance width="777"/>
  <unicode hex="02C7"/>
  <note>
caron
</note>
  <outline>
    <contour>
      <point x="299" y="1240" type="line"/>
      <point x="472" y="1240" type="line"/>
      <point x="787" y="1553" type="line"/>
      <point x="696" y="1634" type="line"/>
      <point x="398" y="1405" type="line"/>
      <point x="158" y="1634" type="line"/>
      <point x="66" y="1551" type="line"/>
    </contour>
  </outline>
</glyph>
<glyph name="verticallinemod" format="2">
  <unicode hex="02C8"/>
  <outline>
    <contour>
      <point x="-63" y="1323" type="line"/>
      <point x="60" y="1323" type="line"/>
      <point x="104" y="2080" type="line"/>
      <point x="-104" y="2080" type="line"/>
    </contour>
  </outline>
</glyph>
<glyph name="secondtonechinese" format="2">
  <unicode hex="02CA"/>
  <outline>
    <contour>
      <point x="-6" y="1250" type="line"/>
      <point x="66" y="1280"/>
      <point x="324" y="1507"/>
      <point x="375" y="1605" type="curve"/>
      <point x="203" y="1750" type="line"/>
      <point x="107" y="1605"/>
      <point x="-17" y="1469"/>
      <point x="-128" y="1353" type="curve"/>
    </contour>
  </outline>
</glyph>
<glyph name="verticallinelowmod" format="2">
  <unicode hex="02CC"/>
  <outline>
    <contour>
      <point x="-63" y="-572" type="line"/>
      <point x="60" y="-572" type="line"/>
      <point x="105" y="190" type="line"/>
      <point x="-105" y="190" type="line"/>
    </contour>
  </outline>
</glyph>
<glyph name="breve" format="2">
  <advance width="701"/>
  <unicode hex="02D8"/>
  <note>
breve
</note>
  <outline>
    <contour>
      <point x="342" y="1270" type="curve" smooth="yes"/>
      <point x="532" y="1270"/>
      <point x="677" y="1432"/>
      <point x="677" y="1617" type="curve"/>
      <point x="540" y="1617" type="line"/>
      <point x="513" y="1506"/>
      <point x="470" y="1425"/>
      <point x="350" y="1425" type="curve" smooth="yes"/>
      <point x="241" y="1425"/>
      <point x="199" y="1488"/>
      <point x="188" y="1617" type="curve"/>
      <point x="48" y="1617" type="line"/>
      <point x="14" y="1433"/>
      <point x="143" y="1270"/>
    </contour>
  </outline>
</glyph>
<glyph name="dotaccent" format="2">
  <advance width="379"/>
  <unicode hex="02D9"/>
  <note>
dotaccent
</note>
  <outline>
    <contour>
      <point x="169" y="1331" type="curve" smooth="yes"/>
      <point x="256" y="1331"/>
      <point x="330" y="1403"/>
      <point x="330" y="1487" type="curve" smooth="yes"/>
      <point x="330" y="1553"/>
      <point x="275" y="1603"/>
      <point x="201" y="1603" type="curve" smooth="yes"/>
      <point x="120" y="1603"/>
      <point x="49" y="1530"/>
      <point x="49" y="1450" type="curve" smooth="yes"/>
      <point x="49" y="1384"/>
      <point x="106" y="1331"/>
    </contour>
  </outline>
</glyph>
<glyph name="ring" format="2">
  <advance width="707"/>
  <unicode hex="02DA"/>
  <note>
ring
</note>
  <outline>
    <contour>
      <point x="369" y="1224" type="curve" smooth="yes"/>
      <point x="489" y="1224"/>
      <point x="597" y="1263"/>
      <point x="659" y="1345" type="curve" smooth="yes"/>
      <point x="690" y="1385"/>
      <point x="705" y="1434"/>
      <point x="705" y="1493" type="curve" smooth="yes"/>
      <point x="705" y="1653"/>
      <point x="599" y="1747"/>
      <point x="430" y="1747" type="curve" smooth="yes"/>
      <point x="318" y="1747"/>
      <point x="203" y="1707"/>
      <point x="135" y="1625" type="curve" smooth="yes"/>
      <point x="101" y="1583"/>
      <point x="84" y="1533"/>
      <point x="84" y="1473" type="curve" smooth="yes"/>
      <point x="84" y="1315"/>
      <point x="189" y="1224"/>
    </contour>
    <contour>
      <point x="376" y="1334" type="curve" smooth="yes"/>
      <point x="297" y="1334"/>
      <point x="229" y="1395"/>
      <point x="229" y="1473" type="curve" smooth="yes"/>
      <point x="229" y="1589"/>
      <point x="311" y="1636"/>
      <point x="413" y="1636" type="curve" smooth="yes"/>
      <point x="498" y="1636"/>
      <point x="557" y="1580"/>
      <point x="557" y="1502" type="curve" smooth="yes"/>
      <point x="557" y="1378"/>
      <point x="491" y="1334"/>
    </contour>
  </outline>
</glyph>
<glyph name="ogonek" format="2">
  <advance width="502"/>
  <unicode hex="02DB"/>
  <note>
ogonek
</note>
  <outline>
    <contour>
      <point x="195" y="-432" type="curve" smooth="yes"/>
      <point x="303" y="-432"/>
      <point x="390" y="-385"/>
      <point x="452" y="-331" type="curve"/>
      <point x="404" y="-231" type="line"/>
      <point x="352" y="-267"/>
      <point x="316" y="-280"/>
      <point x="272" y="-280" type="curve" smooth="yes"/>
      <point x="240" y="-280"/>
      <point x="211" y="-263"/>
      <point x="211" y="-215" type="curve" smooth="yes"/>
      <point x="211" y="-151"/>
      <point x="298" y="-80"/>
      <point x="420" y="6" type="curve"/>
      <point x="351" y="58" type="line"/>
      <point x="264" y="7" type="line" smooth="yes"/>
      <point x="130" y="-65"/>
      <point x="7" y="-159"/>
      <point x="7" y="-279" type="curve" smooth="yes"/>
      <point x="7" y="-362"/>
      <point x="81" y="-432"/>
    </contour>
  </outline>
</glyph>
<glyph name="tilde" format="2">
  <advance width="779"/>
  <unicode hex="02DC"/>
  <note>
tilde
</note>
  <outline>
    <contour>
      <point x="640" y="1264" type="curve" smooth="yes"/>
      <point x="738" y="1264"/>
      <point x="824" y="1349"/>
      <point x="856" y="1448" type="curve"/>
      <point x="777" y="1543" type="line"/>
      <point x="743" y="1477"/>
      <point x="703" y="1436"/>
      <point x="647" y="1436" type="curve" smooth="yes"/>
      <point x="615" y="1436"/>
      <point x="590" y="1450"/>
      <point x="554" y="1488" type="curve" smooth="yes"/>
      <point x="506" y="1540"/>
      <point x="439" y="1575"/>
      <point x="377" y="1575" type="curve" smooth="yes"/>
      <point x="288" y="1575"/>
      <point x="191" y="1491"/>
      <point x="151" y="1405" type="curve"/>
      <point x="231" y="1315" type="line"/>
      <point x="271" y="1377"/>
      <point x="305" y="1404"/>
      <point x="354" y="1404" type="curve" smooth="yes"/>
      <point x="394" y="1404"/>
      <point x="420" y="1384"/>
      <point x="458" y="1344" type="curve" smooth="yes"/>
      <point x="501" y="1297"/>
      <point x="567" y="1264"/>
    </contour>
  </outline>
</glyph>
<glyph name="hungarumlaut" format="2">
  <advance width="897"/>
  <unicode hex="02DD"/>
  <note>
hungarumlaut
</note>
  <outline>
    <contour>
      <point x="605" y="1230" type="line"/>
      <point x="692" y="1270"/>
      <point x="867" y="1487"/>
      <point x="905" y="1579" type="curve"/>
      <point x="753" y="1699" type="line"/>
      <point x="508" y="1286" type="line"/>
    </contour>
    <contour>
      <point x="181" y="1230" type="line"/>
      <point x="270" y="1280"/>
      <point x="429" y="1482"/>
      <point x="470" y="1580" type="curve"/>
      <point x="318" y="1699" type="line"/>
      <point x="83" y="1286" type="line"/>
    </contour>
  </outline>
</glyph>
<glyph name="gravecomb" format="2">
  <unicode hex="0300"/>
  <note>
grave
</note>
  <anchor x="74" y="1114" name="_top"/>
  <anchor x="134" y="1576" name="top"/>
  <outline>
    <contour>
      <point x="189" y="1301" type="curve"/>
      <point x="268" y="1374" type="line"/>
      <point x="-22" y="1774" type="line"/>
      <point x="-170" y="1629" type="line"/>
      <point x="-122" y="1544"/>
      <point x="96" y="1338"/>
    </contour>
  </outline>
</glyph>
<glyph name="acutecomb" format="2">
  <unicode hex="0301"/>
  <note>
acute
</note>
  <anchor x="115" y="1114" name="_top"/>
  <anchor x="16" y="1449" name="top"/>
  <outline>
    <contour>
      <point x="76" y="1301" type="line"/>
      <point x="171" y="1335"/>
      <point x="406" y="1542"/>
      <point x="452" y="1629" type="curve"/>
      <point x="306" y="1774" type="line"/>
      <point x="2" y="1374" type="line"/>
    </contour>
  </outline>
</glyph>
<glyph name="circumflexcomb" format="2">
  <unicode hex="0302"/>
  <note>
circumflex
</note>
  <anchor x="74" y="1114" name="_top"/>
  <anchor x="134" y="1576" name="top"/>
  <outline>
    <contour>
      <point x="-160" y="1234" type="line"/>
      <point x="142" y="1484" type="line"/>
      <point x="344" y="1240" type="line"/>
      <point x="444" y="1308" type="line"/>
      <point x="256" y="1662" type="line"/>
      <point x="82" y="1662" type="line"/>
      <point x="-246" y="1308" type="line"/>
    </contour>
  </outline>
</glyph>
<glyph name="tildecomb" format="2">
  <unicode hex="0303"/>
  <note>
tilde
</note>
  <anchor x="74" y="1114" name="_top"/>
  <anchor x="118" y="1489" name="top"/>
  <outline>
    <contour>
      <point x="238" y="1244" type="curve" smooth="yes"/>
      <point x="336" y="1244"/>
      <point x="424" y="1330"/>
      <point x="456" y="1428" type="curve"/>
      <point x="376" y="1524" type="line"/>
      <point x="342" y="1458"/>
      <point x="302" y="1416"/>
      <point x="246" y="1416" type="curve" smooth="yes"/>
      <point x="214" y="1416"/>
      <point x="188" y="1430"/>
      <point x="152" y="1468" type="curve" smooth="yes"/>
      <point x="104" y="1518"/>
      <point x="38" y="1556"/>
      <point x="-24" y="1556" type="curve" smooth="yes"/>
      <point x="-114" y="1556"/>
      <point x="-210" y="1470"/>
      <point x="-250" y="1386" type="curve"/>
      <point x="-170" y="1294" type="line"/>
      <point x="-130" y="1356"/>
      <point x="-96" y="1384"/>
      <point x="-48" y="1384" type="curve" smooth="yes"/>
      <point x="-8" y="1384"/>
      <point x="18" y="1364"/>
      <point x="56" y="1324" type="curve" smooth="yes"/>
      <point x="100" y="1278"/>
      <point x="166" y="1244"/>
    </contour>
  </outline>
</glyph>
<glyph name="macroncomb" format="2">
  <unicode hex="0304"/>
  <note>
macron
</note>
  <anchor x="74" y="1114" name="_top"/>
  <anchor x="116" y="1423" name="top"/>
  <outline>
    <contour>
      <point x="-147" y="1310" type="line"/>
      <point x="360" y="1310" type="line"/>
      <point x="377" y="1465" type="line"/>
      <point x="-132" y="1465" type="line"/>
    </contour>
  </outline>
</glyph>
<glyph name="brevecomb" format="2">
  <unicode hex="0306"/>
  <note>
breve
</note>
  <anchor x="74" y="1114" name="_top"/>
  <anchor x="134" y="1576" name="top"/>
  <outline>
    <contour>
      <point x="106" y="1262" type="curve" smooth="yes"/>
      <point x="298" y="1262"/>
      <point x="440" y="1424"/>
      <point x="440" y="1610" type="curve"/>
      <point x="304" y="1610" type="line"/>
      <point x="272" y="1500"/>
      <point x="234" y="1418"/>
      <point x="114" y="1418" type="curve" smooth="yes"/>
      <point x="8" y="1418"/>
      <point x="-34" y="1480"/>
      <point x="-48" y="1610" type="curve"/>
      <point x="-188" y="1610" type="line"/>
      <point x="-202" y="1408"/>
      <point x="-94" y="1262"/>
    </contour>
  </outline>
</glyph>
<glyph name="dotaccentcomb" format="2">
  <unicode hex="0307"/>
  <note>
dotaccent
</note>
  <anchor x="74" y="1114" name="_top"/>
  <anchor x="127" y="1537" name="top"/>
  <outline>
    <contour>
      <point x="100" y="1290" type="curve" smooth="yes"/>
      <point x="188" y="1290"/>
      <point x="260" y="1364"/>
      <point x="260" y="1448" type="curve" smooth="yes"/>
      <point x="260" y="1514"/>
      <point x="206" y="1564"/>
      <point x="132" y="1564" type="curve" smooth="yes"/>
      <point x="50" y="1564"/>
      <point x="-22" y="1490"/>
      <point x="-22" y="1410" type="curve" smooth="yes"/>
      <point x="-22" y="1344"/>
      <point x="36" y="1290"/>
    </contour>
  </outline>
</glyph>
<glyph name="dieresiscomb" format="2">
  <unicode hex="0308"/>
  <note>
dieresis
</note>
  <anchor x="74" y="1114" name="_top"/>
  <anchor x="124" y="1474" name="top"/>
  <outline>
    <contour>
      <point x="-124" y="1304" type="curve" smooth="yes"/>
      <point x="-30" y="1304"/>
      <point x="26" y="1370"/>
      <point x="26" y="1450" type="curve" smooth="yes"/>
      <point x="26" y="1514"/>
      <point x="-24" y="1564"/>
      <point x="-94" y="1564" type="curve" smooth="yes"/>
      <point x="-170" y="1564"/>
      <point x="-236" y="1506"/>
      <point x="-236" y="1418" type="curve" smooth="yes"/>
      <point x="-236" y="1358"/>
      <point x="-182" y="1304"/>
    </contour>
    <contour>
      <point x="308" y="1304" type="curve" smooth="yes"/>
      <point x="402" y="1304"/>
      <point x="458" y="1370"/>
      <point x="458" y="1450" type="curve" smooth="yes"/>
      <point x="458" y="1514"/>
      <point x="408" y="1564"/>
      <point x="338" y="1564" type="curve" smooth="yes"/>
      <point x="262" y="1564"/>
      <point x="196" y="1506"/>
      <point x="196" y="1418" type="curve" smooth="yes"/>
      <point x="196" y="1358"/>
      <point x="250" y="1304"/>
    </contour>
  </outline>
</glyph>
<glyph name="hookabovecomb" format="2">
  <unicode hex="0309"/>
  <anchor x="74" y="1114" name="_top"/>
  <anchor x="134" y="1576" name="top"/>
  <outline>
    <contour>
      <point x="32" y="1264" type="curve"/>
      <point x="140" y="1264" type="line"/>
      <point x="130" y="1318"/>
      <point x="158" y="1370"/>
      <point x="184" y="1390" type="curve" smooth="yes"/>
      <point x="242" y="1434"/>
      <point x="318" y="1474"/>
      <point x="330" y="1578" type="curve" smooth="yes"/>
      <point x="344" y="1692"/>
      <point x="256" y="1766"/>
      <point x="108" y="1766" type="curve" smooth="yes"/>
      <point x="52" y="1766"/>
      <point x="-26" y="1752"/>
      <point x="-72" y="1726" type="curve"/>
      <point x="-86" y="1592" type="line"/>
      <point x="-60" y="1606"/>
      <point x="0" y="1624"/>
      <point x="44" y="1624" type="curve" smooth="yes"/>
      <point x="116" y="1624"/>
      <point x="152" y="1598"/>
      <point x="146" y="1544" type="curve"/>
      <point x="138" y="1460"/>
      <point x="30" y="1460"/>
      <point x="18" y="1356" type="curve"/>
      <point x="12" y="1318"/>
      <point x="20" y="1292"/>
    </contour>
  </outline>
</glyph>
<glyph name="ringcomb" format="2">
  <unicode hex="030A"/>
  <note>
ring
</note>
  <anchor x="74" y="1114" name="_top"/>
  <anchor x="271" y="1466" name="top"/>
  <outline>
    <contour>
      <point x="98" y="1224" type="curve" smooth="yes"/>
      <point x="217" y="1224"/>
      <point x="326" y="1263"/>
      <point x="388" y="1345" type="curve" smooth="yes"/>
      <point x="419" y="1385"/>
      <point x="433" y="1434"/>
      <point x="433" y="1493" type="curve" smooth="yes"/>
      <point x="433" y="1653"/>
      <point x="327" y="1747"/>
      <point x="159" y="1747" type="curve" smooth="yes"/>
      <point x="47" y="1747"/>
      <point x="-70" y="1707"/>
      <point x="-138" y="1625" type="curve" smooth="yes"/>
      <point x="-173" y="1583"/>
      <point x="-189" y="1533"/>
      <point x="-189" y="1473" type="curve" smooth="yes"/>
      <point x="-189" y="1315"/>
      <point x="-84" y="1224"/>
    </contour>
    <contour>
      <point x="105" y="1334" type="curve" smooth="yes"/>
      <point x="25" y="1334"/>
      <point x="-45" y="1395"/>
      <point x="-45" y="1473" type="curve" smooth="yes"/>
      <point x="-45" y="1589"/>
      <point x="40" y="1636"/>
      <point x="142" y="1636" type="curve" smooth="yes"/>
      <point x="227" y="1636"/>
      <point x="285" y="1580"/>
      <point x="285" y="1502" type="curve" smooth="yes"/>
      <point x="285" y="1378"/>
      <point x="219" y="1334"/>
    </contour>
  </outline>
</glyph>
<glyph name="hungarumlautcomb" format="2">
  <unicode hex="030B"/>
  <note>
hungarumlaut
</note>
  <anchor x="88" y="1114" name="_top"/>
  <anchor x="148" y="1576" name="top"/>
  <outline>
    <contour>
      <point x="287" y="1230" type="line"/>
      <point x="373" y="1270"/>
      <point x="549" y="1487"/>
      <point x="587" y="1579" type="curve"/>
      <point x="435" y="1699" type="line"/>
      <point x="189" y="1286" type="line"/>
    </contour>
    <contour>
      <point x="-137" y="1230" type="line"/>
      <point x="-49" y="1280"/>
      <point x="111" y="1482"/>
      <point x="151" y="1580" type="curve"/>
      <point x="0" y="1699" type="line"/>
      <point x="-236" y="1286" type="line"/>
    </contour>
  </outline>
</glyph>
<glyph name="caroncomb" format="2">
  <unicode hex="030C"/>
  <note>
caron
</note>
  <anchor x="74" y="1114" name="_top"/>
  <anchor x="130" y="1576" name="top"/>
  <outline>
    <contour>
      <point x="13" y="1276" type="line"/>
      <point x="186" y="1276" type="line"/>
      <point x="501" y="1589" type="line"/>
      <point x="411" y="1670" type="line"/>
      <point x="113" y="1441" type="line"/>
      <point x="-128" y="1670" type="line"/>
      <point x="-219" y="1587" type="line"/>
    </contour>
  </outline>
</glyph>
<glyph name="dblgravecomb" format="2">
  <unicode hex="030F"/>
  <anchor x="74" y="1114" name="_top"/>
  <anchor x="136" y="1578" name="top"/>
  <outline>
    <contour>
      <point x="-94" y="1276" type="curve"/>
      <point x="3" y="1333" type="line"/>
      <point x="-242" y="1745" type="line"/>
      <point x="-394" y="1625" type="line"/>
      <point x="-356" y="1533"/>
      <point x="-181" y="1317"/>
    </contour>
    <contour>
      <point x="343" y="1276" type="curve"/>
      <point x="442" y="1333" type="line"/>
      <point x="207" y="1745" type="line"/>
      <point x="55" y="1627" type="line"/>
      <point x="95" y="1529"/>
      <point x="255" y="1326"/>
    </contour>
  </outline>
</glyph>
<glyph name="breveinvertedcomb" format="2">
  <unicode hex="0311"/>
  <note>
breve
</note>
  <anchor x="74" y="1114" name="_top"/>
  <anchor x="136" y="1578" name="top"/>
  <outline>
    <contour>
      <point x="107" y="1643" type="curve" smooth="yes"/>
      <point x="-85" y="1643"/>
      <point x="-227" y="1482"/>
      <point x="-227" y="1296" type="curve"/>
      <point x="-91" y="1296" type="line"/>
      <point x="-60" y="1406"/>
      <point x="-21" y="1488"/>
      <point x="99" y="1488" type="curve" smooth="yes"/>
      <point x="205" y="1488"/>
      <point x="261" y="1432"/>
      <point x="261" y="1296" type="curve"/>
      <point x="401" y="1296" type="line"/>
      <point x="415" y="1497"/>
      <point x="307" y="1643"/>
    </contour>
  </outline>
</glyph>
<glyph name="commaturnedabovecomb" format="2">
  <unicode hex="0312"/>
  <note>
uni0326
</note>
  <anchor x="74" y="1114" name="_top"/>
  <anchor x="134" y="1576" name="top"/>
  <outline>
    <contour>
      <point x="134" y="1792" type="line"/>
      <point x="12" y="1717"/>
      <point x="-25" y="1615"/>
      <point x="-25" y="1508" type="curve" smooth="yes"/>
      <point x="-25" y="1416"/>
      <point x="22" y="1341"/>
      <point x="97" y="1289" type="curve"/>
      <point x="226" y="1374" type="line"/>
      <point x="234" y="1441" type="line"/>
      <point x="193" y="1449"/>
      <point x="159" y="1508"/>
      <point x="159" y="1571" type="curve" smooth="yes"/>
      <point x="159" y="1621"/>
      <point x="170" y="1666"/>
      <point x="219" y="1703" type="curve"/>
      <point x="223" y="1731" type="line"/>
    </contour>
  </outline>
</glyph>
<glyph name="horncomb" format="2">
  <unicode hex="031B"/>
  <outline>
    <contour>
      <point x="-40" y="965" type="line"/>
      <point x="247" y="965"/>
      <point x="479" y="1074"/>
      <point x="479" y="1321" type="curve" smooth="yes"/>
      <point x="479" y="1335"/>
      <point x="477" y="1349"/>
      <point x="475" y="1365" type="curve"/>
      <point x="305" y="1365" type="line"/>
      <point x="307" y="1357"/>
      <point x="303" y="1345"/>
      <point x="303" y="1331" type="curve" smooth="yes"/>
      <point x="303" y="1202"/>
      <point x="219" y="1111"/>
      <point x="-20" y="1111" type="curve"/>
    </contour>
  </outline>
</glyph>
<glyph name="commaaccentcomb" format="2">
  <unicode hex="0326"/>
  <note>
uni0326
</note>
  <anchor x="0" y="0" name="_bottom"/>
  <anchor x="-52" y="-398" name="bottom"/>
  <outline>
    <contour>
      <point x="-72" y="-656" type="line"/>
      <point x="24" y="-638"/>
      <point x="112" y="-512"/>
      <point x="112" y="-374" type="curve" smooth="yes"/>
      <point x="112" y="-276"/>
      <point x="62" y="-194"/>
      <point x="-14" y="-172" type="curve"/>
      <point x="-148" y="-274" type="line"/>
      <point x="-154" y="-328" type="line"/>
      <point x="-116" y="-334"/>
      <point x="-84" y="-386"/>
      <point x="-86" y="-440" type="curve" smooth="yes"/>
      <point x="-88" y="-506"/>
      <point x="-104" y="-544"/>
      <point x="-150" y="-578" type="curve"/>
      <point x="-154" y="-604" type="line"/>
    </contour>
  </outline>
</glyph>
